<svg width="146" height="108" viewBox="0 0 146 108" fill="none" xmlns="http://www.w3.org/2000/svg">
<g clip-path="url(#clip0_62_1603)">
<path d="M144.978 104.583C144.978 106.157 143.827 107.213 142.466 107.213V107.203C141.065 107.213 139.936 106.157 139.936 104.583C139.936 103.01 141.065 101.957 142.466 101.957C143.828 101.957 144.978 103.01 144.978 104.583ZM145.997 104.583C145.997 102.423 144.327 101.169 142.466 101.169C140.592 101.169 138.922 102.423 138.922 104.583C138.922 106.741 140.592 108 142.466 108C144.327 108 145.997 106.741 145.997 104.583ZM141.88 104.872H142.258L143.134 106.417H144.096L143.126 104.807C143.627 104.771 144.04 104.531 144.04 103.852C144.04 103.01 143.461 102.739 142.482 102.739H141.065V106.417H141.88V104.872M141.88 104.249V103.363H142.447C142.755 103.363 143.175 103.388 143.175 103.766C143.175 104.177 142.958 104.249 142.594 104.249H141.88Z" fill="black"/>
<path d="M122.221 85.7685L126.624 97.8683H117.682L122.221 85.7685ZM117.506 81.0572L107.361 106.882H114.525L116.13 102.319H128.136L129.655 106.882H137.432L127.211 81.0539L117.506 81.0572ZM97.1374 106.891H104.406V81.0493L97.1361 81.0476L97.1374 106.891ZM46.6788 81.0476L40.6146 101.53L34.8055 81.0493L26.963 81.0476L35.2596 106.891H45.7308L54.0943 81.0476H46.6788ZM76.0587 86.675H79.1825C83.7147 86.675 86.6458 88.7191 86.6458 94.0238C86.6458 99.3298 83.7147 101.374 79.1825 101.374H76.0587V86.675ZM68.8513 81.0476V106.891H80.6348C86.9129 106.891 88.963 105.843 91.1796 103.491C92.7453 101.84 93.758 98.2155 93.758 94.2538C93.758 90.62 92.901 87.3811 91.4068 85.3628C88.7145 81.7533 84.8363 81.0476 79.0484 81.0476H68.8513ZM0 81.0117V106.891H7.32991V87.2409L13.0094 87.2425C14.89 87.2425 16.2305 87.7133 17.1361 88.6853C18.2847 89.9143 18.7537 91.8983 18.7537 95.5275V106.891H25.8564V92.5928C25.8564 82.3877 19.3818 81.0117 13.0468 81.0117H0ZM57.1533 81.0476L57.1563 106.891H64.4214V81.0476H57.1533Z" fill="black"/>
<path d="M19.5326 29.5899C19.5326 29.5899 28.881 15.7331 47.5466 14.2996V9.27235C26.8721 10.9404 8.96875 28.5319 8.96875 28.5319C8.96875 28.5319 19.1089 57.9812 47.5466 60.6776V55.334C26.6777 52.6965 19.5326 29.5899 19.5326 29.5899ZM47.5466 44.707V49.6007C31.7743 46.7757 27.3963 30.3044 27.3963 30.3044C27.3963 30.3044 34.9693 21.8763 47.5466 20.5095V25.8794C47.5371 25.8794 47.5304 25.8764 47.5225 25.8764C40.9213 25.0806 35.7644 31.2759 35.7644 31.2759C35.7644 31.2759 38.6548 41.7055 47.5466 44.707ZM47.5466 0V9.27235C48.1535 9.2256 48.7605 9.18596 49.3707 9.16509C72.8754 8.36923 88.1903 28.5319 88.1903 28.5319C88.1903 28.5319 70.6006 50.0197 52.2752 50.0197C50.5957 50.0197 49.0234 49.8632 47.5466 49.6002V55.334C48.8095 55.4951 50.1189 55.5898 51.4851 55.5898C68.5381 55.5898 80.8704 46.8404 92.8118 36.4851C94.7916 38.078 102.897 41.9534 104.563 43.6499C93.2093 53.1998 66.7481 60.8979 51.7464 60.8979C50.3004 60.8979 48.9117 60.8099 47.5466 60.6776V68.7346H112.364V0H47.5466ZM47.5466 20.5095V14.2996C48.1473 14.2574 48.7526 14.2253 49.3707 14.2057C66.2729 13.6723 77.3619 28.7978 77.3619 28.7978C77.3619 28.7978 65.3848 45.5091 52.5428 45.5091C50.6946 45.5091 49.038 45.2107 47.5466 44.707V25.8794C54.1267 26.6781 55.4506 29.5982 59.4066 36.2234L68.205 28.7702C68.205 28.7702 61.7823 20.3079 50.9555 20.3079C49.7786 20.3075 48.6525 20.3906 47.5466 20.5095Z" fill="#77B900"/>
</g>
<defs>
<clipPath id="clip0_62_1603">
<rect width="146" height="108" fill="white"/>
</clipPath>
</defs>
</svg>
