<svg width="44" height="17" viewBox="0 0 44 17" fill="none" xmlns="http://www.w3.org/2000/svg">
<path d="M0.394621 7.11193C-0.13154 7.63256 -0.13154 8.47806 0.394622 8.99869L7.12948 15.6628C7.65564 16.1834 8.51012 16.1834 9.03629 15.6628C9.56244 15.1421 9.56244 14.2966 9.03629 13.776L4.59549 9.38604L42.653 9.38604C43.3981 9.38604 44 8.79044 44 8.05322C44 7.31601 43.3981 6.72041 42.653 6.72041L4.5997 6.72042L9.03207 2.33046C9.55823 1.80983 9.55823 0.964331 9.03207 0.443701C8.50591 -0.0769286 7.65143 -0.0769285 7.12526 0.443702L0.390417 7.10777L0.394621 7.11193Z" fill="#063412"/>
</svg>
