<svg width="36" height="47" viewBox="0 0 36 47" fill="none" xmlns="http://www.w3.org/2000/svg">
<path d="M5.03906 0.5C2.6237 0.5 0.664062 2.43164 0.664062 4.8125V42.1875C0.664062 44.5684 2.6237 46.5 5.03906 46.5H13.7891V39.3125C13.7891 36.9316 15.7487 35 18.1641 35C20.5794 35 22.5391 36.9316 22.5391 39.3125V46.5H31.2891C33.7044 46.5 35.6641 44.5684 35.6641 42.1875V4.8125C35.6641 2.43164 33.7044 0.5 31.2891 0.5H5.03906ZM6.4974 22.0625C6.4974 21.2719 7.15365 20.625 7.95573 20.625H10.8724C11.6745 20.625 12.3307 21.2719 12.3307 22.0625V24.9375C12.3307 25.7281 11.6745 26.375 10.8724 26.375H7.95573C7.15365 26.375 6.4974 25.7281 6.4974 24.9375V22.0625ZM16.7057 20.625H19.6224C20.4245 20.625 21.0807 21.2719 21.0807 22.0625V24.9375C21.0807 25.7281 20.4245 26.375 19.6224 26.375H16.7057C15.9036 26.375 15.2474 25.7281 15.2474 24.9375V22.0625C15.2474 21.2719 15.9036 20.625 16.7057 20.625ZM23.9974 22.0625C23.9974 21.2719 24.6536 20.625 25.4557 20.625H28.3724C29.1745 20.625 29.8307 21.2719 29.8307 22.0625V24.9375C29.8307 25.7281 29.1745 26.375 28.3724 26.375H25.4557C24.6536 26.375 23.9974 25.7281 23.9974 24.9375V22.0625ZM7.95573 9.125H10.8724C11.6745 9.125 12.3307 9.77187 12.3307 10.5625V13.4375C12.3307 14.2281 11.6745 14.875 10.8724 14.875H7.95573C7.15365 14.875 6.4974 14.2281 6.4974 13.4375V10.5625C6.4974 9.77187 7.15365 9.125 7.95573 9.125ZM15.2474 10.5625C15.2474 9.77187 15.9036 9.125 16.7057 9.125H19.6224C20.4245 9.125 21.0807 9.77187 21.0807 10.5625V13.4375C21.0807 14.2281 20.4245 14.875 19.6224 14.875H16.7057C15.9036 14.875 15.2474 14.2281 15.2474 13.4375V10.5625ZM25.4557 9.125H28.3724C29.1745 9.125 29.8307 9.77187 29.8307 10.5625V13.4375C29.8307 14.2281 29.1745 14.875 28.3724 14.875H25.4557C24.6536 14.875 23.9974 14.2281 23.9974 13.4375V10.5625C23.9974 9.77187 24.6536 9.125 25.4557 9.125Z" fill="#063412"/>
</svg>
