<svg width="64" height="65" viewBox="0 0 64 65" fill="none" xmlns="http://www.w3.org/2000/svg">
<rect y="0.0532227" width="64" height="64" rx="32" fill="#C2FF96"/>
<path d="M32.2019 22.0454L26.4544 26.6392C25.4984 27.4009 25.3144 28.772 26.0388 29.7505C26.8047 30.7935 28.295 30.9985 29.3222 30.2075L35.2181 25.6841C35.6338 25.3677 36.2275 25.438 36.5541 25.8481C36.8806 26.2583 36.8034 26.8442 36.3878 27.1665L35.1469 28.1157L43.4 35.6157V24.5532H43.3584L43.1269 24.4067L38.8162 21.6821C37.9078 21.1079 36.845 20.8032 35.7644 20.8032C34.47 20.8032 33.2113 21.2427 32.2019 22.0454ZM33.5556 29.3345L30.4859 31.6899C28.6156 33.1313 25.9022 32.7563 24.5009 30.8579C23.1828 29.0708 23.5153 26.5747 25.255 25.186L30.195 21.2427C29.5063 20.9556 28.7641 20.8091 28.01 20.8091C26.8938 20.8032 25.8072 21.1313 24.875 21.7407L20.6 24.5532V37.6782H22.2744L27.7013 42.5649C28.865 43.6138 30.6641 43.5317 31.7269 42.3833C32.0534 42.0259 32.2731 41.6099 32.3859 41.1763L33.3953 42.0903C34.5531 43.1392 36.3581 43.063 37.4209 41.9204C37.6881 41.6333 37.8841 41.2993 38.0088 40.9536C39.1606 41.7153 40.7281 41.5571 41.6959 40.5142C42.7587 39.3716 42.6816 37.5903 41.5237 36.5415L33.5556 29.3345ZM13.95 24.5532C13.4275 24.5532 13 24.9751 13 25.4907V37.6782C13 38.7153 13.8491 39.5532 14.9 39.5532H16.8C17.8509 39.5532 18.7 38.7153 18.7 37.6782V24.5532H13.95ZM15.85 35.8032C16.102 35.8032 16.3436 35.902 16.5218 36.0778C16.6999 36.2536 16.8 36.4921 16.8 36.7407C16.8 36.9894 16.6999 37.2278 16.5218 37.4036C16.3436 37.5795 16.102 37.6782 15.85 37.6782C15.598 37.6782 15.3564 37.5795 15.1782 37.4036C15.0001 37.2278 14.9 36.9894 14.9 36.7407C14.9 36.4921 15.0001 36.2536 15.1782 36.0778C15.3564 35.902 15.598 35.8032 15.85 35.8032ZM45.3 24.5532V37.6782C45.3 38.7153 46.1491 39.5532 47.2 39.5532H49.1C50.1509 39.5532 51 38.7153 51 37.6782V25.4907C51 24.9751 50.5725 24.5532 50.05 24.5532H45.3ZM47.2 36.7407C47.2 36.4921 47.3001 36.2536 47.4782 36.0778C47.6564 35.902 47.898 35.8032 48.15 35.8032C48.402 35.8032 48.6436 35.902 48.8218 36.0778C48.9999 36.2536 49.1 36.4921 49.1 36.7407C49.1 36.9894 48.9999 37.2278 48.8218 37.4036C48.6436 37.5795 48.402 37.6782 48.15 37.6782C47.898 37.6782 47.6564 37.5795 47.4782 37.4036C47.3001 37.2278 47.2 36.9894 47.2 36.7407Z" fill="#063412"/>
</svg>
