<svg width="64" height="65" viewBox="0 0 64 65" fill="none" xmlns="http://www.w3.org/2000/svg">
<rect y="0.0532227" width="64" height="64" rx="32" fill="#C2FF96"/>
<g clip-path="url(#clip0_49_83)">
<path d="M32 48.0532C36.2435 48.0532 40.3131 46.3675 43.3137 43.3669C46.3143 40.3664 48 36.2967 48 32.0532C48 27.8098 46.3143 23.7401 43.3137 20.7395C40.3131 17.7389 36.2435 16.0532 32 16.0532C27.7565 16.0532 23.6869 17.7389 20.6863 20.7395C17.6857 23.7401 16 27.8098 16 32.0532C16 36.2967 17.6857 40.3664 20.6863 43.3669C23.6869 46.3675 27.7565 48.0532 32 48.0532ZM39.0625 29.1157L31.0625 37.1157C30.475 37.7032 29.525 37.7032 28.9438 37.1157L24.9438 33.1157C24.3563 32.5282 24.3563 31.5782 24.9438 30.997C25.5312 30.4157 26.4812 30.4095 27.0625 30.997L30 33.9345L36.9375 26.9907C37.525 26.4032 38.475 26.4032 39.0562 26.9907C39.6375 27.5782 39.6437 28.5282 39.0562 29.1095L39.0625 29.1157Z" fill="#063412"/>
</g>
<defs>
<clipPath id="clip0_49_83">
<rect width="32" height="32" fill="white" transform="translate(16 16.0532)"/>
</clipPath>
</defs>
</svg>
