<svg width="65" height="64" viewBox="0 0 65 64" fill="none" xmlns="http://www.w3.org/2000/svg">
<rect x="0.5" width="64" height="64" rx="32" fill="#C2FF96"/>
<path d="M35.5859 37C35.5859 36.558 35.4234 36.1342 35.1342 35.8216C34.8451 35.5091 34.4531 35.3333 34.0442 35.3333H30.9609C30.552 35.3333 30.16 35.5091 29.8709 35.8216C29.5818 36.1342 29.4192 36.558 29.4192 37V45.3334H35.5859V37ZM44.8359 43.6667C44.8359 44.9928 44.3483 46.2642 43.4809 47.2018C42.6136 48.1395 41.4375 48.6667 40.2109 48.6667H24.7942C23.5676 48.6667 22.3916 48.1395 21.5242 47.2018C20.6569 46.2642 20.1692 44.9928 20.1692 43.6667V33.6667H18.6276C18.0041 33.6667 17.442 33.2607 17.2033 32.638C16.9647 32.0152 17.0966 31.2983 17.5376 30.8216L31.4126 15.8216L31.53 15.7077C32.1355 15.1738 33.0281 15.2114 33.5926 15.8216L47.4676 30.8216C47.9085 31.2983 48.0404 32.0152 47.8018 32.638C47.5631 33.2607 47.001 33.6667 46.3776 33.6667H44.8359V43.6667ZM38.6692 45.3334H40.2109C40.6198 45.3334 41.0118 45.1576 41.3009 44.8451C41.59 44.5325 41.7526 44.1087 41.7526 43.6667V32C41.7526 31.2852 42.169 30.6759 42.7537 30.4391L32.5026 19.3568L22.2499 30.4391C22.8353 30.6755 23.2526 31.2847 23.2526 32V43.6667L23.2601 43.8311C23.2951 44.2127 23.4512 44.5715 23.7042 44.8451C23.9933 45.1576 24.3854 45.3334 24.7942 45.3334H26.3359V37C26.3359 35.6739 26.8235 34.4025 27.6909 33.4649C28.5582 32.5272 29.7343 32 30.9609 32H34.0442C35.2709 32 36.4469 32.5272 37.3142 33.4649C38.1816 34.4025 38.6692 35.6739 38.6692 37V45.3334Z" fill="black"/>
</svg>
