<svg width="53" height="52" viewBox="0 0 53 52" fill="none" xmlns="http://www.w3.org/2000/svg">
<rect x="0.335938" width="52" height="52" rx="16" fill="#FFF1A0"/>
<path fill-rule="evenodd" clip-rule="evenodd" d="M12.3359 17C10.1268 17 8.33594 18.7909 8.33594 21V31C8.33594 33.2091 10.1268 35 12.3359 35H40.3359C42.5451 35 44.3359 33.2091 44.3359 31V21C44.3359 18.7909 42.5451 17 40.3359 17H12.3359ZM25.0089 20.6C22.7829 20.6 21.2009 21.93 21.2009 23.806C21.2009 25.5 22.1529 26.55 24.0009 26.928L25.5829 27.25C26.2689 27.39 26.5349 27.684 26.5349 28.258C26.5349 28.916 25.8909 29.322 24.8689 29.322C23.8609 29.322 23.3009 28.902 23.3009 28.146H21.0469C21.0469 30.092 22.5449 31.338 24.8549 31.338C27.2349 31.338 28.8029 30.036 28.8029 28.034C28.8029 26.396 27.9209 25.514 26.0729 25.136L24.5189 24.814C23.7909 24.66 23.4689 24.352 23.4689 23.722C23.4689 23.036 24.0569 22.616 24.9809 22.616C25.8349 22.616 26.3809 23.064 26.3809 23.792H28.6349C28.6349 21.832 27.2349 20.6 25.0089 20.6ZM32.1206 26.0741C32.1206 24.0721 33.0866 22.7561 34.9626 22.7561C36.0406 22.7561 36.9926 23.2321 37.2586 24.3241H39.6386C39.4006 22.0841 37.4966 20.6281 35.0186 20.6281C31.8126 20.6281 29.7266 22.8821 29.7266 26.0041C29.7266 29.1821 31.7566 31.3101 34.6546 31.3101C35.8866 31.3101 37.0066 30.8761 37.5666 30.2181L37.6926 31.1561H39.6386V25.2061H34.7666V27.1941H37.5106C37.4126 28.2721 36.6566 29.1961 34.9486 29.1961C33.2966 29.1961 32.1206 28.1601 32.1206 26.0741ZM19.9159 31.156H13.3359V20.796H19.9159V22.896H15.6039V24.926H19.4259V26.914H15.6039V29.056H19.9159V31.156Z" fill="#582B11"/>
</svg>
