<svg width="53" height="52" viewBox="0 0 53 52" fill="none" xmlns="http://www.w3.org/2000/svg">
<rect x="0.664062" width="52" height="52" rx="16" fill="#C1F3D9"/>
<g clip-path="url(#clip0_109_731)">
<path d="M17.6641 17C17.6641 16.1703 16.9938 15.5 16.1641 15.5C15.3344 15.5 14.6641 16.1703 14.6641 17V32.75C14.6641 34.8219 16.3422 36.5 18.4141 36.5H37.1641C37.9937 36.5 38.6641 35.8297 38.6641 35C38.6641 34.1703 37.9937 33.5 37.1641 33.5H18.4141C18.0016 33.5 17.6641 33.1625 17.6641 32.75V17ZM36.7234 21.0594C37.3094 20.4734 37.3094 19.5219 36.7234 18.9359C36.1375 18.35 35.1859 18.35 34.6 18.9359L29.6641 23.8766L26.9734 21.1859C26.3875 20.6 25.4359 20.6 24.85 21.1859L19.6 26.4359C19.0141 27.0219 19.0141 27.9734 19.6 28.5594C20.1859 29.1453 21.1375 29.1453 21.7234 28.5594L25.9141 24.3734L28.6047 27.0641C29.1906 27.65 30.1422 27.65 30.7281 27.0641L36.7281 21.0641L36.7234 21.0594Z" fill="#063412"/>
</g>
<defs>
<clipPath id="clip0_109_731">
<rect width="24" height="24" fill="white" transform="translate(14.6641 14)"/>
</clipPath>
</defs>
</svg>
