<svg width="53" height="52" viewBox="0 0 53 52" fill="none" xmlns="http://www.w3.org/2000/svg">
<rect x="0.664062" width="52" height="52" rx="16" fill="#FFF1A0"/>
<g clip-path="url(#clip0_109_758)">
<path fill-rule="evenodd" clip-rule="evenodd" d="M28.3859 18.6547L32.1922 19.925C32.3573 19.9801 32.5251 20.0048 32.6896 20.0024C32.5261 20.0045 32.3594 19.9797 32.1953 19.925L28.3891 18.6547C28.0797 18.5516 27.7563 18.5 27.4328 18.5C27.4162 18.5 27.3997 18.5001 27.3831 18.5004C27.3986 18.5002 27.4141 18.5 27.4297 18.5C27.7531 18.5 28.0766 18.5516 28.3859 18.6547ZM29.6868 27.4998C29.6792 27.4999 29.6716 27.5 29.6641 27.5H24.4141V27.5H29.6609C29.6696 27.5 29.6782 27.5 29.6868 27.4998ZM32.6868 36.4998C32.6792 36.4999 32.6716 36.5 32.6641 36.5H20.6641C20.125 36.5 19.6281 36.2047 19.3609 35.7359C19.0938 35.2672 19.1031 34.6906 19.3797 34.2266L20.7719 31.9016C21.1938 31.2031 21.4141 30.4016 21.4141 29.5859V27.5H20.6641C19.8344 27.5 19.1641 26.8297 19.1641 26C19.1641 25.1789 19.8205 24.514 20.6382 24.5002C19.8191 24.5123 19.1609 25.1779 19.1609 26C19.1609 26.8297 19.8313 27.5 20.6609 27.5H21.4109V29.586C21.4109 30.4016 21.1906 31.2032 20.7687 31.9016L19.3766 34.2266C19.1 34.6907 19.0906 35.2672 19.3578 35.736C19.625 36.2047 20.1219 36.5 20.6609 36.5H32.6609C32.6696 36.5 32.6782 36.5 32.6868 36.4998ZM21.4109 24.5H21.4141V21.5187C21.4141 18.2278 24.0569 15.5528 27.3354 15.5008C24.0554 15.5512 21.4109 18.2268 21.4109 21.5188V24.5ZM27.4297 15.3C28.0978 15.3 28.7614 15.4065 29.3963 15.6198L33.2073 16.8901C34.0945 17.1876 34.578 18.1538 34.2802 19.0418C33.9828 19.9288 33.0213 20.4123 32.1289 20.1148L28.3226 18.8444C28.0339 18.7482 27.7319 18.7 27.4297 18.7C25.8716 18.7 24.6109 19.965 24.6109 21.5188V24.3H29.6609C30.6011 24.3 31.3609 25.0599 31.3609 26C31.3609 26.9402 30.6011 27.7 29.6609 27.7H24.6109V29.586C24.6109 30.8851 24.2815 32.1632 23.6578 33.3H32.6609C33.6011 33.3 34.3609 34.0599 34.3609 35C34.3609 35.9402 33.6011 36.7001 32.6609 36.7001H20.6609C20.0483 36.7001 19.486 36.3647 19.1841 35.835C18.8806 35.3027 18.8921 34.6488 19.205 34.1239L20.5976 31.7982C21.0003 31.1314 21.2109 30.3656 21.2109 29.586V27.7H20.6609C19.7208 27.7 18.9609 26.9402 18.9609 26C18.9609 25.0599 19.7208 24.3 20.6609 24.3H21.2109V21.5188C21.2109 18.0849 23.9958 15.3 27.4297 15.3Z" fill="#582B11"/>
</g>
<defs>
<clipPath id="clip0_109_758">
<rect width="15" height="24" fill="white" transform="translate(19.1641 14)"/>
</clipPath>
</defs>
</svg>
