<svg width="52" height="52" viewBox="0 0 52 52" fill="none" xmlns="http://www.w3.org/2000/svg">
<rect width="52" height="52" rx="16" fill="#FFF1A0"/>
<path d="M22.5714 16.5714C22.5714 15.1518 23.7232 14 25.1429 14H26.8571C28.2768 14 29.4286 15.1518 29.4286 16.5714V35.4286C29.4286 36.8482 28.2768 38 26.8571 38H25.1429C23.7232 38 22.5714 36.8482 22.5714 35.4286V16.5714ZM14 26.8571C14 25.4375 15.1518 24.2857 16.5714 24.2857H18.2857C19.7054 24.2857 20.8571 25.4375 20.8571 26.8571V35.4286C20.8571 36.8482 19.7054 38 18.2857 38H16.5714C15.1518 38 14 36.8482 14 35.4286V26.8571ZM33.7143 17.4286H35.4286C36.8482 17.4286 38 18.5804 38 20V35.4286C38 36.8482 36.8482 38 35.4286 38H33.7143C32.2946 38 31.1429 36.8482 31.1429 35.4286V20C31.1429 18.5804 32.2946 17.4286 33.7143 17.4286Z" fill="#582B11"/>
</svg>
