<svg width="209" height="51" viewBox="0 0 209 51" fill="none" xmlns="http://www.w3.org/2000/svg">
<g clip-path="url(#clip0_62_1469)">
<path d="M6.16667 2.5H21.9891C23.4943 2.5 24.9375 3.10195 26 4.18008L32.8443 11.125C33.9068 12.2031 34.5 13.6676 34.5 15.1949V42.75C34.5 45.9215 31.9589 48.5 28.8333 48.5H6.16667C3.04115 48.5 0.5 45.9215 0.5 42.75V8.25C0.5 5.07852 3.04115 2.5 6.16667 2.5ZM9 19.75C7.43281 19.75 6.16667 21.0348 6.16667 22.625V25.5H11.8333V19.75H9ZM6.16667 34.125H13.25H21.75H28.8333V28.375H21.75H13.25H6.16667V34.125ZM28.8333 22.625C28.8333 21.0348 27.5672 19.75 26 19.75H23.1667V25.5H28.8333V22.625ZM14.6667 19.75V25.5H20.3333V19.75H14.6667ZM26 42.75C27.5672 42.75 28.8333 41.4652 28.8333 39.875V37H23.1667V42.75H26ZM14.6667 37V42.75H20.3333V37H14.6667ZM6.16667 39.875C6.16667 41.4652 7.43281 42.75 9 42.75H11.8333V37H6.16667V39.875Z" fill="#063412"/>
</g>
<path d="M124.5 3.625C124.5 14.7188 116.238 23.8887 105.535 25.3047C104.842 20.0898 102.547 15.3828 99.1582 11.7012C102.898 5.02148 110.047 0.5 118.25 0.5H121.375C123.104 0.5 124.5 1.89648 124.5 3.625ZM74.5 9.875C74.5 8.14648 75.8965 6.75 77.625 6.75H80.75C92.8301 6.75 102.625 16.5449 102.625 28.625V31.75V47.375C102.625 49.1035 101.229 50.5 99.5 50.5C97.7715 50.5 96.375 49.1035 96.375 47.375V31.75C84.2949 31.75 74.5 21.9551 74.5 9.875Z" fill="#063412"/>
<g clip-path="url(#clip1_62_1469)">
<path d="M180.214 8.3125C180.214 5.72461 182.326 3.625 184.929 3.625H188.071C190.674 3.625 192.786 5.72461 192.786 8.3125V42.6875C192.786 45.2754 190.674 47.375 188.071 47.375H184.929C182.326 47.375 180.214 45.2754 180.214 42.6875V8.3125ZM164.5 27.0625C164.5 24.4746 166.612 22.375 169.214 22.375H172.357C174.96 22.375 177.071 24.4746 177.071 27.0625V42.6875C177.071 45.2754 174.96 47.375 172.357 47.375H169.214C166.612 47.375 164.5 45.2754 164.5 42.6875V27.0625ZM200.643 9.875H203.786C206.388 9.875 208.5 11.9746 208.5 14.5625V42.6875C208.5 45.2754 206.388 47.375 203.786 47.375H200.643C198.04 47.375 195.929 45.2754 195.929 42.6875V14.5625C195.929 11.9746 198.04 9.875 200.643 9.875Z" fill="#063412"/>
</g>
<defs>
<clipPath id="clip0_62_1469">
<rect width="34" height="46" fill="white" transform="translate(0.5 2.5)"/>
</clipPath>
<clipPath id="clip1_62_1469">
<rect width="44" height="50" fill="white" transform="translate(164.5 0.5)"/>
</clipPath>
</defs>
</svg>
