<svg width="64" height="64" viewBox="0 0 64 64" fill="none" xmlns="http://www.w3.org/2000/svg">
<rect width="64" height="64" rx="32" fill="#C2FF96"/>
<path d="M47 18.875C47 25.5312 42.043 31.0332 35.6211 31.8828C35.2051 28.7539 33.8281 25.9297 31.7949 23.7207C34.0391 19.7129 38.3281 17 43.25 17H45.125C46.1621 17 47 17.8379 47 18.875ZM17 22.625C17 21.5879 17.8379 20.75 18.875 20.75H20.75C27.998 20.75 33.875 26.627 33.875 33.875V35.75V45.125C33.875 46.1621 33.0371 47 32 47C30.9629 47 30.125 46.1621 30.125 45.125V35.75C22.877 35.75 17 29.873 17 22.625Z" fill="#063412"/>
</svg>
