<svg width="64" height="64" viewBox="0 0 64 64" fill="none" xmlns="http://www.w3.org/2000/svg">
<rect width="64" height="64" rx="32" fill="#C2FF96"/>
<path d="M33.0502 13.2003C33.639 12.9059 34.3382 12.9379 34.8982 13.2838C35.4584 13.63 35.8 14.2415 35.8 14.9V21.4832L46.3539 28.5191C46.8825 28.8715 47.2 29.4647 47.2 30.1V47.2H49.1C50.1493 47.2 51 48.0507 51 49.1C51 50.1493 50.1493 51 49.1 51H14.9C13.8507 51 13 50.1493 13 49.1C13 48.0507 13.8507 47.2 14.9 47.2H16.8V22.5C16.8 21.7803 17.2065 21.1222 17.8502 20.8004L33.0502 13.2003ZM35.8 47.2H43.4V31.1168L35.8 26.0495V47.2ZM20.6 23.6745V47.2H32V17.9745L20.6 23.6745ZM24.4 43.4185V43.4C24.4 42.3506 25.2507 41.5 26.3 41.5C27.3493 41.5 28.2 42.3506 28.2 43.4V43.4185C28.2 44.4679 27.3493 45.3185 26.3 45.3185C25.2507 45.3185 24.4 44.4679 24.4 43.4185ZM24.4 37.7185V37.7C24.4 36.6506 25.2507 35.8 26.3 35.8C27.3493 35.8 28.2 36.6506 28.2 37.7V37.7185C28.2 38.7679 27.3493 39.6185 26.3 39.6185C25.2507 39.6185 24.4 38.7679 24.4 37.7185ZM24.4 32.0185V32C24.4 30.9506 25.2507 30.1 26.3 30.1C27.3493 30.1 28.2 30.9506 28.2 32V32.0185C28.2 33.0679 27.3493 33.9185 26.3 33.9185C25.2507 33.9185 24.4 33.0679 24.4 32.0185ZM24.4 26.3185V26.3C24.4 25.2506 25.2507 24.4 26.3 24.4C27.3493 24.4 28.2 25.2506 28.2 26.3V26.3185C28.2 27.3679 27.3493 28.2185 26.3 28.2185C25.2507 28.2185 24.4 27.3679 24.4 26.3185Z" fill="black"/>
</svg>
