<svg width="49" height="48" viewBox="0 0 49 48" fill="none" xmlns="http://www.w3.org/2000/svg">
<g clip-path="url(#clip0_109_1911)">
<path d="M21.9007 8.70938C23.2413 12.7313 21.8726 16.7906 18.8445 17.7844C15.8163 18.7781 12.2726 16.3219 10.932 12.3C9.59134 8.27813 10.9601 4.21876 13.9882 3.22501C17.0163 2.23126 20.5601 4.68751 21.9007 8.70938ZM10.0788 18.6188C11.8507 21.6563 11.4195 25.1906 9.12259 26.5031C6.82571 27.8156 3.52571 26.4188 1.76321 23.3813C0.000710845 20.3438 0.413211 16.8094 2.71009 15.4969C5.00696 14.1844 8.30696 15.5813 10.0695 18.6188H10.0788ZM7.15384 37.6125C12.0663 24.3656 20.7945 21 24.6663 21C28.5382 21 37.2663 24.3656 42.1788 37.6125C42.5163 38.5219 42.6663 39.4969 42.6663 40.4719V40.6219C42.6663 43.0406 40.707 45 38.2882 45C37.2101 45 36.1413 44.8688 35.1007 44.6063L26.8507 42.5438C25.4163 42.1875 23.9163 42.1875 22.482 42.5438L14.232 44.6063C13.1913 44.8688 12.1226 45 11.0445 45C8.62571 45 6.66634 43.0406 6.66634 40.6219V40.4719C6.66634 39.4969 6.81634 38.5219 7.15384 37.6125ZM40.2101 26.5031C37.9132 25.1906 37.482 21.6563 39.2538 18.6188C41.0257 15.5813 44.3163 14.1844 46.6132 15.4969C48.9101 16.8094 49.3413 20.3438 47.5695 23.3813C45.7976 26.4188 42.507 27.8156 40.2101 26.5031ZM29.7382 17.7844C26.7101 16.7906 25.3413 12.7313 26.682 8.70938C28.0226 4.68751 31.5663 2.23126 34.5945 3.22501C37.6226 4.21876 38.9913 8.27813 37.6507 12.3C36.3101 16.3219 32.7663 18.7781 29.7382 17.7844Z" fill="#063412"/>
</g>
<defs>
<clipPath id="clip0_109_1911">
<rect width="48" height="48" fill="white" transform="translate(0.664062)"/>
</clipPath>
</defs>
</svg>
