<svg width="64" height="65" viewBox="0 0 64 65" fill="none" xmlns="http://www.w3.org/2000/svg">
<rect y="0.386597" width="64" height="64" rx="32" fill="#C2FF96"/>
<path d="M44.499 35.8696L47.7767 41.6916C47.9116 41.9313 47.9877 42.201 47.9986 42.4775C48.0095 42.754 47.9549 43.0291 47.8393 43.2792C47.7237 43.5293 47.5507 43.7469 47.3351 43.9134C47.1195 44.0799 46.8677 44.1903 46.6013 44.2351L46.4129 44.2539L46.2262 44.2522L41.3364 43.9274L39.164 48.4332C39.0461 48.6772 38.873 48.8888 38.6593 49.0504C38.4456 49.2121 38.1973 49.3191 37.9351 49.3625C37.6729 49.406 37.4044 49.3847 37.1519 49.3003C36.8993 49.216 36.6701 49.0711 36.4832 48.8776L36.3465 48.717L36.2264 48.5289L32.9454 42.7052C35.2551 42.5572 37.5 41.8631 39.5044 40.6772C41.5088 39.4913 43.2183 37.8458 44.499 35.8696Z" fill="#063412"/>
<path d="M31.0518 42.7053L27.7741 48.5307C27.6413 48.7667 27.4554 48.9668 27.232 49.1143C27.0085 49.2617 26.7539 49.3524 26.4894 49.3786C26.2249 49.4049 25.9581 49.366 25.7112 49.2652C25.4643 49.1644 25.2444 49.0046 25.0699 48.7991L24.9432 48.6281L24.8365 48.4333L22.6625 43.9292L17.776 44.2539C17.5068 44.2717 17.2374 44.2223 16.991 44.1099C16.7445 43.9976 16.5283 43.8257 16.3608 43.6089C16.1933 43.3922 16.0795 43.137 16.0292 42.8653C15.979 42.5936 15.9937 42.3135 16.0721 42.0489L16.1388 41.866L16.2222 41.6951L19.5032 35.8679C20.783 37.8441 22.4916 39.4899 24.4951 40.6763C26.4986 41.8628 28.7427 42.5561 31.0518 42.7053Z" fill="#063412"/>
<path d="M32.0076 15.3866L32.4077 15.3934C35.4319 15.4998 38.2975 16.8063 40.4001 19.0373C42.5027 21.2684 43.678 24.2495 43.6779 27.3519L43.6729 27.6818L43.6612 28.01L43.6312 28.4288L43.5879 28.8425L43.5479 29.1467C43.4382 29.8846 43.2612 30.6102 43.0194 31.3142L42.826 31.8407L42.5709 32.4355C41.6271 34.4969 40.1291 36.2395 38.253 37.4585C36.3769 38.6775 34.2005 39.3223 31.9794 39.3173C29.7583 39.3123 27.5847 38.6576 25.7138 37.4301C23.843 36.2026 22.3526 34.4533 21.4176 32.3876L21.2009 31.88L21.1142 31.6526L20.9808 31.2817L20.8224 30.7792C20.7659 30.5845 20.7142 30.3885 20.6674 30.1911L20.5674 29.7279L20.4857 29.2647L20.4523 29.0271L20.3873 28.475L20.3473 27.8511L20.3373 27.3519C20.3372 24.2495 21.5125 21.2684 23.6151 19.0373C25.7177 16.8063 28.5833 15.4998 31.6075 15.3934L32.0076 15.3866Z" fill="#063412"/>
<path d="M44.499 35.8696L47.7767 41.6916C47.9116 41.9313 47.9877 42.201 47.9986 42.4775C48.0095 42.754 47.9549 43.0291 47.8393 43.2792C47.7237 43.5293 47.5507 43.7469 47.3351 43.9134C47.1195 44.0799 46.8677 44.1903 46.6013 44.2351L46.4129 44.2539L46.2262 44.2522L41.3364 43.9274L39.164 48.4332C39.0461 48.6772 38.873 48.8888 38.6593 49.0504C38.4456 49.2121 38.1973 49.3191 37.9351 49.3625C37.6729 49.406 37.4044 49.3847 37.1519 49.3003C36.8993 49.216 36.6701 49.0711 36.4832 48.8776L36.3465 48.717L36.2264 48.5289L32.9454 42.7052C35.2551 42.5572 37.5 41.8631 39.5044 40.6772C41.5088 39.4913 43.2183 37.8458 44.499 35.8696Z" stroke="black"/>
<path d="M31.0518 42.7053L27.7741 48.5307C27.6413 48.7667 27.4554 48.9668 27.232 49.1143C27.0085 49.2617 26.7539 49.3524 26.4894 49.3786C26.2249 49.4049 25.9581 49.366 25.7112 49.2652C25.4643 49.1644 25.2444 49.0046 25.0699 48.7991L24.9432 48.6281L24.8365 48.4333L22.6625 43.9292L17.776 44.2539C17.5068 44.2717 17.2374 44.2223 16.991 44.1099C16.7445 43.9976 16.5283 43.8257 16.3608 43.6089C16.1933 43.3922 16.0795 43.137 16.0292 42.8653C15.979 42.5936 15.9937 42.3135 16.0721 42.0489L16.1388 41.866L16.2222 41.6951L19.5032 35.8679C20.783 37.8441 22.4916 39.4899 24.4951 40.6763C26.4986 41.8628 28.7427 42.5561 31.0518 42.7053Z" stroke="black"/>
<path d="M32.0076 15.3866L32.4077 15.3934C35.4319 15.4998 38.2975 16.8063 40.4001 19.0373C42.5027 21.2684 43.678 24.2495 43.6779 27.3519L43.6729 27.6818L43.6612 28.01L43.6312 28.4288L43.5879 28.8425L43.5479 29.1467C43.4382 29.8846 43.2612 30.6102 43.0194 31.3142L42.826 31.8407L42.5709 32.4355C41.6271 34.4969 40.1291 36.2395 38.253 37.4585C36.3769 38.6775 34.2005 39.3223 31.9794 39.3173C29.7583 39.3123 27.5847 38.6576 25.7138 37.4301C23.843 36.2026 22.3526 34.4533 21.4176 32.3876L21.2009 31.88L21.1142 31.6526L20.9808 31.2817L20.8224 30.7792C20.7659 30.5845 20.7142 30.3885 20.6674 30.1911L20.5674 29.7279L20.4857 29.2647L20.4523 29.0271L20.3873 28.475L20.3473 27.8511L20.3373 27.3519C20.3372 24.2495 21.5125 21.2684 23.6151 19.0373C25.7177 16.8063 28.5833 15.4998 31.6075 15.3934L32.0076 15.3866Z" stroke="black"/>
</svg>
