<svg width="24" height="19" viewBox="0 0 24 19" fill="none" xmlns="http://www.w3.org/2000/svg">
<path d="M0 12.4688C0 15.4189 2.41875 17.8125 5.4 17.8125H19.2C21.8513 17.8125 24 15.6861 24 13.0625C24 10.7654 22.35 8.84688 20.16 8.40898C20.3137 8.01191 20.4 7.57773 20.4 7.125C20.4 5.1582 18.7875 3.5625 16.8 3.5625C16.0613 3.5625 15.3713 3.78516 14.8013 4.16367C13.7625 2.38242 11.8238 1.1875 9.6 1.1875C6.285 1.1875 3.6 3.84453 3.6 7.125C3.6 7.2252 3.60375 7.32539 3.6075 7.42559C1.5075 8.15664 0 10.1383 0 12.4688Z" fill="#063412"/>
</svg>
