<svg width="49" height="48" viewBox="0 0 49 48" fill="none" xmlns="http://www.w3.org/2000/svg">
<g clip-path="url(#clip0_109_1917)">
<path d="M48.3359 3C48.3359 13.65 40.4047 22.4531 30.1297 23.8125C29.4641 18.8062 27.2609 14.2875 24.0078 10.7531C27.5984 4.34062 34.4609 0 42.3359 0H45.3359C46.9953 0 48.3359 1.34062 48.3359 3ZM0.335938 9C0.335938 7.34062 1.67656 6 3.33594 6H6.33594C17.9328 6 27.3359 15.4031 27.3359 27V30V45C27.3359 46.6594 25.9953 48 24.3359 48C22.6766 48 21.3359 46.6594 21.3359 45V30C9.73906 30 0.335938 20.5969 0.335938 9Z" fill="#063412"/>
</g>
<defs>
<clipPath id="clip0_109_1917">
<rect width="48" height="48" fill="white" transform="translate(0.335938)"/>
</clipPath>
</defs>
</svg>
