<svg width="25" height="24" viewBox="0 0 25 24" fill="none" xmlns="http://www.w3.org/2000/svg">
<path d="M23.8489 0.260238C24.3224 0.588363 24.5708 1.15555 24.4817 1.72274L21.4817 21.2227C21.4114 21.6774 21.1349 22.0759 20.7317 22.3009C20.3286 22.5259 19.8458 22.554 19.4192 22.3759L13.813 20.0462L10.6021 23.5196C10.1849 23.9743 9.52861 24.1243 8.95205 23.8993C8.37549 23.6743 8.00049 23.1165 8.00049 22.4977V18.579C8.00049 18.3915 8.0708 18.2134 8.19736 18.0727L16.0536 9.50399C16.3255 9.20868 16.3161 8.75399 16.0349 8.47274C15.7536 8.19149 15.2989 8.17274 15.0036 8.43993L5.46924 16.9102L1.33018 14.8384C0.833301 14.5899 0.514551 14.0931 0.500488 13.5399C0.486426 12.9868 0.777051 12.4712 1.25518 12.1946L22.2552 0.194613C22.7567 -0.0913247 23.3755 -0.0631997 23.8489 0.260238Z" fill="#053C14"/>
</svg>
