<svg width="53" height="46" viewBox="0 0 53 46" fill="none" xmlns="http://www.w3.org/2000/svg">
<path d="M15.1325 11.7111C12.4783 9.03379 12.4783 4.68535 15.1325 2.00801C17.7866 -0.669336 22.0838 -0.669336 24.738 2.00801L26.3359 3.6252L27.9338 2.00801C30.588 -0.669336 34.8852 -0.669336 37.5394 2.00801C40.1936 4.68535 40.1936 9.03379 37.5394 11.7111L28.3672 20.983C27.8075 21.549 27.0762 21.8275 26.3359 21.8275C25.5957 21.8275 24.8644 21.549 24.3047 20.983L15.1325 11.7111ZM51.6318 29.626C52.8144 31.2252 52.4713 33.4713 50.8644 34.6483L39.4352 43.0307C37.3227 44.576 34.7769 45.4115 32.1498 45.4115H17.6693H3.22483C1.62691 45.4115 0.335938 44.1268 0.335938 42.5365V36.7865C0.335938 35.1963 1.62691 33.9115 3.22483 33.9115H6.54705L10.6005 30.6772C12.6498 29.042 15.1957 28.1615 17.8227 28.1615H24.8915H26.3359H32.1137C33.7116 28.1615 35.0026 29.4463 35.0026 31.0365C35.0026 32.6268 33.7116 33.9115 32.1137 33.9115H26.3359H24.8915C24.097 33.9115 23.447 34.5584 23.447 35.349C23.447 36.1397 24.097 36.7865 24.8915 36.7865H35.779L46.5852 28.8623C48.1922 27.6854 50.4491 28.0268 51.6318 29.626ZM17.8137 33.9115H17.7325C17.7595 33.9115 17.7866 33.9115 17.8137 33.9115Z" fill="#063412"/>
</svg>
