<svg width="46" height="41" viewBox="0 0 46 41" fill="none" xmlns="http://www.w3.org/2000/svg">
<path d="M45.9 0C45.9 0 45.9 10.6275 42.1775 14.17C38.4546 17.7129 31.0119 20.0764 28.5295 18.3022C26.0471 16.5279 24.1882 11.806 27.289 8.26353C30.3912 4.72104 35.9749 3.54035 39.6979 2.94851C42.0314 2.5307 44.1843 1.50717 45.9 0ZM0 7.67855C0 7.67855 6.82377 4.13605 11.7868 4.72532C16.7488 5.3146 20.4718 7.67812 21.7118 11.8103C22.9523 15.9425 20.3065 18.3695 17.3705 19.4871C14.2692 20.6683 10.5467 19.4871 8.06429 14.7635C5.58091 10.0404 0 7.67855 0 7.67855Z" fill="#28C07F"/>
<path d="M24.3289 39.593C24.3289 39.593 23.0888 41.9548 19.9852 39.593C19.9852 39.593 21.2276 31.3294 21.2276 28.9655C21.564 26.7859 21.3515 24.5648 20.6064 22.4719C19.3668 19.5178 13.7826 14.7951 12.5426 13.6135C11.302 12.4328 8.81961 10.6625 10.0601 10.6625C11.3002 10.6625 14.4038 11.841 17.4957 14.7947C20.5872 17.7474 23.0795 20.7011 23.0795 20.7011C23.0795 20.7011 26.1807 14.7947 28.0368 13.0264C29.8939 11.2586 34.8611 5.94142 36.7223 7.11996C38.5836 8.29851 33.621 10.6625 32.3782 11.8436C31.1362 13.0243 25.5549 20.699 24.943 23.0608C24.3312 25.4221 24.3289 39.593 24.3289 39.593Z" fill="#0F9B7B"/>
</svg>
