<svg width="39" height="39" viewBox="0 0 39 39" fill="none" xmlns="http://www.w3.org/2000/svg">
<path d="M0.631747 38.0768C-0.222745 37.2467 -0.198331 35.8307 0.631747 35.0006L16.2567 19.3512L0.631747 3.72623C-0.198331 2.89615 -0.198331 1.50455 0.631747 0.650057C1.46183 -0.22885 2.90225 -0.204436 3.73233 0.650057L19.3573 16.2751L34.9823 0.650057C35.8124 -0.204436 37.2284 -0.204436 38.0829 0.650057C38.9374 1.48013 38.913 2.89615 38.0829 3.72623L22.4579 19.3512L38.0829 35.0006C38.913 35.8307 38.913 37.2223 38.0829 38.0768C37.2528 38.9313 35.8124 38.9069 34.9823 38.0768L19.3573 22.4518L3.73233 38.0768C2.90225 38.9069 1.48624 38.9069 0.631747 38.0768Z" fill="#21252B"/>
</svg>
