<svg width="532" height="356" viewBox="0 0 532 356" fill="none" xmlns="http://www.w3.org/2000/svg">
<g clip-path="url(#clip0_109_937)">
<path d="M531.991 0.954468H0V355.046H531.991V0.954468Z" fill="white"/>
<path d="M310.623 231.724C310.623 231.724 323.589 231.228 329.843 225.023C329.843 225.023 317.63 226.392 311.761 212.155C305.892 197.919 310.621 231.726 310.621 231.726L310.623 231.724Z" fill="#81DC87"/>
<path d="M223.742 268.179C223.842 270.994 307.155 272.533 305.676 264.582C305.695 264.057 303.621 255.153 303.621 255.153L225.119 257.664L223.742 268.177V268.179Z" fill="#222430"/>
<path d="M330.776 225.338C324.537 225.338 320.298 223.042 317.734 220.955C314.531 218.346 313.216 215.569 313.163 215.452C313.088 215.292 313.158 215.103 313.318 215.028C313.478 214.954 313.667 215.024 313.741 215.183C313.754 215.211 315.061 217.965 318.161 220.48C321.017 222.797 326.026 225.381 333.685 224.538C333.859 224.519 334.017 224.645 334.038 224.821C334.057 224.996 333.932 225.153 333.755 225.174C332.717 225.289 331.723 225.342 330.778 225.342L330.776 225.338Z" fill="#222430"/>
<path d="M186.295 259.682C182.613 259.682 179.559 258.677 177.176 256.675C174.007 254.013 172.654 250.057 172.075 247.205C171.452 244.13 171.569 241.717 171.575 241.615C171.584 241.439 171.733 241.302 171.911 241.313C172.088 241.322 172.222 241.473 172.214 241.649C172.209 241.745 171.784 251.315 177.591 256.188C180.981 259.033 185.831 259.756 192.006 258.337C192.178 258.297 192.349 258.405 192.389 258.577C192.43 258.75 192.321 258.92 192.149 258.96C190.05 259.443 188.099 259.684 186.297 259.684L186.295 259.682Z" fill="#222430"/>
<path d="M452.191 79.5305H349.656V178.001H452.191V79.5305Z" fill="#ECE9F1"/>
<path d="M442.232 170.072H359.617V87.4572H442.232V170.072ZM360.681 169.008H441.168V88.5212H360.681V169.008Z" fill="white"/>
<path d="M468.538 106.495C482.596 92.4369 482.596 69.6434 468.538 55.5849C454.479 41.5263 431.686 41.5263 417.627 55.5849C403.569 69.6435 403.569 92.4369 417.627 106.495C431.686 120.554 454.479 120.554 468.538 106.495Z" fill="white"/>
<path d="M349.088 208.995C346.882 213.283 341.351 219.661 328.577 216.418C325.487 215.632 322.763 213.8 320.835 211.262L313.862 202.069L313.453 193.329L347.433 192.048C348.471 195.785 349.344 199.462 349.982 202.999C350.35 205.041 350.04 207.15 349.088 208.995Z" fill="#222430"/>
<path d="M311.756 307.993C311.499 307.993 311.271 307.806 311.23 307.542L303.178 255.187C303.133 254.898 303.333 254.626 303.623 254.581C303.914 254.534 304.185 254.736 304.229 255.026L312.282 307.381C312.326 307.67 312.126 307.942 311.837 307.987C311.809 307.991 311.782 307.993 311.756 307.993Z" fill="#54BFB3"/>
<path d="M285.55 318.848C285.292 318.848 285.064 318.661 285.024 318.397L283.334 307.406C283.29 307.117 283.49 306.844 283.779 306.8C284.071 306.753 284.341 306.955 284.386 307.244L286.075 318.236C286.12 318.525 285.92 318.797 285.63 318.842C285.603 318.846 285.575 318.848 285.55 318.848Z" fill="#54BFB3"/>
<path d="M214.595 338.632C214.571 338.632 214.548 338.632 214.525 338.628C214.233 338.59 214.029 338.324 214.067 338.032L224.599 257.598C224.637 257.307 224.905 257.1 225.194 257.141C225.486 257.179 225.69 257.445 225.652 257.737L215.12 338.171C215.084 338.439 214.857 338.634 214.593 338.634L214.595 338.632Z" fill="#54BFB3"/>
<path d="M323.942 126.167C323.942 126.167 346.2 166.552 351.644 196.661C352.014 198.704 351.701 200.813 350.752 202.658C348.545 206.946 343.015 213.321 330.24 210.081C327.151 209.295 324.427 207.463 322.501 204.924L315.525 195.734L310.546 130.587L302.868 120.284C301.925 119.017 301.361 117.509 301.246 115.936L300.719 108.763L310.099 96.4544L301.689 82.5522C303.581 80.9158 306.46 81.2137 307.975 83.2034L320.218 99.2846C320.443 99.5825 320.645 99.8975 320.822 100.225L323.986 106.135C325.048 108.118 325.497 110.374 325.278 112.612L323.944 126.165L323.942 126.167Z" fill="#FDC0AE"/>
<path d="M202.237 71.442H75.5234V202.075H202.237V71.442Z" fill="#ECE9F1"/>
<path d="M300.115 71.7676L316.128 100.197C316.909 101.583 316.603 103.23 315.445 103.883L303.207 110.776C302.049 111.427 300.483 110.833 299.702 109.45L283.689 81.0201C282.91 79.6369 283.215 77.9877 284.372 77.3344L296.61 70.4418C297.768 69.7907 299.336 70.3865 300.115 71.7676Z" fill="#222430"/>
<path d="M298.678 72.5485L314.691 100.978C315.472 102.364 315.165 104.011 314.008 104.664L301.77 111.557C300.612 112.208 299.046 111.614 298.265 110.231L282.252 81.801C281.473 80.4178 281.777 78.7686 282.935 78.1153L295.173 71.2228C296.33 70.5716 297.899 71.1674 298.678 72.5485Z" fill="white"/>
<path d="M313.192 98.3121L315.068 101.647C315.641 102.662 315.166 104.011 314.009 104.662L301.771 111.555C300.613 112.206 299.215 111.912 298.643 110.897L296.766 107.562L313.192 98.31V98.3121Z" fill="#222430"/>
<path d="M298.459 72.1656L300.381 75.5789L283.955 84.8314L282.033 81.4181C281.45 80.3818 281.912 79.0135 283.07 78.3623L295.308 71.4697C296.465 70.8186 297.874 71.1314 298.457 72.1677L298.459 72.1656Z" fill="#222430"/>
<path d="M424.518 130.483H377.328V183.783H424.518V130.483Z" fill="#222430"/>
<path d="M424.518 133.869H377.328V187.168H424.518V133.869Z" fill="#1D6367"/>
<path d="M188.665 188.083H89.0625V85.4314H188.665V188.083ZM90.1244 187.019H187.599V86.4954H90.1244V187.019Z" fill="white"/>
<path d="M239.362 122.103C239.362 122.103 210.342 132.611 198.477 141.781C198.477 141.781 192.169 146.356 190.727 152.45C189.284 158.545 176.488 217.675 178.874 226.73C181.261 235.787 224.947 259.441 224.947 259.441C252.034 260.901 278.708 260.169 304.919 257.005C304.919 257.005 341.62 163.263 296.192 125.561L239.36 122.103H239.362Z" fill="#81DC87"/>
<path d="M256.065 111.04L234.383 122.103L253.539 130.941L255.873 148.162L264.324 145.477L289.336 160.875L255.873 124.923L256.065 111.04Z" fill="white"/>
<path d="M305.155 171.724L303.699 169.928C303.214 169.544 302.616 169.336 301.999 169.336L246.956 169.304C246.386 169.304 245.907 169.736 245.852 170.304L237.789 251.01L294.789 251.044L302.757 171.298L305.155 171.726V171.724Z" fill="#222430"/>
<path d="M295.033 253.021L243.712 252.991C241.882 252.991 240.452 251.408 240.633 249.587L248.338 172.468C248.406 171.796 248.972 171.283 249.649 171.283L304.351 171.315C304.943 171.315 305.407 171.828 305.347 172.417L297.518 250.774C297.39 252.051 296.316 253.023 295.033 253.021Z" fill="white"/>
<path d="M287.648 118.345L298.114 125.561L290.883 132.266L296.197 140.108L289.338 160.875L287.648 118.345Z" fill="white"/>
<path d="M229.236 222.042L226.785 224.102L189.336 255.59C189.336 255.59 184.623 256.598 180.663 254.747C178.901 253.923 177.29 252.536 176.305 250.244C173.108 242.796 173.283 233.38 173.283 233.38C173.283 233.38 189.039 202.086 229.236 222.042Z" fill="white"/>
<path d="M281.371 208.97C280.06 214.345 276.024 218.667 272.355 218.622C268.686 218.578 266.775 214.185 268.084 208.808C269.395 203.433 273.432 199.111 277.1 199.155C280.769 199.2 282.68 203.592 281.371 208.97Z" fill="#54BFB3"/>
<path d="M226.792 224.102L191.827 255.764C191.827 255.764 192.217 258.624 192.079 258.65C189.219 259.152 186.173 257.803 183.899 256.171C182.673 255.29 181.549 254.23 180.685 252.985C178.806 250.28 178.379 246.693 178.383 243.479C178.389 240.123 179.317 236.789 181.171 233.98C181.717 233.15 182.339 232.369 183.022 231.648C189.808 224.476 203.71 215.42 226.79 224.104L226.792 224.102Z" fill="#222430"/>
<path d="M209.525 224.402C209.525 224.402 248.697 216.988 267.308 217.624L284.234 202.673C285.36 201.679 286.909 201.317 288.356 201.709L288.95 201.871C289.541 202.03 290.003 202.496 290.158 203.09C290.358 203.856 290.252 204.669 289.86 205.356L286.034 212.108L305.278 202.896L306.208 204.088C307.323 205.518 307.859 207.314 307.708 209.121L307.491 211.732L307.57 212.187C307.912 214.158 307.514 216.184 306.448 217.875L305.163 219.916V222.295C305.163 223.646 304.637 224.944 303.699 225.915L302.094 227.575L301.618 230.394C301.469 231.277 300.951 232.054 300.198 232.535C298.374 233.695 296.317 234.431 294.172 234.686C289.741 235.212 281.757 235.916 275.418 235.127C275.418 235.127 232.134 261.699 196.861 260.248C195.144 260.178 193.477 259.631 192.069 258.645C188.138 255.896 182.11 248.955 190.322 234.844C190.322 234.844 196.799 225.204 209.52 224.398L209.525 224.402Z" fill="#FDC0AE"/>
<path d="M293.109 77.5557L299.161 91.826C299.416 92.4282 299.265 93.1262 298.782 93.5688L294.928 97.0971L287.057 108.571L275.725 111.861C275.725 111.861 264.07 104.681 264.17 104.507C264.27 104.332 260.719 91.211 260.719 91.211L268.209 79.9923L293.109 77.5557Z" fill="#FDC0AE"/>
<path d="M249.976 64.5303C249.976 64.5303 245.877 64.3685 243.86 68.3883C241.843 72.4102 250.225 92.8857 250.35 98.1078C250.476 103.328 252.553 104.664 256.634 104.494C260.716 104.324 257.801 77.5557 257.801 77.5557L255.873 66.8668L249.978 64.5303H249.976Z" fill="#222430"/>
<path d="M255.874 90.4088L254.416 120.875C254.301 123.282 255.187 125.629 256.863 127.359L289.334 160.875L288.46 113.238L255.872 90.4088H255.874Z" fill="#FDC0AE"/>
<path d="M278.456 93.6944C288.874 93.6944 297.319 85.2493 297.319 74.8319C297.319 64.4144 288.874 55.9694 278.456 55.9694C268.039 55.9694 259.594 64.4144 259.594 74.8319C259.594 85.2493 268.039 93.6944 278.456 93.6944Z" fill="#FDC0AE"/>
<path d="M260.111 104.509L252.102 69.6268L259.588 68.8118C259.588 68.8118 264.925 72.1123 264.423 80.254C264.289 82.4479 264.35 84.6483 264.538 86.8401L265.478 97.9418C265.61 99.4931 266.634 100.823 268.1 101.349L279.751 105.515C280.706 105.858 281.768 105.434 282.228 104.53L284.217 100.612C285.009 99.0548 286.541 98.012 288.28 97.8482L295.559 96.5182L296.189 104.451C296.189 106.567 295.67 108.65 294.676 110.516C292.814 114.017 289.32 116.36 285.373 116.721C280.778 117.143 274.265 116.749 267.157 113.244C267.157 113.244 262.576 112.074 260.111 104.513V104.509Z" fill="#222430"/>
<path d="M260.594 84.8291C260.603 83.763 260.203 82.7352 259.471 81.9606C258.122 80.5285 255.711 78.5218 252.998 78.809C248.837 79.2517 250.767 87.8594 250.767 87.8594L251.397 90.1363C251.972 92.2111 253.915 93.6071 256.066 93.4858L259.905 93.2687C260.254 93.2496 260.526 92.9623 260.528 92.6133L260.594 84.8291Z" fill="#FDC0AE"/>
<path d="M415.808 247.305H389.195V260.773H415.808V247.305Z" fill="#81DC87"/>
<path d="M423.329 231.724H370.602V245.192H423.329V231.724Z" fill="#477D4B"/>
<path d="M427.823 241.76H374.031V227.228H427.823V241.76ZM375.097 240.696H426.761V228.292H375.097V240.696Z" fill="white"/>
<path d="M455.48 260.784H448.206C448.002 260.784 447.836 260.593 447.836 260.358C447.836 260.124 448.002 259.933 448.206 259.933H455.48C455.684 259.933 455.85 260.124 455.85 260.358C455.85 260.593 455.684 260.784 455.48 260.784Z" fill="#81DC87"/>
<path d="M443.011 260.784H398.659C398.455 260.784 398.289 260.593 398.289 260.358C398.289 260.124 398.455 259.933 398.659 259.933H443.011C443.215 259.933 443.381 260.124 443.381 260.358C443.381 260.593 443.215 260.784 443.011 260.784Z" fill="#81DC87"/>
<path d="M482.245 177.986H474.972C474.768 177.986 474.602 177.795 474.602 177.561C474.602 177.326 474.768 177.135 474.972 177.135H482.245C482.45 177.135 482.616 177.326 482.616 177.561C482.616 177.795 482.45 177.986 482.245 177.986Z" fill="#ECE9F1"/>
<path d="M469.784 177.986H425.433C425.228 177.986 425.062 177.795 425.062 177.561C425.062 177.326 425.228 177.135 425.433 177.135H469.784C469.989 177.135 470.155 177.326 470.155 177.561C470.155 177.795 469.989 177.986 469.784 177.986Z" fill="#ECE9F1"/>
<path d="M80.05 202.075H72.7765C72.5722 202.075 72.4062 201.884 72.4062 201.649C72.4062 201.415 72.5722 201.224 72.7765 201.224H80.05C80.2543 201.224 80.4203 201.415 80.4203 201.649C80.4203 201.884 80.2543 202.075 80.05 202.075Z" fill="#ECE9F1"/>
<path d="M67.7141 202.075H38.9905C38.8585 202.075 38.75 201.884 38.75 201.649C38.75 201.415 38.8585 201.224 38.9905 201.224H67.7141C67.846 201.224 67.9545 201.415 67.9545 201.649C67.9545 201.884 67.846 202.075 67.7141 202.075Z" fill="#ECE9F1"/>
<path d="M101.695 249.367H132.242V235.899H101.695V249.367Z" fill="#81DC87"/>
<path d="M88.7695 233.786H153.586V220.318H88.7695V233.786Z" fill="#477D4B"/>
<path d="M80.6879 249.378H85.9185C86.0653 249.378 86.1845 249.187 86.1845 248.953C86.1845 248.718 86.0653 248.527 85.9185 248.527H80.6879C80.541 248.527 80.4219 248.718 80.4219 248.953C80.4219 249.187 80.541 249.378 80.6879 249.378Z" fill="#81DC87"/>
<path d="M89.641 249.378H121.529C121.676 249.378 121.795 249.187 121.795 248.953C121.795 248.718 121.676 248.527 121.529 248.527H89.641C89.4942 248.527 89.375 248.718 89.375 248.953C89.375 249.187 89.4942 249.378 89.641 249.378Z" fill="#81DC87"/>
<path d="M443.085 106.03C429.304 106.03 418.094 94.8201 418.094 81.0392C418.094 67.2583 429.304 56.0481 443.085 56.0481C456.866 56.0481 468.076 67.2583 468.076 81.0392C468.076 94.8201 456.866 106.03 443.085 106.03Z" fill="white"/>
<path d="M443.084 59.1975C455.128 59.1975 464.928 68.9969 464.928 81.0414C464.928 93.0858 455.128 102.885 443.084 102.885C431.039 102.885 421.24 93.0858 421.24 81.0414C421.24 68.9969 431.039 59.1975 443.084 59.1975ZM443.084 52.9008C427.543 52.9008 414.945 65.4985 414.945 81.0392C414.945 96.5799 427.543 109.178 443.084 109.178C458.624 109.178 471.222 96.5799 471.222 81.0392C471.222 65.4985 458.624 52.9008 443.084 52.9008Z" fill="#477D4B"/>
<path d="M443.072 118.088C422.643 118.088 406.023 101.468 406.023 81.0393C406.023 60.6106 422.643 43.991 443.072 43.991C463.5 43.991 480.12 60.6106 480.12 81.0393C480.12 101.468 463.5 118.088 443.072 118.088ZM443.072 45.0422C423.222 45.0422 407.073 61.1915 407.073 81.0414C407.073 100.891 423.222 117.041 443.072 117.041C462.922 117.041 479.071 100.891 479.071 81.0414C479.071 61.1915 462.922 45.0422 443.072 45.0422Z" fill="#222430"/>
<path d="M443.081 82.5523C443.916 82.5523 444.592 81.8758 444.592 81.0414C444.592 80.207 443.916 79.5305 443.081 79.5305C442.247 79.5305 441.57 80.207 441.57 81.0414C441.57 81.8758 442.247 82.5523 443.081 82.5523Z" fill="#222430"/>
<path d="M442.573 82.1096L442.062 54.3458L443.112 54.3266L443.582 79.971L456.028 70.1056L456.68 70.9292L442.573 82.1096Z" fill="#222430"/>
<path d="M248.123 67.852C248.123 67.852 243.882 50.9452 259.595 49.8024C275.308 48.6597 278.434 54.0201 291.972 50.8941C305.51 47.7681 300.712 58.3335 300.712 58.3335C300.712 58.3335 291.785 76.3768 262.423 71.891L248.125 67.852H248.123Z" fill="#222430"/>
<path d="M173.274 66.2752H104.453V144.009H173.274V66.2752Z" fill="#222430"/>
<path d="M173.274 62.4789H104.453V140.212H173.274V62.4789Z" fill="#1D6367"/>
<path d="M305.283 202.896L302.527 200.647L302.102 204.897L305.283 202.896Z" fill="#FDC0AE"/>
<path d="M263.482 217.067L272.12 237.393L267.402 240.017L257.352 217.571L263.482 217.067Z" fill="#222430"/>
<path d="M265.246 232.439C262.637 232.439 260.516 230.318 260.516 227.709C260.516 225.1 262.637 222.978 265.246 222.978C267.855 222.978 269.977 225.1 269.977 227.709C269.977 230.318 267.855 232.439 265.246 232.439Z" fill="white"/>
<path d="M265.243 223.936C267.324 223.936 269.016 225.627 269.016 227.709C269.016 229.79 267.324 231.482 265.243 231.482C263.162 231.482 261.47 229.79 261.47 227.709C261.47 225.627 263.162 223.936 265.243 223.936ZM265.243 222.021C262.102 222.021 259.555 224.568 259.555 227.709C259.555 230.85 262.102 233.397 265.243 233.397C268.384 233.397 270.931 230.85 270.931 227.709C270.931 224.568 268.384 222.021 265.243 222.021Z" fill="#222430"/>
<path d="M160.015 140.212H117.719C117.719 128.532 127.188 119.064 138.867 119.064C150.545 119.064 160.015 128.532 160.015 140.212Z" fill="white"/>
<path d="M138.867 83.6269C150.546 83.6269 160.015 74.1586 160.015 62.479C160.015 50.7993 150.546 41.331 138.867 41.331C127.187 41.331 117.719 50.7993 117.719 62.479C117.719 74.1586 127.187 83.6269 138.867 83.6269Z" fill="white"/>
<path d="M400.928 201.19C408.909 201.19 415.379 194.72 415.379 186.739C415.379 178.757 408.909 172.287 400.928 172.287C392.947 172.287 386.477 178.757 386.477 186.739C386.477 194.72 392.947 201.19 400.928 201.19Z" fill="white"/>
<path d="M278.906 313.354C278.786 313.354 278.665 313.314 278.567 313.231C278.342 313.043 278.31 312.707 278.497 312.482L287.628 301.463C288.467 300.45 288.903 299.169 288.852 297.854L288.224 281.302C288.213 281.009 288.441 280.762 288.735 280.751C289.026 280.74 289.275 280.968 289.286 281.262L289.914 297.813C289.973 299.39 289.452 300.927 288.445 302.142L279.314 313.16C279.21 313.288 279.057 313.354 278.904 313.354H278.906Z" fill="#54BFB3"/>
<path d="M237.796 301.395C237.689 301.395 237.581 301.363 237.487 301.297C237.247 301.127 237.191 300.795 237.362 300.554L240.173 296.596L232.059 301.322C231.837 301.452 231.556 301.405 231.388 301.212C231.22 301.018 231.214 300.733 231.373 300.533L250.549 276.321C250.732 276.091 251.066 276.052 251.296 276.233C251.525 276.416 251.564 276.75 251.383 276.98L233.955 298.986L241.762 294.438C241.979 294.313 242.254 294.353 242.422 294.538C242.59 294.723 242.607 295 242.462 295.204L238.226 301.169C238.121 301.316 237.957 301.393 237.791 301.393L237.796 301.395Z" fill="#54BFB3"/>
<path d="M233.102 258.786L234.772 270.339L237.655 270.69L238.462 258.475L233.102 258.786Z" fill="#81DC87"/>
<path d="M253.414 259.797L254.363 271.322L257.217 271.641L259.713 258.682L253.414 259.797Z" fill="#81DC87"/>
<path d="M278.009 258.314L277.477 272.218L294.422 270.905L295.071 257.005L278.009 258.314Z" fill="#CECECE"/>
<path d="M276.267 265.64C275.994 265.64 275.762 265.434 275.737 265.157C275.709 264.864 275.924 264.606 276.218 264.578L287.617 263.529C287.909 263.499 288.168 263.717 288.196 264.01C288.224 264.304 288.009 264.561 287.715 264.589L276.316 265.638C276.299 265.638 276.282 265.64 276.267 265.64Z" fill="#222430"/>
<path d="M259.717 71.8506C265.956 74.4106 272.823 75.1511 279.46 73.9233C282.771 73.3104 285.987 72.2124 288.989 70.693C291.922 69.2076 294.831 67.3669 296.978 64.841C299.176 62.2555 300.51 59.121 300.912 55.7587C300.961 55.3523 300.323 55.3544 300.274 55.7587C299.9 58.8869 298.648 61.8491 296.627 64.2707C294.609 66.6881 291.903 68.4501 289.136 69.9014C283.401 72.9103 276.864 74.2744 270.406 73.7743C266.786 73.4934 263.245 72.6145 259.889 71.2356C259.51 71.0803 259.344 71.6974 259.719 71.8506H259.717Z" fill="#222430"/>
<path d="M249.211 65.0921C245.83 63.328 242.161 62.3065 238.354 62.0703C237.943 62.0448 237.946 62.6832 238.354 62.7087C242.046 62.9385 245.608 63.9323 248.888 65.6432C249.252 65.8326 249.575 65.2815 249.209 65.0921H249.211Z" fill="white"/>
<path d="M295.23 97.1779C295.145 97.1779 295.06 97.1438 294.996 97.0757C294.877 96.9459 294.884 96.7438 295.013 96.6246L297.848 93.988C299.331 92.8942 298.895 92.0133 298.876 91.9771L298.859 91.9409L293.592 78.3047C293.528 78.1409 293.611 77.9558 293.775 77.8919C293.939 77.8281 294.124 77.9111 294.188 78.0749L299.45 91.6962C299.548 91.8983 300.059 93.1453 298.244 94.4924L295.452 97.0928C295.39 97.1502 295.311 97.1779 295.235 97.1779H295.23Z" fill="#222430"/>
<path d="M289.506 106.203C289.491 106.203 289.476 106.203 289.461 106.201C286.946 105.85 286.014 103.924 285.975 103.841C285.901 103.681 285.969 103.492 286.129 103.415C286.288 103.341 286.478 103.409 286.552 103.566C286.586 103.636 287.386 105.262 289.548 105.566C289.723 105.59 289.844 105.752 289.821 105.926C289.799 106.086 289.661 106.201 289.506 106.201V106.203Z" fill="white"/>
<path d="M301.234 115.934L300.653 103.417C300.611 102.504 300.843 101.6 301.322 100.821C301.726 100.161 302.49 99.8167 303.252 99.9507C303.999 100.081 304.597 100.649 304.765 101.389L306.156 107.654L311.449 113.24L301.239 115.936L301.234 115.934Z" fill="#FDC0AE"/>
<path d="M283.491 216.147C283.434 216.147 283.376 216.132 283.325 216.101C283.174 216.009 283.127 215.813 283.219 215.662L289.59 205.205C289.649 205.073 290.115 203.973 289.781 203.088C289.622 202.671 289.313 202.367 288.834 202.162C288.673 202.092 288.598 201.905 288.666 201.743C288.736 201.581 288.924 201.507 289.085 201.575C289.724 201.849 290.158 202.284 290.377 202.864C290.828 204.058 290.186 205.433 290.16 205.49L290.145 205.52L283.763 215.992C283.704 216.09 283.597 216.145 283.491 216.145V216.147Z" fill="#222430"/>
<path d="M301.47 257.005L301.164 268.107L305.143 266.457L304.02 257.005H301.47Z" fill="#81DC87"/>
<path d="M221.119 95.6798H213.156V98.3675H221.119V95.6798Z" fill="#81DC87"/>
<path d="M221.122 101.013H209.203V103.7H221.122V101.013Z" fill="#477D4B"/>
<path d="M340.51 60.1977H332.547V62.8853H340.51V60.1977Z" fill="#81DC87"/>
<path d="M345.811 65.5305H332.547V68.2181H345.811V65.5305Z" fill="#54BFB3"/>
<path d="M304.969 213.283C304.839 213.283 304.717 213.202 304.669 213.075C304.607 212.909 304.692 212.726 304.858 212.664C305.009 212.606 308.463 211.259 307.256 207.035C307.207 206.865 307.305 206.688 307.475 206.642C307.643 206.593 307.822 206.691 307.869 206.861C308.967 210.706 306.524 212.73 305.077 213.262C305.041 213.275 305.003 213.281 304.966 213.281L304.969 213.283Z" fill="#222430"/>
<path d="M303.412 220.361C303.246 220.361 303.105 220.233 303.095 220.065C303.082 219.888 303.214 219.737 303.39 219.725C303.495 219.716 305.893 219.51 306.863 217.184C306.931 217.022 307.119 216.945 307.28 217.011C307.442 217.079 307.521 217.267 307.453 217.428C306.327 220.127 303.554 220.352 303.437 220.361C303.429 220.361 303.422 220.361 303.414 220.361H303.412Z" fill="#222430"/>
<path d="M300.701 228.077C300.535 228.077 300.394 227.949 300.384 227.781C300.371 227.605 300.503 227.453 300.679 227.441C300.784 227.432 303.182 227.226 304.152 224.9C304.22 224.738 304.408 224.662 304.569 224.728C304.731 224.796 304.81 224.983 304.742 225.145C303.616 227.843 300.843 228.068 300.726 228.077C300.718 228.077 300.711 228.077 300.703 228.077H300.701Z" fill="#222430"/>
<path d="M313.544 119.154C313.369 119.154 313.227 119.013 313.225 118.839C313.122 110.186 305.438 107.86 305.113 107.767C304.942 107.718 304.847 107.541 304.896 107.371C304.945 107.201 305.121 107.103 305.291 107.152C305.377 107.175 313.759 109.695 313.865 118.83C313.865 119.007 313.727 119.152 313.55 119.154H313.546H313.544Z" fill="#222430"/>
<path d="M229.961 195.58C229.938 195.58 229.914 195.578 229.889 195.572C229.716 195.534 229.61 195.361 229.648 195.189C233.013 180.487 230.108 169.823 227.078 163.467C223.803 156.593 219.696 153.157 219.655 153.123C219.519 153.01 219.5 152.81 219.613 152.674C219.725 152.537 219.925 152.518 220.062 152.631C220.234 152.774 224.318 156.193 227.654 163.192C230.727 169.64 233.676 180.448 230.272 195.331C230.238 195.478 230.106 195.578 229.961 195.578V195.58Z" fill="white"/>
<path d="M380.029 278.857H365.269C365.035 278.857 364.844 278.666 364.844 278.432V265.761C364.844 265.527 365.035 265.336 365.269 265.336H380.942C381.176 265.336 381.368 265.527 381.368 265.761C381.368 265.996 381.176 266.187 380.942 266.187H365.695V278.006H380.029C380.263 278.006 380.455 278.197 380.455 278.432C380.455 278.666 380.263 278.857 380.029 278.857Z" fill="#ECE9F1"/>
<path d="M391.624 273.467C391.39 273.467 391.198 273.275 391.198 273.041V266.189H386.144C385.91 266.189 385.719 265.998 385.719 265.764C385.719 265.53 385.91 265.338 386.144 265.338H391.624C391.858 265.338 392.05 265.53 392.05 265.764V273.041C392.05 273.275 391.858 273.467 391.624 273.467Z" fill="#ECE9F1"/>
<path d="M425.991 278.915H418.066C417.832 278.915 417.641 278.723 417.641 278.489C417.641 278.255 417.832 278.063 418.066 278.063H425.565V271.72C425.565 271.486 425.757 271.294 425.991 271.294C426.225 271.294 426.416 271.486 426.416 271.72V278.489C426.416 278.723 426.225 278.915 425.991 278.915Z" fill="#ECE9F1"/>
<path d="M412.681 278.915H394.762C394.527 278.915 394.336 278.723 394.336 278.489V265.819C394.336 265.585 394.527 265.393 394.762 265.393H422.604C422.838 265.393 423.03 265.585 423.03 265.819C423.03 266.053 422.838 266.245 422.604 266.245H395.187V278.063H412.681C412.915 278.063 413.107 278.255 413.107 278.489C413.107 278.723 412.915 278.915 412.681 278.915Z" fill="#ECE9F1"/>
<path d="M114.664 268.968H112.097C111.863 268.968 111.672 268.777 111.672 268.543V255.873C111.672 255.639 111.863 255.447 112.097 255.447H126.657C126.891 255.447 127.083 255.639 127.083 255.873C127.083 256.107 126.891 256.298 126.657 256.298H112.523V268.117H114.664C114.898 268.117 115.089 268.309 115.089 268.543C115.089 268.777 114.898 268.968 114.664 268.968Z" fill="#ECE9F1"/>
<path d="M135.045 268.968H118.168C117.934 268.968 117.742 268.777 117.742 268.543C117.742 268.309 117.934 268.117 118.168 268.117H134.619V260.086C134.619 259.852 134.811 259.661 135.045 259.661C135.279 259.661 135.47 259.852 135.47 260.086V268.543C135.47 268.777 135.279 268.968 135.045 268.968Z" fill="#ECE9F1"/>
<path d="M160.816 268.968H143.183C142.949 268.968 142.758 268.777 142.758 268.543C142.758 268.309 142.949 268.117 143.183 268.117H160.39V263.538C160.39 263.304 160.582 263.112 160.816 263.112C161.05 263.112 161.242 263.304 161.242 263.538V268.543C161.242 268.777 161.05 268.968 160.816 268.968Z" fill="#ECE9F1"/>
<path d="M160.807 261.12C160.573 261.12 160.381 260.929 160.381 260.695V256.298H155.144C154.91 256.298 154.719 256.107 154.719 255.873C154.719 255.639 154.91 255.447 155.144 255.447H160.807C161.041 255.447 161.233 255.639 161.233 255.873V260.695C161.233 260.929 161.041 261.12 160.807 261.12Z" fill="#ECE9F1"/>
<path d="M137.863 264.798C137.629 264.798 137.438 264.606 137.438 264.372V255.873C137.438 255.639 137.629 255.447 137.863 255.447H150.28C150.514 255.447 150.706 255.639 150.706 255.873C150.706 256.107 150.514 256.298 150.28 256.298H138.289V264.372C138.289 264.606 138.097 264.798 137.863 264.798Z" fill="#ECE9F1"/>
<path d="M293.384 136.278C293.282 136.278 293.182 136.229 293.12 136.137L290.618 132.445C290.528 132.315 290.55 132.139 290.665 132.032L294.484 128.489C294.614 128.37 294.816 128.376 294.936 128.506C295.055 128.636 295.048 128.838 294.918 128.957L291.299 132.313L293.646 135.778C293.744 135.924 293.708 136.122 293.561 136.22C293.506 136.256 293.444 136.275 293.382 136.275L293.384 136.278Z" fill="#222430"/>
<path d="M290.765 167.406C290.62 167.406 290.489 167.306 290.455 167.159L289.048 161.056L282.838 156.078C282.7 155.968 282.679 155.768 282.789 155.629C282.9 155.491 283.1 155.47 283.238 155.581L289.535 160.628C289.591 160.673 289.631 160.735 289.646 160.805L291.078 167.016C291.118 167.189 291.01 167.359 290.84 167.399C290.816 167.406 290.791 167.408 290.767 167.408L290.765 167.406Z" fill="white"/>
<path d="M257.347 201.979C257.205 201.979 257.066 201.909 256.986 201.779C256.862 201.579 256.924 201.317 257.122 201.194L284.862 183.955C285.045 183.84 285.286 183.883 285.42 184.053C285.554 184.223 285.539 184.466 285.386 184.619L277.819 192.129L286.792 189.803C287.02 189.743 287.252 189.879 287.312 190.107C287.371 190.335 287.235 190.567 287.007 190.626L276.51 193.348C276.323 193.397 276.129 193.314 276.033 193.146C275.937 192.978 275.967 192.769 276.103 192.633L282.121 186.66L257.571 201.917C257.501 201.96 257.424 201.981 257.347 201.981V201.979Z" fill="#ECE9F1"/>
<path d="M257.547 87.8445C257.4 87.8445 257.268 87.7424 257.236 87.5934C256.319 83.3906 253.997 83.6375 253.9 83.6503C253.725 83.6715 253.565 83.5502 253.542 83.3757C253.519 83.2013 253.638 83.0417 253.812 83.0161C253.934 82.9991 256.811 82.6437 257.862 87.4551C257.9 87.6275 257.789 87.7977 257.619 87.836C257.596 87.8403 257.572 87.8445 257.551 87.8445H257.547Z" fill="#222430"/>
<path d="M284.431 130.93C284.145 130.93 283.964 130.894 283.943 130.89C283.771 130.853 283.658 130.685 283.694 130.513C283.73 130.341 283.896 130.23 284.069 130.264C284.111 130.272 285.16 130.466 286.207 129.706C287.276 128.932 287.948 127.463 288.21 125.342C288.231 125.167 288.395 125.044 288.565 125.063C288.74 125.084 288.865 125.244 288.844 125.418C288.559 127.732 287.795 129.351 286.571 130.232C285.756 130.819 284.935 130.928 284.433 130.928L284.431 130.93Z" fill="#222430"/>
<path d="M286.045 212.428C285.926 212.428 285.811 212.362 285.758 212.247C285.681 212.087 285.75 211.898 285.909 211.821L295.687 207.14C295.847 207.063 296.036 207.131 296.113 207.289C296.189 207.448 296.121 207.638 295.962 207.714L286.184 212.396C286.139 212.417 286.092 212.428 286.045 212.428Z" fill="#222430"/>
<path d="M255.875 148.162H263.685L283.258 157.134L264.325 145.477L255.875 148.162Z" fill="#222430"/>
<path d="M245.684 127.634C245.639 127.634 245.594 127.625 245.55 127.604L233.656 122.116L248.98 114.298C249.137 114.217 249.329 114.281 249.41 114.436C249.491 114.593 249.427 114.785 249.271 114.866L235.118 122.088L245.818 127.025C245.977 127.1 246.048 127.289 245.973 127.449C245.92 127.566 245.803 127.634 245.684 127.634Z" fill="#222430"/>
<path d="M147.958 229.288H82.6562V214.756H147.958V229.288ZM83.7181 228.224H146.892V215.82H83.7181V228.224Z" fill="white"/>
<path d="M154.579 110.099C154.522 110.099 154.462 110.084 154.409 110.05C154.26 109.956 154.216 109.759 154.309 109.61L165.877 91.1876L149.821 97.1566C149.687 97.2056 149.536 97.1609 149.453 97.046C149.368 96.9311 149.37 96.7736 149.457 96.6608L183.333 53.0136C183.441 52.8753 183.641 52.8498 183.78 52.9562C183.918 53.0647 183.944 53.2647 183.837 53.4052L150.649 96.1671L166.537 90.262C166.664 90.213 166.809 90.2534 166.896 90.3598C166.984 90.4662 166.992 90.6152 166.92 90.7301L154.852 109.95C154.79 110.046 154.688 110.099 154.582 110.099H154.579Z" fill="#222430"/>
<path d="M407.186 182.546C407.126 182.546 407.069 182.529 407.016 182.498C406.867 182.404 406.822 182.206 406.918 182.057L432.464 141.806L407.365 158.698C407.218 158.796 407.02 158.758 406.922 158.611C406.824 158.464 406.862 158.266 407.009 158.168L433.373 140.425C433.498 140.342 433.667 140.355 433.773 140.461C433.881 140.568 433.901 140.734 433.82 140.861L407.456 182.4C407.394 182.495 407.292 182.549 407.186 182.549V182.546Z" fill="#222430"/>
<path d="M211.771 252.713C211.699 252.713 211.629 252.689 211.569 252.64C211.433 252.528 211.414 252.328 211.527 252.191L221.735 239.815C221.847 239.679 222.047 239.66 222.184 239.772C222.32 239.885 222.339 240.085 222.226 240.221L212.018 252.598C211.954 252.674 211.863 252.715 211.771 252.715V252.713Z" fill="#222430"/>
<path d="M218.639 251.7C218.566 251.7 218.496 251.676 218.436 251.627C218.3 251.515 218.281 251.315 218.394 251.178L228.602 238.802C228.715 238.666 228.915 238.647 229.051 238.759C229.187 238.872 229.206 239.072 229.093 239.208L218.885 251.585C218.822 251.661 218.73 251.702 218.639 251.702V251.7Z" fill="#222430"/>
<path d="M343.406 162.867C343.333 162.867 343.263 162.843 343.203 162.794L330.827 152.586C330.691 152.474 330.672 152.274 330.784 152.137C330.897 152.001 331.097 151.982 331.233 152.095L343.61 162.303C343.746 162.416 343.765 162.616 343.652 162.752C343.589 162.828 343.497 162.869 343.406 162.869V162.867Z" fill="#222430"/>
<path d="M344.413 169.732C344.341 169.732 344.271 169.708 344.211 169.659L331.835 159.451C331.699 159.339 331.679 159.139 331.792 159.002C331.905 158.866 332.105 158.847 332.241 158.96L344.618 169.168C344.754 169.281 344.773 169.481 344.66 169.617C344.596 169.693 344.505 169.734 344.413 169.734V169.732Z" fill="#222430"/>
<path d="M277.154 272.565C277.076 272.565 276.999 272.535 276.939 272.482C276.874 272.422 276.837 272.339 276.835 272.252L276.75 267.919C276.746 267.743 276.886 267.598 277.063 267.594H277.069C277.242 267.594 277.384 267.732 277.388 267.907L277.467 271.901L294.149 270.607L295.253 262.514C295.276 262.34 295.436 262.216 295.613 262.242C295.787 262.265 295.911 262.427 295.885 262.601L294.746 270.95C294.725 271.099 294.604 271.213 294.455 271.224L277.18 272.565C277.18 272.565 277.163 272.565 277.154 272.565Z" fill="#222430"/>
<path d="M294.768 253.34L270.929 253.328C270.752 253.328 270.609 253.185 270.609 253.008C270.609 252.832 270.752 252.689 270.929 252.689L294.768 252.702C296.037 252.702 297.09 251.751 297.216 250.487L298.148 241.196C298.165 241.021 298.32 240.89 298.497 240.911C298.671 240.928 298.801 241.085 298.782 241.26L297.85 250.551C297.69 252.14 296.364 253.34 294.766 253.34H294.768Z" fill="#222430"/>
<path d="M104.468 117.358C104.291 117.358 104.148 117.215 104.148 117.038V49.6408C104.148 49.4642 104.291 49.3216 104.468 49.3216C104.644 49.3216 104.787 49.4642 104.787 49.6408V117.041C104.787 117.217 104.644 117.36 104.468 117.36V117.358Z" fill="#222430"/>
<path d="M101.085 105.46C100.908 105.46 100.766 105.317 100.766 105.141V37.7431C100.766 37.5665 100.908 37.424 101.085 37.424C101.261 37.424 101.404 37.5665 101.404 37.7431V105.143C101.404 105.32 101.261 105.462 101.085 105.462V105.46Z" fill="#222430"/>
<path d="M377.327 150.003C377.15 150.003 377.008 149.861 377.008 149.684V108.739C377.008 108.563 377.15 108.42 377.327 108.42C377.504 108.42 377.646 108.563 377.646 108.739V149.684C377.646 149.861 377.504 150.003 377.327 150.003Z" fill="#222430"/>
<path d="M373.96 142.774C373.783 142.774 373.641 142.632 373.641 142.455V101.51C373.641 101.334 373.783 101.191 373.96 101.191C374.136 101.191 374.279 101.334 374.279 101.51V142.455C374.279 142.632 374.136 142.774 373.96 142.774Z" fill="#222430"/>
<path d="M97.9588 180.233C99.1917 180.233 100.191 179.234 100.191 178.001C100.191 176.768 99.1917 175.769 97.9588 175.769C96.726 175.769 95.7266 176.768 95.7266 178.001C95.7266 179.234 96.726 180.233 97.9588 180.233Z" fill="white"/>
<path d="M109.966 184.998C113.83 184.998 116.962 181.865 116.962 178.001C116.962 174.137 113.83 171.004 109.966 171.004C106.101 171.004 102.969 174.137 102.969 178.001C102.969 181.865 106.101 184.998 109.966 184.998Z" fill="white"/>
<path d="M152.395 187.551L143.219 178.375L134.043 187.551L143.219 196.727L152.395 187.551Z" fill="white"/>
<path d="M386.831 87.9913L380.938 82.0974L375.044 87.9913L380.937 93.8853L386.831 87.9913Z" fill="white"/>
</g>
<defs>
<clipPath id="clip0_109_937">
<rect width="531.991" height="354.091" fill="white" transform="translate(0 0.954468)"/>
</clipPath>
</defs>
</svg>
