<svg width="22" height="21" viewBox="0 0 22 21" fill="none" xmlns="http://www.w3.org/2000/svg">
<path d="M20 0H1.99531C1.17031 0 0.5 0.679688 0.5 1.51406V19.4859C0.5 20.3203 1.17031 21 1.99531 21H20C20.825 21 21.5 20.3203 21.5 19.4859V1.51406C21.5 0.679688 20.825 0 20 0ZM6.84687 18H3.73438V7.97812H6.85156V18H6.84687ZM5.29062 6.60938C4.29219 6.60938 3.48594 5.79844 3.48594 4.80469C3.48594 3.81094 4.29219 3 5.29062 3C6.28437 3 7.09531 3.81094 7.09531 4.80469C7.09531 5.80312 6.28906 6.60938 5.29062 6.60938ZM18.5141 18H15.4016V13.125C15.4016 11.9625 15.3781 10.4672 13.7844 10.4672C12.1625 10.4672 11.9141 11.7328 11.9141 13.0406V18H8.80156V7.97812H11.7875V9.34687H11.8297C12.2469 8.55937 13.2641 7.72969 14.7781 7.72969C17.9281 7.72969 18.5141 9.80625 18.5141 12.5062V18Z" fill="white"/>
</svg>
