<svg width="52" height="52" viewBox="0 0 52 52" fill="none" xmlns="http://www.w3.org/2000/svg">
<rect width="52" height="52" rx="26" fill="white" fill-opacity="0.12"/>
<path d="M26.0031 18.8212C22.0303 18.8212 18.8259 22.0263 18.8259 26C18.8259 29.9737 22.0303 33.1788 26.0031 33.1788C29.9759 33.1788 33.1804 29.9737 33.1804 26C33.1804 22.0263 29.9759 18.8212 26.0031 18.8212ZM26.0031 30.6672C23.4358 30.6672 21.337 28.5741 21.337 26C21.337 23.4259 23.4296 21.3328 26.0031 21.3328C28.5767 21.3328 30.6693 23.4259 30.6693 26C30.6693 28.5741 28.5704 30.6672 26.0031 30.6672ZM35.148 18.5275C35.148 19.4584 34.3984 20.2019 33.474 20.2019C32.5432 20.2019 31.7999 19.4522 31.7999 18.5275C31.7999 17.6028 32.5495 16.8531 33.474 16.8531C34.3984 16.8531 35.148 17.6028 35.148 18.5275ZM39.9016 20.2269C39.7954 17.9839 39.2832 15.9971 37.6404 14.3601C36.0038 12.7232 34.0174 12.2109 31.7749 12.0984C29.4637 11.9672 22.5363 11.9672 20.2251 12.0984C17.9888 12.2046 16.0025 12.7169 14.3596 14.3539C12.7168 15.9909 12.2108 17.9777 12.0984 20.2207C11.9672 22.5324 11.9672 29.4613 12.0984 31.7731C12.2046 34.0161 12.7168 36.0029 14.3596 37.6399C16.0025 39.2768 17.9826 39.7891 20.2251 39.9016C22.5363 40.0328 29.4637 40.0328 31.7749 39.9016C34.0174 39.7954 36.0038 39.2831 37.6404 37.6399C39.277 36.0029 39.7892 34.0161 39.9016 31.7731C40.0328 29.4613 40.0328 22.5387 39.9016 20.2269ZM36.9158 34.2535C36.4286 35.4781 35.4853 36.4215 34.2548 36.9151C32.412 37.6461 28.0395 37.4774 26.0031 37.4774C23.9668 37.4774 19.588 37.6399 17.7515 36.9151C16.5272 36.4278 15.5839 35.4843 15.0905 34.2535C14.3596 32.4104 14.5283 28.0368 14.5283 26C14.5283 23.9632 14.3659 19.5834 15.0905 17.7465C15.5777 16.5219 16.5209 15.5785 17.7515 15.0849C19.5942 14.3539 23.9668 14.5226 26.0031 14.5226C28.0395 14.5226 32.4183 14.3601 34.2548 15.0849C35.4791 15.5722 36.4223 16.5157 36.9158 17.7465C37.6466 19.5896 37.478 23.9632 37.478 26C37.478 28.0368 37.6466 32.4166 36.9158 34.2535Z" fill="white"/>
</svg>
