<svg width="52" height="52" viewBox="0 0 52 52" fill="none" xmlns="http://www.w3.org/2000/svg">
<rect width="52" height="52" rx="26" fill="white" fill-opacity="0.12"/>
<path d="M18.821 39H13.4295V21.6415H18.821V39ZM16.1223 19.2737C14.3987 19.2737 13 17.846 13 16.1223C13 15.2942 13.329 14.5001 13.9145 13.9145C14.5001 13.329 15.2942 13 16.1223 13C16.9504 13 17.7446 13.329 18.3301 13.9145C18.9157 14.5001 19.2446 15.2942 19.2446 16.1223C19.2446 17.846 17.846 19.2737 16.1223 19.2737ZM38.9942 39H33.6143V30.55C33.6143 28.5362 33.5737 25.9536 30.8112 25.9536C28.008 25.9536 27.5786 28.1415 27.5786 30.4049V39H22.1929V21.6415H27.3638V24.0094H27.4393C28.1589 22.6455 29.9174 21.2062 32.5406 21.2062C37.996 21.2062 39 24.7987 39 29.4647V39H38.9942Z" fill="white"/>
</svg>
