<svg width="44" height="17" viewBox="0 0 44 17" fill="none" xmlns="http://www.w3.org/2000/svg">
<path d="M43.6054 7.11193C44.1315 7.63256 44.1315 8.47806 43.6054 8.99869L36.8705 15.6628C36.3444 16.1834 35.4899 16.1834 34.9637 15.6628C34.4376 15.1421 34.4376 14.2966 34.9637 13.776L39.4045 9.38604L1.34697 9.38604C0.601929 9.38604 1.26987e-06 8.79044 1.39876e-06 8.05322C1.52766e-06 7.31601 0.601929 6.72041 1.34697 6.72041L39.4003 6.72042L34.9679 2.33046C34.4418 1.80983 34.4418 0.964331 34.9679 0.443701C35.4941 -0.0769286 36.3486 -0.0769285 36.8747 0.443702L43.6096 7.10777L43.6054 7.11193Z" fill="#063412"/>
</svg>
