<svg width="24" height="24" viewBox="0 0 24 24" fill="none" xmlns="http://www.w3.org/2000/svg">
<g clip-path="url(#clip0_115_75)">
<path d="M0 19.5C0 20.3297 0.670312 21 1.5 21H4.06406C4.64062 22.3266 5.9625 23.25 7.5 23.25C9.0375 23.25 10.3594 22.3266 10.9359 21H22.5C23.3297 21 24 20.3297 24 19.5C24 18.6703 23.3297 18 22.5 18H10.9359C10.3594 16.6734 9.0375 15.75 7.5 15.75C5.9625 15.75 4.64062 16.6734 4.06406 18H1.5C0.670312 18 0 18.6703 0 19.5ZM6 19.5C6 19.1022 6.15804 18.7206 6.43934 18.4393C6.72064 18.158 7.10218 18 7.5 18C7.89782 18 8.27936 18.158 8.56066 18.4393C8.84196 18.7206 9 19.1022 9 19.5C9 19.8978 8.84196 20.2794 8.56066 20.5607C8.27936 20.842 7.89782 21 7.5 21C7.10218 21 6.72064 20.842 6.43934 20.5607C6.15804 20.2794 6 19.8978 6 19.5ZM15 12C15 11.6022 15.158 11.2206 15.4393 10.9393C15.7206 10.658 16.1022 10.5 16.5 10.5C16.8978 10.5 17.2794 10.658 17.5607 10.9393C17.842 11.2206 18 11.6022 18 12C18 12.3978 17.842 12.7794 17.5607 13.0607C17.2794 13.342 16.8978 13.5 16.5 13.5C16.1022 13.5 15.7206 13.342 15.4393 13.0607C15.158 12.7794 15 12.3978 15 12ZM16.5 8.25C14.9625 8.25 13.6406 9.17344 13.0641 10.5H1.5C0.670312 10.5 0 11.1703 0 12C0 12.8297 0.670312 13.5 1.5 13.5H13.0641C13.6406 14.8266 14.9625 15.75 16.5 15.75C18.0375 15.75 19.3594 14.8266 19.9359 13.5H22.5C23.3297 13.5 24 12.8297 24 12C24 11.1703 23.3297 10.5 22.5 10.5H19.9359C19.3594 9.17344 18.0375 8.25 16.5 8.25ZM9 6C8.60218 6 8.22064 5.84196 7.93934 5.56066C7.65804 5.27936 7.5 4.89782 7.5 4.5C7.5 4.10218 7.65804 3.72064 7.93934 3.43934C8.22064 3.15804 8.60218 3 9 3C9.39782 3 9.77936 3.15804 10.0607 3.43934C10.342 3.72064 10.5 4.10218 10.5 4.5C10.5 4.89782 10.342 5.27936 10.0607 5.56066C9.77936 5.84196 9.39782 6 9 6ZM12.4359 3C11.8594 1.67344 10.5375 0.75 9 0.75C7.4625 0.75 6.14062 1.67344 5.56406 3H1.5C0.670312 3 0 3.67031 0 4.5C0 5.32969 0.670312 6 1.5 6H5.56406C6.14062 7.32656 7.4625 8.25 9 8.25C10.5375 8.25 11.8594 7.32656 12.4359 6H22.5C23.3297 6 24 5.32969 24 4.5C24 3.67031 23.3297 3 22.5 3H12.4359Z" fill="#063412"/>
</g>
<defs>
<clipPath id="clip0_115_75">
<rect width="24" height="24" fill="white"/>
</clipPath>
</defs>
</svg>
