<svg width="60" height="48" viewBox="0 0 60 48" fill="none" xmlns="http://www.w3.org/2000/svg">
<g clip-path="url(#clip0_109_1930)">
<path d="M3 13.5C3 20.9531 9.04688 27 16.5 27H28.0594C30.1781 28.8656 32.9531 30 36 30C39.0469 30 41.8219 28.8656 43.9406 27H46.5C52.3031 27 57 22.3031 57 16.5C57 10.6969 52.3031 6 46.5 6C45.4969 6 44.5312 6.14063 43.6125 6.40313C41.6063 2.59688 37.6031 0 33 0C29.9438 0 27.15 1.14375 25.0219 3.02812C22.6969 1.13437 19.7344 0 16.5 0C9.04688 0 3 6.04688 3 13.5ZM57.75 34.5H26.25C25.0031 34.5 24 35.5031 24 36.75C24 37.9969 25.0031 39 26.25 39H57.75C58.9969 39 60 37.9969 60 36.75C60 35.5031 58.9969 34.5 57.75 34.5ZM51.75 43.5H41.25C40.0031 43.5 39 44.5031 39 45.75C39 46.9969 40.0031 48 41.25 48H51.75C52.9969 48 54 46.9969 54 45.75C54 44.5031 52.9969 43.5 51.75 43.5ZM33.75 43.5H2.25C1.00312 43.5 0 44.5031 0 45.75C0 46.9969 1.00312 48 2.25 48H33.75C34.9969 48 36 46.9969 36 45.75C36 44.5031 34.9969 43.5 33.75 43.5ZM21 36.75C21 35.5031 19.9969 34.5 18.75 34.5H9C7.75313 34.5 6.75 35.5031 6.75 36.75C6.75 37.9969 7.75313 39 9 39H18.75C19.9969 39 21 37.9969 21 36.75Z" fill="#073412"/>
</g>
<defs>
<clipPath id="clip0_109_1930">
<rect width="60" height="48" fill="white"/>
</clipPath>
</defs>
</svg>
