<svg width="64" height="64" viewBox="0 0 64 64" fill="none" xmlns="http://www.w3.org/2000/svg">
<rect width="64" height="64" rx="32" fill="#C2FF96"/>
<path d="M28 21C28 19.3438 29.3438 18 31 18H33C34.6562 18 36 19.3438 36 21V43C36 44.6562 34.6562 46 33 46H31C29.3438 46 28 44.6562 28 43V21ZM18 33C18 31.3438 19.3438 30 21 30H23C24.6562 30 26 31.3438 26 33V43C26 44.6562 24.6562 46 23 46H21C19.3438 46 18 44.6562 18 43V33ZM41 22H43C44.6562 22 46 23.3438 46 25V43C46 44.6562 44.6562 46 43 46H41C39.3438 46 38 44.6562 38 43V25C38 23.3438 39.3438 22 41 22Z" fill="#063412"/>
</svg>
