<svg width="179" height="55" viewBox="0 0 179 55" fill="none" xmlns="http://www.w3.org/2000/svg">
<path d="M64.7396 24.5496H61.8635V7.59485H64.7396L70.2133 21.0937L75.6871 7.59485H78.6096V24.5496H75.7335V19.331C75.7335 18.4805 75.7335 17.7693 75.7335 17.1971C75.7335 16.6096 75.7412 16.1148 75.7567 15.7127C75.7722 15.3107 75.7876 14.9551 75.8031 14.6458C75.8185 14.3366 75.8495 14.0273 75.8959 13.718L71.5818 24.5496H68.8449L64.554 13.7412C64.6313 14.2515 64.6777 14.9009 64.6932 15.6895C64.7241 16.4781 64.7396 17.4059 64.7396 18.4728V24.5496Z" fill="#063412"/>
<path d="M87.0702 24.8511C85.9414 24.8511 84.9364 24.596 84.055 24.0857C83.1891 23.56 82.5087 22.8487 82.0139 21.9519C81.5191 21.0396 81.2717 19.9959 81.2717 18.8207C81.2717 17.6301 81.5114 16.5786 81.9907 15.6663C82.4701 14.754 83.1427 14.0428 84.0086 13.5325C84.8745 13.0068 85.8641 12.7439 86.9774 12.7439C88.1371 12.7439 89.1345 12.9913 89.9695 13.4861C90.8044 13.9654 91.4461 14.6381 91.8946 15.504C92.3584 16.3699 92.5904 17.4059 92.5904 18.612V19.4701L82.7561 19.4933L82.8025 17.6842H89.7839C89.7839 16.8956 89.5288 16.2616 89.0185 15.7823C88.5237 15.303 87.8511 15.0633 87.0006 15.0633C86.3357 15.0633 85.7714 15.2025 85.3075 15.4808C84.8591 15.7591 84.5189 16.1766 84.2869 16.7333C84.055 17.2899 83.939 17.9703 83.939 18.7743C83.939 20.0113 84.2019 20.9468 84.7276 21.5808C85.2688 22.2148 86.0651 22.5317 87.1166 22.5317C87.8897 22.5317 88.5237 22.3848 89.0185 22.0911C89.5288 21.7973 89.8612 21.3798 90.0158 20.8386H92.6368C92.3894 22.0911 91.7709 23.0729 90.7812 23.7842C89.8071 24.4955 88.5701 24.8511 87.0702 24.8511Z" fill="#063412"/>
<path d="M98.1517 24.8511C96.9456 24.8511 95.9869 24.5264 95.2757 23.877C94.5798 23.2121 94.2319 22.3462 94.2319 21.2793C94.2319 20.2278 94.5953 19.3928 95.322 18.7743C96.0643 18.1404 97.1157 17.7692 98.4764 17.661L101.909 17.3827V17.1276C101.909 16.6018 101.809 16.1843 101.608 15.8751C101.422 15.5504 101.151 15.3184 100.796 15.1793C100.44 15.0246 100.023 14.9473 99.5433 14.9473C98.7084 14.9473 98.0667 15.1174 97.6182 15.4576C97.1698 15.7823 96.9456 16.2462 96.9456 16.8492H94.5334C94.5334 16.0142 94.7422 15.2952 95.1597 14.6922C95.5926 14.0737 96.1957 13.5943 96.9688 13.2542C97.7574 12.914 98.662 12.7439 99.6825 12.7439C100.718 12.7439 101.608 12.9294 102.35 13.3006C103.092 13.6562 103.664 14.1974 104.066 14.9241C104.468 15.6354 104.669 16.5245 104.669 17.5914V24.5496H102.187L101.979 22.8565C101.731 23.444 101.252 23.9234 100.541 24.2945C99.8449 24.6656 99.0485 24.8511 98.1517 24.8511ZM99.0563 22.7173C99.9376 22.7173 100.633 22.4699 101.144 21.9751C101.669 21.4803 101.932 20.7922 101.932 19.9108V19.3078L99.5433 19.4933C98.662 19.5706 98.0357 19.7562 97.6646 20.05C97.2935 20.3283 97.108 20.6994 97.108 21.1633C97.108 21.6736 97.2781 22.0601 97.6182 22.323C97.9584 22.5859 98.4378 22.7173 99.0563 22.7173Z" fill="#063412"/>
<path d="M110.278 24.5496H107.449V13.0918H110.07L110.301 14.5762C110.657 14.0041 111.16 13.5557 111.809 13.231C112.474 12.9063 113.193 12.7439 113.966 12.7439C115.404 12.7439 116.487 13.1691 117.213 14.0196C117.955 14.87 118.327 16.0297 118.327 17.4987V24.5496H115.497V18.1713C115.497 17.2126 115.28 16.5013 114.847 16.0374C114.415 15.5581 113.827 15.3184 113.085 15.3184C112.203 15.3184 111.515 15.5968 111.02 16.1534C110.526 16.7101 110.278 17.4523 110.278 18.38V24.5496Z" fill="#063412"/>
<path d="M121.107 24.5496V13.0918H123.937V24.5496H121.107ZM122.499 10.7956C122.019 10.7956 121.61 10.6333 121.27 10.3085C120.945 9.96837 120.782 9.55861 120.782 9.07927C120.782 8.59992 120.945 8.1979 121.27 7.87318C121.61 7.54847 122.019 7.38611 122.499 7.38611C122.978 7.38611 123.38 7.54847 123.705 7.87318C124.045 8.1979 124.215 8.59992 124.215 9.07927C124.215 9.55861 124.045 9.96837 123.705 10.3085C123.38 10.6333 122.978 10.7956 122.499 10.7956Z" fill="#063412"/>
<path d="M129.69 24.5496H126.86V13.0918H129.481L129.713 14.5762C130.068 14.0041 130.571 13.5557 131.22 13.231C131.885 12.9063 132.604 12.7439 133.377 12.7439C134.816 12.7439 135.898 13.1691 136.625 14.0196C137.367 14.87 137.738 16.0297 137.738 17.4987V24.5496H134.908V18.1713C134.908 17.2126 134.692 16.5013 134.259 16.0374C133.826 15.5581 133.238 15.3184 132.496 15.3184C131.615 15.3184 130.927 15.5968 130.432 16.1534C129.937 16.7101 129.69 17.4523 129.69 18.38V24.5496Z" fill="#063412"/>
<path d="M139.869 18.5656C139.869 17.4523 140.093 16.4627 140.541 15.5968C141.005 14.7154 141.647 14.0196 142.466 13.5093C143.286 12.999 144.237 12.7439 145.319 12.7439C146.293 12.7439 147.128 12.9604 147.824 13.3933C148.52 13.8108 149.007 14.3984 149.285 15.1561L148.984 15.4112L149.216 13.0918H151.837V23.9698C151.837 25.2377 151.589 26.3355 151.094 27.2633C150.615 28.2065 149.927 28.9255 149.03 29.4203C148.149 29.9306 147.082 30.1857 145.829 30.1857C144.19 30.1857 142.845 29.7451 141.794 28.8637C140.742 27.9823 140.124 26.7762 139.938 25.2454H142.768C142.861 25.9876 143.17 26.5675 143.696 26.985C144.237 27.4025 144.948 27.6112 145.829 27.6112C146.804 27.6112 147.577 27.3252 148.149 26.753C148.736 26.1964 149.03 25.4387 149.03 24.48V21.6272L149.355 21.9287C149.077 22.6554 148.566 23.2353 147.824 23.6682C147.082 24.1012 146.224 24.3177 145.25 24.3177C144.167 24.3177 143.224 24.0703 142.42 23.5755C141.616 23.0807 140.99 22.4003 140.541 21.5344C140.093 20.6685 139.869 19.6789 139.869 18.5656ZM142.721 18.496C142.721 19.1454 142.845 19.7253 143.092 20.2355C143.355 20.7303 143.719 21.1246 144.183 21.4184C144.646 21.7122 145.188 21.8591 145.806 21.8591C146.456 21.8591 147.012 21.72 147.476 21.4416C147.955 21.1478 148.319 20.7535 148.566 20.2587C148.829 19.7485 148.961 19.1609 148.961 18.496C148.961 17.8311 148.837 17.259 148.589 16.7796C148.342 16.2848 147.979 15.8983 147.499 15.6199C147.035 15.3416 146.471 15.2025 145.806 15.2025C145.172 15.2025 144.623 15.3493 144.159 15.6431C143.696 15.9215 143.34 16.308 143.092 16.8028C142.845 17.2976 142.721 17.862 142.721 18.496Z" fill="#063412"/>
<path d="M153.629 13.0918H160.819V15.4576H153.629V13.0918ZM160.842 7.4093V9.82147C160.688 9.82147 160.525 9.82147 160.355 9.82147C160.201 9.82147 160.038 9.82147 159.868 9.82147C159.157 9.82147 158.678 9.99156 158.43 10.3317C158.198 10.6719 158.082 11.1281 158.082 11.7002V24.5496H155.276V11.7002C155.276 10.6487 155.446 9.80601 155.786 9.17204C156.126 8.52261 156.606 8.051 157.224 7.75721C157.843 7.44796 158.562 7.29333 159.381 7.29333C159.613 7.29333 159.853 7.30107 160.1 7.31653C160.363 7.33199 160.61 7.36292 160.842 7.4093Z" fill="#063412"/>
<path d="M170.395 13.0918H173.225V24.5496H170.604L170.395 23.0188C170.055 23.56 169.545 24.0007 168.864 24.3409C168.184 24.681 167.457 24.8511 166.684 24.8511C165.37 24.8511 164.341 24.4336 163.599 23.5987C162.857 22.7637 162.486 21.6504 162.486 20.2587V13.0918H165.315V19.2614C165.315 20.3438 165.524 21.1246 165.942 21.604C166.359 22.0833 166.962 22.323 167.751 22.323C168.648 22.323 169.313 22.0601 169.746 21.5344C170.178 20.9932 170.395 20.1814 170.395 19.099V13.0918Z" fill="#063412"/>
<path d="M179 24.5496H176.193V7.29333H179V24.5496Z" fill="#063412"/>
<path d="M64.8324 30.1445V47.0993H61.8635V30.1445H64.8324ZM68.5666 41.2544H64.1133V38.6103H67.9403C68.9609 38.6103 69.734 38.3552 70.2597 37.8449C70.8009 37.3192 71.0715 36.5924 71.0715 35.6647C71.0715 34.7369 70.8009 34.0257 70.2597 33.5308C69.734 33.036 68.9763 32.7886 67.9867 32.7886H63.835V30.1445H68.5666C69.7108 30.1445 70.7004 30.3765 71.5354 30.8404C72.3704 31.3042 73.0198 31.9537 73.4837 32.7886C73.9476 33.6082 74.1795 34.5746 74.1795 35.6879C74.1795 36.7703 73.9476 37.7367 73.4837 38.5871C73.0198 39.4221 72.3704 40.0793 71.5354 40.5586C70.7004 41.0225 69.7108 41.2544 68.5666 41.2544Z" fill="#063412"/>
<path d="M79.1121 47.0992H76.3057V29.8429H79.1121V47.0992Z" fill="#063412"/>
<path d="M85.4898 47.4008C84.2838 47.4008 83.3251 47.0761 82.6138 46.4267C81.918 45.7618 81.5701 44.8959 81.5701 43.8289C81.5701 42.7775 81.9334 41.9425 82.6602 41.324C83.4024 40.69 84.4538 40.3189 85.8146 40.2107L89.2473 39.9324V39.6772C89.2473 39.1515 89.1468 38.734 88.9457 38.4248C88.7602 38.1 88.4896 37.8681 88.1339 37.7289C87.7783 37.5743 87.3608 37.497 86.8815 37.497C86.0465 37.497 85.4048 37.6671 84.9564 38.0073C84.508 38.332 84.2838 38.7959 84.2838 39.3989H81.8716C81.8716 38.5639 82.0803 37.8449 82.4978 37.2419C82.9308 36.6234 83.5338 36.144 84.307 35.8038C85.0955 35.4637 86.0001 35.2936 87.0206 35.2936C88.0566 35.2936 88.9457 35.4791 89.6879 35.8502C90.4301 36.2059 91.0023 36.7471 91.4043 37.4738C91.8063 38.1851 92.0073 39.0742 92.0073 40.1411V47.0993H89.5256L89.3168 45.4061C89.0694 45.9937 88.5901 46.4731 87.8788 46.8442C87.183 47.2153 86.3867 47.4008 85.4898 47.4008ZM86.3944 45.267C87.2758 45.267 87.9716 45.0196 88.4819 44.5248C89.0076 44.03 89.2705 43.3419 89.2705 42.4605V41.8575L86.8815 42.043C86.0001 42.1203 85.3739 42.3059 85.0028 42.5997C84.6317 42.878 84.4461 43.2491 84.4461 43.713C84.4461 44.2232 84.6162 44.6098 84.9564 44.8727C85.2966 45.1355 85.7759 45.267 86.3944 45.267Z" fill="#063412"/>
<path d="M97.617 47.0993H94.7874V35.6415H97.4083L97.6402 37.1259C97.9958 36.5538 98.4984 36.1054 99.1478 35.7806C99.8127 35.4559 100.532 35.2936 101.305 35.2936C102.743 35.2936 103.825 35.7188 104.552 36.5692C105.294 37.4197 105.665 38.5794 105.665 40.0483V47.0993H102.836V40.721C102.836 39.7623 102.619 39.051 102.186 38.5871C101.753 38.1078 101.166 37.8681 100.423 37.8681C99.5421 37.8681 98.854 38.1464 98.3592 38.7031C97.8644 39.2597 97.617 40.0019 97.617 40.9297V47.0993Z" fill="#063412"/>
<path d="M113.571 47.4008C112.442 47.4008 111.437 47.1457 110.556 46.6354C109.69 46.1097 109.01 45.3984 108.515 44.5016C108.02 43.5893 107.773 42.5455 107.773 41.3704C107.773 40.1798 108.012 39.1283 108.492 38.216C108.971 37.3037 109.644 36.5924 110.51 36.0822C111.375 35.5564 112.365 35.2936 113.478 35.2936C114.638 35.2936 115.635 35.541 116.47 36.0358C117.305 36.5151 117.947 37.1877 118.396 38.0537C118.859 38.9196 119.091 39.9556 119.091 41.1616V42.0198L109.257 42.043L109.303 40.2339H116.285C116.285 39.4453 116.03 38.8113 115.519 38.332C115.025 37.8526 114.352 37.613 113.502 37.613C112.837 37.613 112.272 37.7521 111.808 38.0305C111.36 38.3088 111.02 38.7263 110.788 39.2829C110.556 39.8396 110.44 40.5199 110.44 41.324C110.44 42.561 110.703 43.4965 111.229 44.1305C111.77 44.7644 112.566 45.0814 113.618 45.0814C114.391 45.0814 115.025 44.9345 115.519 44.6407C116.03 44.3469 116.362 43.9295 116.517 43.3883H119.138C118.89 44.6407 118.272 45.6226 117.282 46.3339C116.308 47.0452 115.071 47.4008 113.571 47.4008Z" fill="#063412"/>
<path d="M120.107 35.6415H127.343V38.0072H120.107V35.6415ZM125.14 47.0993H122.31V32.0696H125.14V47.0993Z" fill="#063412"/>
<path fill-rule="evenodd" clip-rule="evenodd" d="M41.9503 6.83632C37.7949 3.79534 32.6705 2 27.1268 2C13.2496 2 2 13.2496 2 27.1268C2 32.6705 3.79534 37.7949 6.83632 41.9503L9.60864 39.178C7.24789 35.7529 5.86566 31.6013 5.86566 27.1268C5.86566 15.3846 15.3846 5.86566 27.1268 5.86566C31.6013 5.86566 35.7529 7.24789 39.178 9.60864L41.9503 6.83632ZM15.0755 44.6449C18.5006 47.0056 22.6523 48.3879 27.1268 48.3879C38.869 48.3879 48.3879 38.869 48.3879 27.1268C48.3879 22.6523 47.0056 18.5006 44.6449 15.0755L47.4172 12.3032C50.4582 16.4586 52.2535 21.583 52.2535 27.1268C52.2535 41.0039 41.0039 52.2535 27.1268 52.2535C21.583 52.2535 16.4586 50.4582 12.3032 47.4172L15.0755 44.6449Z" fill="#063412"/>
<path d="M2 52.2535L52.2535 2" stroke="#063412" stroke-width="3.86566" stroke-linecap="round" stroke-linejoin="round"/>
</svg>
