<svg width="57" height="46" viewBox="0 0 57 46" fill="none" xmlns="http://www.w3.org/2000/svg">
<path d="M3.2775 17.25H53.7136C55.5216 17.25 56.9911 15.7676 56.9911 13.9437C56.9911 13.2879 56.7952 12.65 56.4389 12.1109L49.7147 1.92266C48.922 0.71875 47.595 0 46.1611 0H10.8389C9.41391 0 8.07797 0.71875 7.28531 1.92266L0.552187 12.102C0.195937 12.65 0 13.2879 0 13.9348C0 15.7676 1.46953 17.25 3.2775 17.25ZM5.7 20.125V34.5V41.6875C5.7 44.0684 7.61484 46 9.975 46H29.925C32.2852 46 34.2 44.0684 34.2 41.6875V34.5V20.125H28.5V34.5H11.4V20.125H5.7ZM45.6 20.125V43.125C45.6 44.7152 46.8736 46 48.45 46C50.0264 46 51.3 44.7152 51.3 43.125V20.125H45.6Z" fill="#063412"/>
</svg>
