<svg width="53" height="52" viewBox="0 0 53 52" fill="none" xmlns="http://www.w3.org/2000/svg">
<rect x="0.664062" width="52" height="52" rx="16" fill="#D1F1FF"/>
<g clip-path="url(#clip0_109_783)">
<path d="M22.9141 20.75V23H30.4141V20.75C30.4141 18.6781 28.7359 17 26.6641 17C24.5922 17 22.9141 18.6781 22.9141 20.75ZM19.9141 23V20.75C19.9141 17.0234 22.9375 14 26.6641 14C30.3906 14 33.4141 17.0234 33.4141 20.75V23H34.1641C35.8188 23 37.1641 24.3453 37.1641 26V35C37.1641 36.6547 35.8188 38 34.1641 38H19.1641C17.5094 38 16.1641 36.6547 16.1641 35V26C16.1641 24.3453 17.5094 23 19.1641 23H19.9141Z" fill="#162A49"/>
</g>
<defs>
<clipPath id="clip0_109_783">
<rect width="21" height="24" fill="white" transform="translate(16.1641 14)"/>
</clipPath>
</defs>
</svg>
