<svg width="53" height="52" viewBox="0 0 53 52" fill="none" xmlns="http://www.w3.org/2000/svg">
<rect x="0.335938" width="52" height="52" rx="16" fill="#D1F1FF"/>
<path d="M26.3359 26C27.9272 26 29.4534 25.3679 30.5786 24.2426C31.7038 23.1174 32.3359 21.5913 32.3359 20C32.3359 18.4087 31.7038 16.8826 30.5786 15.7574C29.4534 14.6321 27.9272 14 26.3359 14C24.7446 14 23.2185 14.6321 22.0933 15.7574C20.9681 16.8826 20.3359 18.4087 20.3359 20C20.3359 21.5913 20.9681 23.1174 22.0933 24.2426C23.2185 25.3679 24.7446 26 26.3359 26ZM24.1938 28.25C19.5766 28.25 15.8359 31.9906 15.8359 36.6078C15.8359 37.3766 16.4594 38 17.2281 38H35.4437C36.2125 38 36.8359 37.3766 36.8359 36.6078C36.8359 31.9906 33.0953 28.25 28.4781 28.25H24.1938Z" fill="#162A49"/>
</svg>
