<svg width="52" height="52" viewBox="0 0 52 52" fill="none" xmlns="http://www.w3.org/2000/svg">
<rect width="52" height="52" rx="16" fill="#D1F1FF"/>
<g clip-path="url(#clip0_109_770)">
<path d="M30.5 29C34.6437 29 38 25.6438 38 21.5C38 20.7828 37.8969 20.0891 37.7094 19.4281C37.5641 18.9219 36.9406 18.8094 36.5703 19.1797L32.9703 22.7797C32.8297 22.9203 32.6375 23 32.4406 23H29.75C29.3375 23 29 22.6625 29 22.25V19.5594C29 19.3625 29.0797 19.1703 29.2203 19.0297L32.8203 15.4297C33.1906 15.0594 33.0734 14.4359 32.5719 14.2906C31.9109 14.1031 31.2172 14 30.5 14C26.3562 14 23 17.3562 23 21.5C23 22.3953 23.1594 23.2578 23.4453 24.0547L14.9328 32.5672C14.3375 33.1625 14 33.9734 14 34.8172C14 36.575 15.425 38 17.1828 38C18.0266 38 18.8375 37.6625 19.4328 37.0672L27.9453 28.5547C28.7422 28.8453 29.6047 29 30.5 29ZM17.75 33.125C18.0484 33.125 18.3345 33.2435 18.5455 33.4545C18.7565 33.6655 18.875 33.9516 18.875 34.25C18.875 34.5484 18.7565 34.8345 18.5455 35.0455C18.3345 35.2565 18.0484 35.375 17.75 35.375C17.4516 35.375 17.1655 35.2565 16.9545 35.0455C16.7435 34.8345 16.625 34.5484 16.625 34.25C16.625 33.9516 16.7435 33.6655 16.9545 33.4545C17.1655 33.2435 17.4516 33.125 17.75 33.125Z" fill="#162A49"/>
</g>
<defs>
<clipPath id="clip0_109_770">
<rect width="24" height="24" fill="white" transform="translate(14 14)"/>
</clipPath>
</defs>
</svg>
