<svg width="53" height="52" viewBox="0 0 53 52" fill="none" xmlns="http://www.w3.org/2000/svg">
<rect x="0.335938" width="52" height="52" rx="16" fill="#C1F3D9"/>
<g clip-path="url(#clip0_109_724)">
<path d="M15.8359 17C14.1813 17 12.8359 18.3453 12.8359 20V32C12.8359 33.6547 14.1813 35 15.8359 35H36.8359C38.4906 35 39.8359 33.6547 39.8359 32V20C39.8359 18.3453 38.4906 17 36.8359 17H15.8359ZM18.8359 32H15.8359V29C17.4906 29 18.8359 30.3453 18.8359 32ZM15.8359 23V20H18.8359C18.8359 21.6547 17.4906 23 15.8359 23ZM33.8359 32C33.8359 30.3453 35.1812 29 36.8359 29V32H33.8359ZM36.8359 23C35.1812 23 33.8359 21.6547 33.8359 20H36.8359V23ZM26.3359 21.5C27.5294 21.5 28.674 21.9741 29.5179 22.818C30.3618 23.6619 30.8359 24.8065 30.8359 26C30.8359 27.1935 30.3618 28.3381 29.5179 29.182C28.674 30.0259 27.5294 30.5 26.3359 30.5C25.1425 30.5 23.9979 30.0259 23.154 29.182C22.31 28.3381 21.8359 27.1935 21.8359 26C21.8359 24.8065 22.31 23.6619 23.154 22.818C23.9979 21.9741 25.1425 21.5 26.3359 21.5Z" fill="#063412"/>
</g>
<defs>
<clipPath id="clip0_109_724">
<rect width="27" height="24" fill="white" transform="translate(12.8359 14)"/>
</clipPath>
</defs>
</svg>
