<svg width="52" height="52" viewBox="0 0 52 52" fill="none" xmlns="http://www.w3.org/2000/svg">
<rect width="52" height="52" rx="16" fill="#C1F3D9"/>
<path d="M25.3719 14.2766L18.4062 21.9406C18.2234 22.1375 18.125 22.4 18.125 22.6672C18.125 23.2672 18.6078 23.75 19.2078 23.75H20.375L16.9344 27.1906C16.7375 27.3875 16.625 27.6594 16.625 27.9406C16.625 28.5266 17.0984 29 17.6844 29H19.25L15.7531 33.1953C15.5891 33.3922 15.5 33.6406 15.5 33.8984C15.5 34.5078 15.9922 35 16.6016 35H24.5V36.5C24.5 37.3297 25.1703 38 26 38C26.8297 38 27.5 37.3297 27.5 36.5V35H35.3984C36.0078 35 36.5 34.5078 36.5 33.8984C36.5 33.6406 36.4109 33.3922 36.2469 33.1953L32.75 29H34.3156C34.9016 29 35.375 28.5266 35.375 27.9406C35.375 27.6594 35.2625 27.3875 35.0656 27.1906L31.625 23.75H32.7922C33.3875 23.75 33.875 23.2672 33.875 22.6672C33.875 22.4 33.7766 22.1375 33.5938 21.9406L26.6281 14.2766C26.4688 14.0984 26.2391 14 26 14C25.7609 14 25.5312 14.0984 25.3719 14.2766Z" fill="#063412"/>
</svg>
