<svg width="24" height="24" viewBox="0 0 24 24" fill="none" xmlns="http://www.w3.org/2000/svg">
<g clip-path="url(#clip0_109_676)">
<path d="M11.9922 24C15.1748 24 18.227 22.7357 20.4775 20.4853C22.7279 18.2348 23.9922 15.1826 23.9922 12C23.9922 8.8174 22.7279 5.76516 20.4775 3.51472C18.227 1.26428 15.1748 0 11.9922 0C8.80959 0 5.75734 1.26428 3.50691 3.51472C1.25647 5.76516 -0.0078125 8.8174 -0.0078125 12C-0.0078125 15.1826 1.25647 18.2348 3.50691 20.4853C5.75734 22.7357 8.80959 24 11.9922 24ZM17.2891 9.79688L11.2891 15.7969C10.8484 16.2375 10.1359 16.2375 9.7 15.7969L6.7 12.7969C6.25938 12.3562 6.25938 11.6438 6.7 11.2078C7.14063 10.7719 7.85313 10.7672 8.28906 11.2078L10.4922 13.4109L15.6953 8.20312C16.1359 7.7625 16.8484 7.7625 17.2844 8.20312C17.7203 8.64375 17.725 9.35625 17.2844 9.79219L17.2891 9.79688Z" fill="#1D6367"/>
</g>
<defs>
<clipPath id="clip0_109_676">
<rect width="24" height="24" fill="white" transform="translate(-0.0078125)"/>
</clipPath>
</defs>
</svg>
