<svg width="122" height="20" viewBox="0 0 122 20" fill="none" xmlns="http://www.w3.org/2000/svg">
<path d="M4.53084 19.7642C4.02024 19.374 3.91083 18.7297 4.18436 17.9312L6.00795 12.55L1.36693 9.24689C0.664852 8.74779 0.354843 8.16703 0.564555 7.54089C0.774267 6.94197 1.35781 6.65159 2.2149 6.65159H7.90447L9.63687 1.28858C9.90129 0.462798 10.3481 0 11.0046 0C11.6519 0 12.0987 0.462798 12.3631 1.28858L14.0955 6.65159H19.776C20.6422 6.65159 21.2257 6.94197 21.4354 7.54996C21.6452 8.16703 21.3351 8.74779 20.6331 9.24689L15.9921 12.55L17.8156 17.9312C18.0892 18.7297 17.9798 19.374 17.4692 19.7642C16.9494 20.1635 16.3021 20.0364 15.5909 19.5283L11.0046 16.1616L6.40002 19.5283C5.69794 20.0364 5.05057 20.1635 4.53084 19.7642Z" fill="#00CC82"/>
<path d="M29.5308 19.7642C29.0202 19.374 28.9108 18.7297 29.1844 17.9312L31.0079 12.55L26.3669 9.24689C25.6649 8.74779 25.3548 8.16703 25.5646 7.54089C25.7743 6.94197 26.3578 6.65159 27.2149 6.65159H32.9045L34.6369 1.28858C34.9013 0.462798 35.3481 0 36.0046 0C36.6519 0 37.0987 0.462798 37.3631 1.28858L39.0955 6.65159H44.776C45.6422 6.65159 46.2257 6.94197 46.4354 7.54996C46.6452 8.16703 46.3351 8.74779 45.6331 9.24689L40.9921 12.55L42.8156 17.9312C43.0892 18.7297 42.9798 19.374 42.4692 19.7642C41.9494 20.1635 41.3021 20.0364 40.5909 19.5283L36.0046 16.1616L31.4 19.5283C30.6979 20.0364 30.0506 20.1635 29.5308 19.7642Z" fill="#00CC82"/>
<path d="M54.5308 19.7642C54.0202 19.374 53.9108 18.7297 54.1844 17.9312L56.0079 12.55L51.3669 9.24689C50.6649 8.74779 50.3548 8.16703 50.5646 7.54089C50.7743 6.94197 51.3578 6.65159 52.2149 6.65159H57.9045L59.6369 1.28858C59.9013 0.462798 60.3481 0 61.0046 0C61.6519 0 62.0987 0.462798 62.3631 1.28858L64.0955 6.65159H69.776C70.6422 6.65159 71.2257 6.94197 71.4354 7.54996C71.6452 8.16703 71.3351 8.74779 70.6331 9.24689L65.9921 12.55L67.8156 17.9312C68.0892 18.7297 67.9798 19.374 67.4692 19.7642C66.9494 20.1635 66.3021 20.0364 65.5909 19.5283L61.0046 16.1616L56.4 19.5283C55.6979 20.0364 55.0506 20.1635 54.5308 19.7642Z" fill="#00CC82"/>
<path d="M79.5308 19.7642C79.0202 19.374 78.9108 18.7297 79.1844 17.9312L81.0079 12.55L76.3669 9.24689C75.6649 8.74779 75.3548 8.16703 75.5646 7.54089C75.7743 6.94197 76.3578 6.65159 77.2149 6.65159H82.9045L84.6369 1.28858C84.9013 0.462798 85.3481 0 86.0046 0C86.6519 0 87.0987 0.462798 87.3631 1.28858L89.0955 6.65159H94.776C95.6422 6.65159 96.2257 6.94197 96.4354 7.54996C96.6452 8.16703 96.3351 8.74779 95.6331 9.24689L90.9921 12.55L92.8156 17.9312C93.0892 18.7297 92.9798 19.374 92.4692 19.7642C91.9494 20.1635 91.3021 20.0364 90.5909 19.5283L86.0046 16.1616L81.4 19.5283C80.6979 20.0364 80.0506 20.1635 79.5308 19.7642Z" fill="#00CC82"/>
<path d="M104.531 19.7642C104.02 19.374 103.911 18.7297 104.184 17.9312L106.008 12.55L101.367 9.24689C100.665 8.74779 100.355 8.16703 100.565 7.54089C100.774 6.94197 101.358 6.64252 102.215 6.65159L107.904 6.69696L109.637 1.28858C109.901 0.462798 110.348 0 111.005 0C111.652 0 112.099 0.462798 112.363 1.28858L114.096 6.69696L119.776 6.65159C120.642 6.64252 121.226 6.94197 121.435 7.54996C121.645 8.16703 121.335 8.74779 120.633 9.24689L115.992 12.55L117.816 17.9312C118.089 18.7297 117.98 19.374 117.469 19.7642C116.949 20.1635 116.302 20.0364 115.591 19.5283L111.005 16.1616L106.4 19.5283C105.698 20.0364 105.051 20.1635 104.531 19.7642ZM111.005 13.7297C111.205 13.7206 111.415 13.8295 111.67 14.0291L115.29 16.8694C115.326 16.8876 115.345 16.8967 115.363 16.8785C115.372 16.8604 115.372 16.8513 115.363 16.815L113.776 12.5046C113.567 11.9057 113.594 11.6426 114.168 11.2614L117.998 8.70242C118.034 8.6752 118.044 8.65705 118.044 8.6389C118.034 8.62075 118.016 8.61168 117.971 8.61168L113.366 8.77502C112.719 8.79317 112.463 8.64797 112.299 8.03091L111.041 3.62072C111.032 3.57534 111.023 3.55719 111.005 3.55719V13.7297Z" fill="#00CC82"/>
</svg>
