<svg width="52" height="52" viewBox="0 0 52 52" fill="none" xmlns="http://www.w3.org/2000/svg">
<rect width="52" height="52" rx="26" fill="white" fill-opacity="0.12"/>
<path d="M39.4156 19.1302C39.0926 17.8958 38.1443 16.9271 36.9396 16.599C34.7558 16 26 16 26 16C26 16 17.2442 16 15.0604 16.599C13.8557 16.9271 12.9074 17.8958 12.5844 19.1302C12 21.3646 12 26.0208 12 26.0208C12 26.0208 12 30.6771 12.5844 32.9115C12.9074 34.1458 13.8557 35.0729 15.0604 35.401C17.2442 36 26 36 26 36C26 36 34.7558 36 36.9396 35.401C38.1443 35.0729 39.0926 34.1406 39.4156 32.9115C40 30.6771 40 26.0208 40 26.0208C40 26.0208 40 21.3646 39.4156 19.1302ZM23.1395 30.25V21.7917L30.4548 26.0208L23.1395 30.25Z" fill="white"/>
</svg>
