<svg xmlns="http://www.w3.org/2000/svg" xmlns:xlink="http://www.w3.org/1999/xlink" width="2000" zoomAndPan="magnify" viewBox="0 0 1500 487.499991" height="650" preserveAspectRatio="xMidYMid meet" version="1.2"><defs><clipPath id="75fecd2f82"><path d="M 101 339 L 376 339 L 376 467.257812 L 101 467.257812 Z M 101 339 "/></clipPath><clipPath id="efce7d6d71"><path d="M 21 19.21875 L 267 19.21875 L 267 186 L 21 186 Z M 21 19.21875 "/></clipPath><clipPath id="fa0cb6bf2f"><path d="M 15.753906 21 L 456 21 L 456 311 L 15.753906 311 Z M 15.753906 21 "/></clipPath><clipPath id="21818cd047"><path d="M 35 185 L 460.796875 185 L 460.796875 396 L 35 396 Z M 35 185 "/></clipPath></defs><g id="d240ba2d20"><path style=" stroke:none;fill-rule:nonzero;fill:#000000;fill-opacity:1;" d="M 562.398438 222.78125 L 539.273438 222.78125 L 539.273438 86.433594 L 562.398438 86.433594 L 606.410156 194.992188 L 650.425781 86.433594 L 673.921875 86.433594 L 673.921875 222.78125 L 650.796875 222.78125 L 650.796875 180.816406 C 650.796875 173.976562 650.796875 168.253906 650.796875 163.65625 C 650.796875 158.929688 650.859375 154.949219 650.984375 151.71875 C 651.109375 148.484375 651.230469 145.625 651.355469 143.136719 C 651.480469 140.652344 651.730469 138.164062 652.101562 135.675781 L 617.414062 222.78125 L 595.40625 222.78125 L 560.90625 135.863281 C 561.527344 139.96875 561.902344 145.191406 562.023438 151.53125 C 562.273438 157.871094 562.398438 165.332031 562.398438 173.914062 Z M 562.398438 222.78125 "/><path style=" stroke:none;fill-rule:nonzero;fill:#000000;fill-opacity:1;" d="M 741.953125 225.207031 C 732.875 225.207031 724.792969 223.15625 717.707031 219.050781 C 710.746094 214.824219 705.273438 209.105469 701.296875 201.890625 C 697.316406 194.554688 695.328125 186.160156 695.328125 176.710938 C 695.328125 167.136719 697.253906 158.679688 701.109375 151.34375 C 704.964844 144.007812 710.371094 138.289062 717.335938 134.183594 C 724.296875 129.957031 732.253906 127.84375 741.207031 127.84375 C 750.53125 127.84375 758.550781 129.832031 765.265625 133.8125 C 771.976562 137.667969 777.136719 143.074219 780.742188 150.039062 C 784.472656 157.003906 786.339844 165.332031 786.339844 175.03125 L 786.339844 181.933594 L 707.265625 182.121094 L 707.636719 167.570312 L 763.773438 167.570312 C 763.773438 161.230469 761.722656 156.132812 757.617188 152.277344 C 753.640625 148.421875 748.230469 146.496094 741.394531 146.496094 C 736.046875 146.496094 731.507812 147.613281 727.777344 149.851562 C 724.171875 152.089844 721.4375 155.449219 719.574219 159.925781 C 717.707031 164.402344 716.773438 169.871094 716.773438 176.339844 C 716.773438 186.285156 718.890625 193.808594 723.117188 198.90625 C 727.46875 204.003906 733.871094 206.554688 742.324219 206.554688 C 748.542969 206.554688 753.640625 205.375 757.617188 203.011719 C 761.722656 200.648438 764.394531 197.289062 765.636719 192.9375 L 786.710938 192.9375 C 784.722656 203.011719 779.75 210.90625 771.792969 216.625 C 763.957031 222.347656 754.011719 225.207031 741.953125 225.207031 Z M 741.953125 225.207031 "/><path style=" stroke:none;fill-rule:nonzero;fill:#000000;fill-opacity:1;" d="M 831.054688 225.207031 C 821.359375 225.207031 813.648438 222.59375 807.929688 217.371094 C 802.335938 212.027344 799.539062 205.0625 799.539062 196.484375 C 799.539062 188.027344 802.460938 181.3125 808.304688 176.339844 C 814.269531 171.238281 822.726562 168.253906 833.667969 167.386719 L 861.269531 165.148438 L 861.269531 163.09375 C 861.269531 158.867188 860.460938 155.511719 858.84375 153.023438 C 857.351562 150.410156 855.175781 148.546875 852.316406 147.425781 C 849.457031 146.183594 846.101562 145.5625 842.246094 145.5625 C 835.53125 145.5625 830.371094 146.929688 826.765625 149.664062 C 823.160156 152.277344 821.359375 156.007812 821.359375 160.855469 L 801.960938 160.855469 C 801.960938 154.140625 803.640625 148.359375 806.996094 143.511719 C 810.480469 138.535156 815.328125 134.683594 821.542969 131.945312 C 827.886719 129.210938 835.160156 127.84375 843.363281 127.84375 C 851.695312 127.84375 858.84375 129.335938 864.8125 132.320312 C 870.78125 135.179688 875.378906 139.53125 878.613281 145.375 C 881.84375 151.097656 883.460938 158.246094 883.460938 166.824219 L 883.460938 222.78125 L 863.507812 222.78125 L 861.828125 209.167969 C 859.839844 213.890625 855.984375 217.746094 850.265625 220.730469 C 844.671875 223.714844 838.265625 225.207031 831.054688 225.207031 Z M 838.328125 208.046875 C 845.417969 208.046875 851.011719 206.058594 855.113281 202.078125 C 859.339844 198.097656 861.453125 192.566406 861.453125 185.476562 L 861.453125 180.628906 L 842.246094 182.121094 C 835.160156 182.742188 830.125 184.234375 827.140625 186.597656 C 824.15625 188.835938 822.664062 191.820312 822.664062 195.550781 C 822.664062 199.652344 824.03125 202.761719 826.765625 204.875 C 829.5 206.988281 833.355469 208.046875 838.328125 208.046875 Z M 838.328125 208.046875 "/><path style=" stroke:none;fill-rule:nonzero;fill:#000000;fill-opacity:1;" d="M 928.5625 222.78125 L 905.808594 222.78125 L 905.808594 130.640625 L 926.882812 130.640625 L 928.75 142.578125 C 931.609375 137.976562 935.648438 134.371094 940.871094 131.761719 C 946.21875 129.148438 952 127.84375 958.214844 127.84375 C 969.777344 127.84375 978.480469 131.261719 984.324219 138.101562 C 990.292969 144.941406 993.277344 154.265625 993.277344 166.078125 L 993.277344 222.78125 L 970.523438 222.78125 L 970.523438 171.488281 C 970.523438 163.78125 968.785156 158.058594 965.300781 154.328125 C 961.820312 150.472656 957.097656 148.546875 951.128906 148.546875 C 944.042969 148.546875 938.507812 150.785156 934.53125 155.261719 C 930.550781 159.738281 928.5625 165.707031 928.5625 173.167969 Z M 928.5625 222.78125 "/><path style=" stroke:none;fill-rule:nonzero;fill:#000000;fill-opacity:1;" d="M 1015.636719 222.78125 L 1015.636719 130.640625 L 1038.386719 130.640625 L 1038.386719 222.78125 Z M 1026.824219 112.175781 C 1022.972656 112.175781 1019.675781 110.871094 1016.941406 108.257812 C 1014.332031 105.523438 1013.023438 102.226562 1013.023438 98.371094 C 1013.023438 94.519531 1014.332031 91.285156 1016.941406 88.671875 C 1019.675781 86.0625 1022.972656 84.757812 1026.824219 84.757812 C 1030.679688 84.757812 1033.914062 86.0625 1036.523438 88.671875 C 1039.257812 91.285156 1040.625 94.519531 1040.625 98.371094 C 1040.625 102.226562 1039.257812 105.523438 1036.523438 108.257812 C 1033.914062 110.871094 1030.679688 112.175781 1026.824219 112.175781 Z M 1026.824219 112.175781 "/><path style=" stroke:none;fill-rule:nonzero;fill:#000000;fill-opacity:1;" d="M 1084.644531 222.78125 L 1061.890625 222.78125 L 1061.890625 130.640625 L 1082.964844 130.640625 L 1084.832031 142.578125 C 1087.691406 137.976562 1091.730469 134.371094 1096.953125 131.761719 C 1102.300781 129.148438 1108.082031 127.84375 1114.296875 127.84375 C 1125.859375 127.84375 1134.5625 131.261719 1140.40625 138.101562 C 1146.375 144.941406 1149.359375 154.265625 1149.359375 166.078125 L 1149.359375 222.78125 L 1126.605469 222.78125 L 1126.605469 171.488281 C 1126.605469 163.78125 1124.867188 158.058594 1121.382812 154.328125 C 1117.902344 150.472656 1113.179688 148.546875 1107.210938 148.546875 C 1100.125 148.546875 1094.589844 150.785156 1090.613281 155.261719 C 1086.632812 159.738281 1084.644531 165.707031 1084.644531 173.167969 Z M 1084.644531 222.78125 "/><path style=" stroke:none;fill-rule:nonzero;fill:#000000;fill-opacity:1;" d="M 1166.492188 174.660156 C 1166.492188 165.707031 1168.292969 157.75 1171.898438 150.785156 C 1175.628906 143.699219 1180.789062 138.101562 1187.378906 134 C 1193.96875 129.894531 1201.613281 127.84375 1210.316406 127.84375 C 1218.148438 127.84375 1224.863281 129.582031 1230.457031 133.066406 C 1236.054688 136.421875 1239.96875 141.148438 1242.207031 147.242188 L 1239.785156 149.292969 L 1241.648438 130.640625 L 1262.722656 130.640625 L 1262.722656 218.117188 C 1262.722656 228.316406 1260.734375 237.144531 1256.753906 244.605469 C 1252.902344 252.191406 1247.367188 257.972656 1240.15625 261.953125 C 1233.070312 266.054688 1224.492188 268.105469 1214.421875 268.105469 C 1201.242188 268.105469 1190.425781 264.5625 1181.96875 257.476562 C 1173.515625 250.386719 1168.542969 240.6875 1167.050781 228.378906 L 1189.800781 228.378906 C 1190.546875 234.347656 1193.035156 239.007812 1197.261719 242.367188 C 1201.613281 245.722656 1207.332031 247.402344 1214.421875 247.402344 C 1222.253906 247.402344 1228.46875 245.101562 1233.070312 240.5 C 1237.792969 236.023438 1240.15625 229.933594 1240.15625 222.222656 L 1240.15625 199.28125 L 1242.765625 201.707031 C 1240.53125 207.550781 1236.425781 212.210938 1230.457031 215.695312 C 1224.492188 219.175781 1217.589844 220.917969 1209.757812 220.917969 C 1201.054688 220.917969 1193.46875 218.925781 1187.003906 214.949219 C 1180.539062 210.96875 1175.503906 205.496094 1171.898438 198.535156 C 1168.292969 191.570312 1166.492188 183.613281 1166.492188 174.660156 Z M 1189.429688 174.101562 C 1189.429688 179.324219 1190.425781 183.984375 1192.414062 188.089844 C 1194.527344 192.066406 1197.449219 195.238281 1201.179688 197.601562 C 1204.910156 199.964844 1209.261719 201.144531 1214.234375 201.144531 C 1219.457031 201.144531 1223.929688 200.027344 1227.660156 197.789062 C 1231.515625 195.425781 1234.4375 192.253906 1236.425781 188.277344 C 1238.539062 184.171875 1239.597656 179.445312 1239.597656 174.101562 C 1239.597656 168.753906 1238.601562 164.152344 1236.613281 160.296875 C 1234.625 156.320312 1231.703125 153.210938 1227.847656 150.972656 C 1224.117188 148.734375 1219.578125 147.613281 1214.234375 147.613281 C 1209.136719 147.613281 1204.722656 148.796875 1200.992188 151.15625 C 1197.261719 153.394531 1194.402344 156.503906 1192.414062 160.484375 C 1190.425781 164.464844 1189.429688 169 1189.429688 174.101562 Z M 1189.429688 174.101562 "/><path style=" stroke:none;fill-rule:nonzero;fill:#000000;fill-opacity:1;" d="M 1277.132812 130.640625 L 1334.949219 130.640625 L 1334.949219 149.664062 L 1277.132812 149.664062 Z M 1335.136719 84.941406 L 1335.136719 104.339844 C 1333.890625 104.339844 1332.585938 104.339844 1331.21875 104.339844 C 1329.976562 104.339844 1328.667969 104.339844 1327.300781 104.339844 C 1321.582031 104.339844 1317.730469 105.710938 1315.738281 108.445312 C 1313.875 111.179688 1312.941406 114.847656 1312.941406 119.449219 L 1312.941406 222.78125 L 1290.375 222.78125 L 1290.375 119.449219 C 1290.375 110.992188 1291.742188 104.21875 1294.480469 99.117188 C 1297.214844 93.894531 1301.066406 90.105469 1306.042969 87.742188 C 1311.015625 85.253906 1316.796875 84.011719 1323.386719 84.011719 C 1325.25 84.011719 1327.175781 84.074219 1329.167969 84.195312 C 1331.28125 84.320312 1333.269531 84.570312 1335.136719 84.941406 Z M 1335.136719 84.941406 "/><path style=" stroke:none;fill-rule:nonzero;fill:#000000;fill-opacity:1;" d="M 1411.945312 130.640625 L 1434.699219 130.640625 L 1434.699219 222.78125 L 1413.625 222.78125 L 1411.945312 210.472656 C 1409.210938 214.824219 1405.105469 218.367188 1399.636719 221.101562 C 1394.167969 223.839844 1388.324219 225.207031 1382.105469 225.207031 C 1371.539062 225.207031 1363.269531 221.847656 1357.300781 215.132812 C 1351.335938 208.421875 1348.351562 199.46875 1348.351562 188.277344 L 1348.351562 130.640625 L 1371.101562 130.640625 L 1371.101562 180.253906 C 1371.101562 188.960938 1372.78125 195.238281 1376.136719 199.09375 C 1379.496094 202.949219 1384.34375 204.875 1390.683594 204.875 C 1397.894531 204.875 1403.242188 202.761719 1406.722656 198.535156 C 1410.203125 194.183594 1411.945312 187.652344 1411.945312 178.949219 Z M 1411.945312 130.640625 "/><path style=" stroke:none;fill-rule:nonzero;fill:#000000;fill-opacity:1;" d="M 1458.570312 84.011719 L 1481.136719 84.011719 L 1481.136719 222.78125 L 1458.570312 222.78125 Z M 1458.570312 84.011719 "/><path style=" stroke:none;fill-rule:nonzero;fill:#000000;fill-opacity:1;" d="M 563.144531 267.773438 L 563.144531 404.121094 L 539.273438 404.121094 L 539.273438 267.773438 Z M 593.167969 357.117188 L 557.363281 357.117188 L 557.363281 335.855469 L 588.132812 335.855469 C 596.339844 335.855469 602.554688 333.804688 606.785156 329.699219 C 611.136719 325.472656 613.3125 319.628906 613.3125 312.167969 C 613.3125 304.707031 611.136719 298.984375 606.785156 295.007812 C 602.554688 291.027344 596.464844 289.039062 588.507812 289.039062 L 555.125 289.039062 L 555.125 267.773438 L 593.167969 267.773438 C 602.371094 267.773438 610.328125 269.640625 617.042969 273.371094 C 623.753906 277.101562 628.976562 282.324219 632.707031 289.039062 C 636.4375 295.628906 638.300781 303.398438 638.300781 312.351562 C 638.300781 321.058594 636.4375 328.828125 632.707031 335.667969 C 628.976562 342.382812 623.753906 347.667969 617.042969 351.523438 C 610.328125 355.253906 602.371094 357.117188 593.167969 357.117188 Z M 593.167969 357.117188 "/><path style=" stroke:none;fill-rule:nonzero;fill:#000000;fill-opacity:1;" d="M 655.398438 265.351562 L 677.964844 265.351562 L 677.964844 404.121094 L 655.398438 404.121094 Z M 655.398438 265.351562 "/><path style=" stroke:none;fill-rule:nonzero;fill:#000000;fill-opacity:1;" d="M 729.246094 406.546875 C 719.546875 406.546875 711.839844 403.933594 706.117188 398.710938 C 700.523438 393.367188 697.726562 386.402344 697.726562 377.820312 C 697.726562 369.367188 700.648438 362.652344 706.492188 357.679688 C 712.460938 352.578125 720.914062 349.59375 731.855469 348.726562 L 759.457031 346.488281 L 759.457031 344.433594 C 759.457031 340.207031 758.648438 336.851562 757.03125 334.363281 C 755.539062 331.75 753.363281 329.886719 750.503906 328.765625 C 747.644531 327.523438 744.289062 326.902344 740.433594 326.902344 C 733.71875 326.902344 728.5625 328.269531 724.957031 331.003906 C 721.351562 333.617188 719.546875 337.347656 719.546875 342.195312 L 700.152344 342.195312 C 700.152344 335.480469 701.828125 329.699219 705.1875 324.851562 C 708.667969 319.875 713.515625 316.023438 719.734375 313.285156 C 726.074219 310.550781 733.347656 309.183594 741.554688 309.183594 C 749.882812 309.183594 757.03125 310.675781 763 313.660156 C 768.96875 316.519531 773.570312 320.871094 776.800781 326.714844 C 780.035156 332.433594 781.648438 339.585938 781.648438 348.164062 L 781.648438 404.121094 L 761.695312 404.121094 L 760.015625 390.503906 C 758.027344 395.230469 754.171875 399.085938 748.453125 402.070312 C 742.859375 405.054688 736.457031 406.546875 729.246094 406.546875 Z M 736.519531 389.386719 C 743.605469 389.386719 749.199219 387.398438 753.300781 383.417969 C 757.53125 379.4375 759.644531 373.90625 759.644531 366.816406 L 759.644531 361.96875 L 740.433594 363.460938 C 733.347656 364.082031 728.3125 365.574219 725.328125 367.9375 C 722.34375 370.175781 720.851562 373.160156 720.851562 376.890625 C 720.851562 380.992188 722.21875 384.101562 724.957031 386.214844 C 727.691406 388.328125 731.542969 389.386719 736.519531 389.386719 Z M 736.519531 389.386719 "/><path style=" stroke:none;fill-rule:nonzero;fill:#000000;fill-opacity:1;" d="M 826.757812 404.121094 L 804.003906 404.121094 L 804.003906 311.980469 L 825.078125 311.980469 L 826.941406 323.917969 C 829.800781 319.316406 833.84375 315.710938 839.066406 313.097656 C 844.410156 310.488281 850.191406 309.183594 856.410156 309.183594 C 867.972656 309.183594 876.675781 312.601562 882.519531 319.441406 C 888.488281 326.28125 891.46875 335.605469 891.46875 347.417969 L 891.46875 404.121094 L 868.71875 404.121094 L 868.71875 352.828125 C 868.71875 345.117188 866.976562 339.398438 863.496094 335.667969 C 860.015625 331.8125 855.289062 329.886719 849.324219 329.886719 C 842.234375 329.886719 836.703125 332.125 832.722656 336.601562 C 828.746094 341.078125 826.757812 347.046875 826.757812 354.507812 Z M 826.757812 404.121094 "/><path style=" stroke:none;fill-rule:nonzero;fill:#000000;fill-opacity:1;" d="M 955.039062 406.546875 C 945.964844 406.546875 937.882812 404.496094 930.796875 400.390625 C 923.832031 396.164062 918.363281 390.441406 914.382812 383.230469 C 910.40625 375.894531 908.414062 367.5 908.414062 358.050781 C 908.414062 348.476562 910.34375 340.019531 914.195312 332.683594 C 918.050781 325.347656 923.460938 319.628906 930.421875 315.523438 C 937.386719 311.296875 945.34375 309.183594 954.292969 309.183594 C 963.617188 309.183594 971.636719 311.171875 978.351562 315.152344 C 985.066406 319.007812 990.226562 324.414062 993.832031 331.378906 C 997.5625 338.34375 999.425781 346.671875 999.425781 356.371094 L 999.425781 363.273438 L 920.351562 363.460938 L 920.722656 348.910156 L 976.859375 348.910156 C 976.859375 342.570312 974.808594 337.472656 970.707031 333.617188 C 966.726562 329.761719 961.320312 327.835938 954.480469 327.835938 C 949.132812 327.835938 944.597656 328.953125 940.867188 331.191406 C 937.261719 333.429688 934.523438 336.789062 932.660156 341.265625 C 930.796875 345.742188 929.863281 351.210938 929.863281 357.679688 C 929.863281 367.625 931.976562 375.148438 936.203125 380.246094 C 940.554688 385.34375 946.957031 387.894531 955.414062 387.894531 C 961.628906 387.894531 966.726562 386.710938 970.707031 384.351562 C 974.808594 381.988281 977.480469 378.628906 978.726562 374.277344 L 999.800781 374.277344 C 997.808594 384.351562 992.835938 392.246094 984.878906 397.964844 C 977.046875 403.6875 967.101562 406.546875 955.039062 406.546875 Z M 955.039062 406.546875 "/><path style=" stroke:none;fill-rule:nonzero;fill:#000000;fill-opacity:1;" d="M 1007.589844 311.980469 L 1065.777344 311.980469 L 1065.777344 331.003906 L 1007.589844 331.003906 Z M 1048.058594 404.121094 L 1025.308594 404.121094 L 1025.308594 283.257812 L 1048.058594 283.257812 Z M 1048.058594 404.121094 "/><g clip-rule="nonzero" clip-path="url(#75fecd2f82)"><path style=" stroke:none;fill-rule:nonzero;fill:#032d10;fill-opacity:1;" d="M 101.777344 420.3125 C 140.105469 449.925781 188.167969 467.472656 240.304688 467.257812 C 260.996094 465.441406 281.929688 461.570312 301.144531 454.640625 C 319.933594 447.882812 337.167969 438.15625 350.804688 424.441406 C 368.589844 406.613281 376.160156 389.183594 375.996094 374.691406 C 375.824219 359.945312 367.414062 348.742188 353.839844 343.277344 C 339.5 337.648438 319.566406 338.269531 296.453125 348.542969 C 282.605469 354.671875 267.824219 362.515625 252.371094 370.695312 C 204.726562 395.851562 151.46875 424.027344 101.785156 420.304688 Z M 101.777344 420.3125 "/></g><g clip-rule="nonzero" clip-path="url(#efce7d6d71)"><path style=" stroke:none;fill-rule:nonzero;fill:#256751;fill-opacity:1;" d="M 203.105469 19.382812 C 154.933594 27.242188 112.046875 50.242188 79.261719 83.414062 C 51.734375 111.355469 31.316406 146.421875 21.316406 185.601562 C 29.109375 177.289062 38.007812 170.082031 47.605469 164.570312 C 78.347656 147.09375 111.117188 142.132812 143.796875 137.257812 C 172.824219 132.914062 201.675781 128.488281 226.304688 114.886719 C 246.257812 103.859375 258.953125 88.359375 263.886719 72.820312 C 266.484375 64.710938 266.949219 56.78125 265.117188 49.628906 C 263.375 42.816406 259.59375 36.617188 253.519531 31.707031 C 243.25 23.246094 226.605469 18.226562 203.105469 19.382812 Z M 203.105469 19.382812 "/></g><g clip-rule="nonzero" clip-path="url(#fa0cb6bf2f)"><path style=" stroke:none;fill-rule:nonzero;fill:#032d10;fill-opacity:1;" d="M 455.90625 179.136719 C 445.042969 141.695312 424.835938 108.222656 397.847656 81.617188 C 367.777344 51.871094 329.328125 30.523438 286.425781 21.386719 C 290.71875 27.671875 293.738281 34.640625 295.570312 41.960938 C 298.878906 54.8125 298.195312 68.710938 293.84375 82.371094 C 286.644531 104.996094 268.878906 127.175781 241.535156 142.414062 C 211.8125 158.863281 180.152344 163.5625 148.40625 168.34375 C 118.695312 172.859375 88.824219 177.289062 63.183594 192.007812 C 12.429688 209.945312 -12.980469 311.511719 67.941406 310.289062 C 125.941406 308.679688 163.839844 275.734375 201.902344 242.617188 L 205.210938 239.703125 C 227.5 220.3125 252.953125 200.394531 280.546875 184.644531 C 308.910156 168.460938 339.59375 156.691406 371.441406 154.382812 C 378.679688 153.832031 385.667969 153.789062 392.484375 154.269531 C 416.6875 156.003906 438.625 163.890625 455.917969 179.136719 Z M 455.90625 179.136719 "/></g><g clip-rule="nonzero" clip-path="url(#21818cd047)"><path style=" stroke:none;fill-rule:nonzero;fill:#256751;fill-opacity:1;" d="M 404.648438 395.15625 C 436.484375 360.792969 463.800781 310.351562 460.375 262.210938 C 458.441406 236.226562 450.15625 217.523438 437.816406 205.320312 C 425.648438 193.28125 409.003906 186.988281 390.34375 185.730469 C 384.886719 185.335938 379.351562 185.367188 373.730469 185.738281 C 347.078125 187.679688 320.816406 197.886719 296.105469 212.003906 C 270.546875 226.640625 246.71875 245.269531 225.777344 263.539062 L 222.386719 266.460938 C 180.171875 303.183594 138.125 339.726562 68.796875 341.65625 C 56.191406 341.984375 45.28125 340.765625 35.726562 338.089844 C 38.054688 343.023438 40.550781 347.953125 43.21875 352.625 C 94.703125 418.5625 172.25 377.550781 237.644531 342.914062 C 253.867188 334.382812 269.410156 326.117188 283.683594 319.808594 C 315.210938 305.820312 343.914062 305.488281 365.515625 314.0625 C 390.957031 324.234375 407.105469 346.8125 407.34375 374.34375 C 407.464844 381.074219 406.570312 387.988281 404.648438 395.15625 Z M 404.648438 395.15625 "/></g></g></svg>