<svg xmlns="http://www.w3.org/2000/svg" xmlns:xlink="http://www.w3.org/1999/xlink" width="2000" zoomAndPan="magnify" viewBox="0 0 1500 487.499991" height="650" preserveAspectRatio="xMidYMid meet" version="1.2"><defs><clipPath id="be14d6b716"><path d="M 101 339 L 376 339 L 376 467.257812 L 101 467.257812 Z M 101 339 "/></clipPath><clipPath id="062bcbf2fa"><path d="M 21 19.21875 L 267 19.21875 L 267 186 L 21 186 Z M 21 19.21875 "/></clipPath><clipPath id="816885d7d9"><path d="M 15.753906 21 L 456 21 L 456 311 L 15.753906 311 Z M 15.753906 21 "/></clipPath><clipPath id="1a9274117e"><path d="M 35 185 L 460.796875 185 L 460.796875 396 L 35 396 Z M 35 185 "/></clipPath></defs><g id="107c4378fb"><path style=" stroke:none;fill-rule:nonzero;fill:#ffffff;fill-opacity:1;" d="M 562.460938 222.742188 L 539.335938 222.742188 L 539.335938 86.414062 L 562.460938 86.414062 L 606.472656 194.953125 L 650.484375 86.414062 L 673.984375 86.414062 L 673.984375 222.742188 L 650.859375 222.742188 L 650.859375 180.78125 C 650.859375 173.941406 650.859375 168.222656 650.859375 163.625 C 650.859375 158.898438 650.921875 154.921875 651.046875 151.6875 C 651.167969 148.453125 651.292969 145.59375 651.417969 143.109375 C 651.542969 140.621094 651.792969 138.136719 652.164062 135.648438 L 617.476562 222.742188 L 595.46875 222.742188 L 560.96875 135.835938 C 561.589844 139.9375 561.960938 145.160156 562.085938 151.5 C 562.335938 157.839844 562.460938 165.300781 562.460938 173.878906 Z M 562.460938 222.742188 "/><path style=" stroke:none;fill-rule:nonzero;fill:#ffffff;fill-opacity:1;" d="M 742.015625 225.167969 C 732.9375 225.167969 724.855469 223.117188 717.769531 219.011719 C 710.808594 214.785156 705.335938 209.066406 701.359375 201.855469 C 697.378906 194.519531 695.390625 186.128906 695.390625 176.679688 C 695.390625 167.105469 697.316406 158.648438 701.171875 151.3125 C 705.027344 143.980469 710.433594 138.257812 717.398438 134.15625 C 724.359375 129.929688 732.316406 127.816406 741.269531 127.816406 C 750.59375 127.816406 758.613281 129.804688 765.328125 133.785156 C 772.039062 137.636719 777.199219 143.046875 780.804688 150.007812 C 784.535156 156.972656 786.402344 165.300781 786.402344 175 L 786.402344 181.898438 L 707.324219 182.085938 L 707.699219 167.539062 L 763.835938 167.539062 C 763.835938 161.199219 761.78125 156.101562 757.679688 152.246094 C 753.703125 148.394531 748.292969 146.464844 741.453125 146.464844 C 736.109375 146.464844 731.570312 147.585938 727.839844 149.824219 C 724.234375 152.058594 721.5 155.417969 719.632812 159.894531 C 717.769531 164.367188 716.835938 169.839844 716.835938 176.304688 C 716.835938 186.25 718.949219 193.773438 723.179688 198.871094 C 727.53125 203.96875 733.933594 206.515625 742.386719 206.515625 C 748.605469 206.515625 753.703125 205.335938 757.679688 202.972656 C 761.78125 200.613281 764.457031 197.253906 765.699219 192.902344 L 786.773438 192.902344 C 784.785156 202.972656 779.8125 210.867188 771.855469 216.589844 C 764.019531 222.308594 754.074219 225.167969 742.015625 225.167969 Z M 742.015625 225.167969 "/><path style=" stroke:none;fill-rule:nonzero;fill:#ffffff;fill-opacity:1;" d="M 831.117188 225.167969 C 821.421875 225.167969 813.710938 222.554688 807.992188 217.335938 C 802.398438 211.988281 799.601562 205.023438 799.601562 196.445312 C 799.601562 187.992188 802.523438 181.277344 808.367188 176.304688 C 814.332031 171.207031 822.789062 168.222656 833.730469 167.351562 L 861.332031 165.113281 L 861.332031 163.0625 C 861.332031 158.835938 860.523438 155.480469 858.90625 152.992188 C 857.414062 150.382812 855.238281 148.515625 852.378906 147.398438 C 849.519531 146.15625 846.164062 145.53125 842.308594 145.53125 C 835.59375 145.53125 830.433594 146.902344 826.828125 149.636719 C 823.222656 152.246094 821.421875 155.976562 821.421875 160.824219 L 802.023438 160.824219 C 802.023438 154.113281 803.703125 148.332031 807.058594 143.480469 C 810.542969 138.507812 815.390625 134.652344 821.605469 131.917969 C 827.949219 129.183594 835.222656 127.816406 843.425781 127.816406 C 851.757812 127.816406 858.90625 129.308594 864.875 132.292969 C 870.84375 135.152344 875.441406 139.503906 878.675781 145.347656 C 881.90625 151.066406 883.523438 158.214844 883.523438 166.792969 L 883.523438 222.742188 L 863.570312 222.742188 L 861.890625 209.128906 C 859.902344 213.851562 856.046875 217.707031 850.328125 220.691406 C 844.730469 223.675781 838.328125 225.167969 831.117188 225.167969 Z M 838.390625 208.007812 C 845.476562 208.007812 851.074219 206.019531 855.175781 202.042969 C 859.402344 198.0625 861.515625 192.53125 861.515625 185.441406 L 861.515625 180.59375 L 842.308594 182.085938 C 835.222656 182.707031 830.1875 184.199219 827.203125 186.5625 C 824.21875 188.800781 822.726562 191.785156 822.726562 195.515625 C 822.726562 199.617188 824.09375 202.726562 826.828125 204.839844 C 829.5625 206.953125 833.417969 208.007812 838.390625 208.007812 Z M 838.390625 208.007812 "/><path style=" stroke:none;fill-rule:nonzero;fill:#ffffff;fill-opacity:1;" d="M 928.625 222.742188 L 905.871094 222.742188 L 905.871094 130.613281 L 926.945312 130.613281 L 928.8125 142.550781 C 931.671875 137.949219 935.710938 134.34375 940.933594 131.730469 C 946.28125 129.121094 952.0625 127.816406 958.277344 127.816406 C 969.839844 127.816406 978.542969 131.234375 984.386719 138.074219 C 990.355469 144.910156 993.339844 154.234375 993.339844 166.046875 L 993.339844 222.742188 L 970.585938 222.742188 L 970.585938 171.457031 C 970.585938 163.746094 968.84375 158.027344 965.363281 154.296875 C 961.882812 150.445312 957.160156 148.515625 951.191406 148.515625 C 944.105469 148.515625 938.570312 150.753906 934.59375 155.230469 C 930.613281 159.707031 928.625 165.675781 928.625 173.132812 Z M 928.625 222.742188 "/><path style=" stroke:none;fill-rule:nonzero;fill:#ffffff;fill-opacity:1;" d="M 1015.699219 222.742188 L 1015.699219 130.613281 L 1038.449219 130.613281 L 1038.449219 222.742188 Z M 1026.886719 112.148438 C 1023.035156 112.148438 1019.738281 110.84375 1017.003906 108.234375 C 1014.390625 105.5 1013.085938 102.203125 1013.085938 98.347656 C 1013.085938 94.496094 1014.390625 91.261719 1017.003906 88.652344 C 1019.738281 86.039062 1023.035156 84.734375 1026.886719 84.734375 C 1030.742188 84.734375 1033.972656 86.039062 1036.585938 88.652344 C 1039.320312 91.261719 1040.6875 94.496094 1040.6875 98.347656 C 1040.6875 102.203125 1039.320312 105.5 1036.585938 108.234375 C 1033.972656 110.84375 1030.742188 112.148438 1026.886719 112.148438 Z M 1026.886719 112.148438 "/><path style=" stroke:none;fill-rule:nonzero;fill:#ffffff;fill-opacity:1;" d="M 1084.707031 222.742188 L 1061.953125 222.742188 L 1061.953125 130.613281 L 1083.027344 130.613281 L 1084.894531 142.550781 C 1087.753906 137.949219 1091.792969 134.34375 1097.015625 131.730469 C 1102.363281 129.121094 1108.144531 127.816406 1114.359375 127.816406 C 1125.921875 127.816406 1134.625 131.234375 1140.46875 138.074219 C 1146.4375 144.910156 1149.421875 154.234375 1149.421875 166.046875 L 1149.421875 222.742188 L 1126.667969 222.742188 L 1126.667969 171.457031 C 1126.667969 163.746094 1124.925781 158.027344 1121.445312 154.296875 C 1117.964844 150.445312 1113.242188 148.515625 1107.273438 148.515625 C 1100.1875 148.515625 1094.652344 150.753906 1090.675781 155.230469 C 1086.695312 159.707031 1084.707031 165.675781 1084.707031 173.132812 Z M 1084.707031 222.742188 "/><path style=" stroke:none;fill-rule:nonzero;fill:#ffffff;fill-opacity:1;" d="M 1166.550781 174.625 C 1166.550781 165.675781 1168.355469 157.71875 1171.960938 150.753906 C 1175.691406 143.667969 1180.851562 138.074219 1187.441406 133.96875 C 1194.03125 129.867188 1201.675781 127.816406 1210.378906 127.816406 C 1218.210938 127.816406 1224.925781 129.554688 1230.519531 133.039062 C 1236.117188 136.394531 1240.03125 141.121094 1242.269531 147.210938 L 1239.84375 149.261719 L 1241.710938 130.613281 L 1262.785156 130.613281 L 1262.785156 218.078125 C 1262.785156 228.273438 1260.796875 237.101562 1256.816406 244.5625 C 1252.960938 252.148438 1247.429688 257.929688 1240.21875 261.90625 C 1233.132812 266.007812 1224.554688 268.0625 1214.480469 268.0625 C 1201.304688 268.0625 1190.484375 264.519531 1182.03125 257.429688 C 1173.578125 250.34375 1168.605469 240.644531 1167.113281 228.335938 L 1189.863281 228.335938 C 1190.609375 234.304688 1193.097656 238.96875 1197.324219 242.324219 C 1201.675781 245.679688 1207.394531 247.359375 1214.480469 247.359375 C 1222.316406 247.359375 1228.53125 245.058594 1233.132812 240.460938 C 1237.855469 235.984375 1240.21875 229.890625 1240.21875 222.183594 L 1240.21875 199.242188 L 1242.828125 201.667969 C 1240.589844 207.511719 1236.488281 212.175781 1230.519531 215.65625 C 1224.554688 219.136719 1217.652344 220.878906 1209.820312 220.878906 C 1201.117188 220.878906 1193.53125 218.886719 1187.066406 214.910156 C 1180.601562 210.929688 1175.566406 205.460938 1171.960938 198.496094 C 1168.355469 191.535156 1166.550781 183.578125 1166.550781 174.625 Z M 1189.492188 174.066406 C 1189.492188 179.289062 1190.484375 183.953125 1192.476562 188.054688 C 1194.589844 192.03125 1197.511719 195.203125 1201.242188 197.566406 C 1204.972656 199.929688 1209.324219 201.109375 1214.296875 201.109375 C 1219.515625 201.109375 1223.992188 199.988281 1227.722656 197.753906 C 1231.578125 195.390625 1234.5 192.21875 1236.488281 188.242188 C 1238.601562 184.136719 1239.660156 179.414062 1239.660156 174.066406 C 1239.660156 168.722656 1238.664062 164.121094 1236.675781 160.265625 C 1234.6875 156.289062 1231.765625 153.179688 1227.910156 150.941406 C 1224.179688 148.703125 1219.640625 147.585938 1214.296875 147.585938 C 1209.199219 147.585938 1204.785156 148.765625 1201.054688 151.128906 C 1197.324219 153.367188 1194.464844 156.472656 1192.476562 160.453125 C 1190.484375 164.429688 1189.492188 168.96875 1189.492188 174.066406 Z M 1189.492188 174.066406 "/><path style=" stroke:none;fill-rule:nonzero;fill:#ffffff;fill-opacity:1;" d="M 1277.195312 130.613281 L 1335.011719 130.613281 L 1335.011719 149.636719 L 1277.195312 149.636719 Z M 1335.195312 84.921875 L 1335.195312 104.316406 C 1333.953125 104.316406 1332.648438 104.316406 1331.28125 104.316406 C 1330.039062 104.316406 1328.730469 104.316406 1327.363281 104.316406 C 1321.644531 104.316406 1317.789062 105.683594 1315.800781 108.421875 C 1313.9375 111.15625 1313.003906 114.824219 1313.003906 119.421875 L 1313.003906 222.742188 L 1290.4375 222.742188 L 1290.4375 119.421875 C 1290.4375 110.96875 1291.804688 104.191406 1294.539062 99.09375 C 1297.277344 93.875 1301.128906 90.082031 1306.105469 87.71875 C 1311.078125 85.234375 1316.859375 83.988281 1323.449219 83.988281 C 1325.3125 83.988281 1327.238281 84.050781 1329.230469 84.175781 C 1331.34375 84.300781 1333.332031 84.546875 1335.195312 84.921875 Z M 1335.195312 84.921875 "/><path style=" stroke:none;fill-rule:nonzero;fill:#ffffff;fill-opacity:1;" d="M 1412.007812 130.613281 L 1434.761719 130.613281 L 1434.761719 222.742188 L 1413.6875 222.742188 L 1412.007812 210.433594 C 1409.273438 214.785156 1405.167969 218.328125 1399.699219 221.0625 C 1394.226562 223.800781 1388.382812 225.167969 1382.167969 225.167969 C 1371.601562 225.167969 1363.332031 221.808594 1357.363281 215.097656 C 1351.394531 208.382812 1348.414062 199.429688 1348.414062 188.242188 L 1348.414062 130.613281 L 1371.164062 130.613281 L 1371.164062 180.222656 C 1371.164062 188.925781 1372.84375 195.203125 1376.199219 199.058594 C 1379.558594 202.910156 1384.40625 204.839844 1390.746094 204.839844 C 1397.957031 204.839844 1403.304688 202.726562 1406.785156 198.496094 C 1410.265625 194.144531 1412.007812 187.617188 1412.007812 178.914062 Z M 1412.007812 130.613281 "/><path style=" stroke:none;fill-rule:nonzero;fill:#ffffff;fill-opacity:1;" d="M 1458.632812 83.988281 L 1481.199219 83.988281 L 1481.199219 222.742188 L 1458.632812 222.742188 Z M 1458.632812 83.988281 "/><path style=" stroke:none;fill-rule:nonzero;fill:#ffffff;fill-opacity:1;" d="M 563.207031 267.730469 L 563.207031 404.058594 L 539.335938 404.058594 L 539.335938 267.730469 Z M 593.230469 357.0625 L 557.425781 357.0625 L 557.425781 335.800781 L 588.195312 335.800781 C 596.402344 335.800781 602.617188 333.75 606.847656 329.644531 C 611.199219 325.417969 613.375 319.574219 613.375 312.117188 C 613.375 304.65625 611.199219 298.9375 606.847656 294.957031 C 602.617188 290.980469 596.527344 288.988281 588.570312 288.988281 L 555.1875 288.988281 L 555.1875 267.730469 L 593.230469 267.730469 C 602.433594 267.730469 610.390625 269.59375 617.101562 273.324219 C 623.816406 277.054688 629.039062 282.277344 632.769531 288.988281 C 636.5 295.578125 638.363281 303.351562 638.363281 312.300781 C 638.363281 321.003906 636.5 328.777344 632.769531 335.613281 C 629.039062 342.328125 623.816406 347.613281 617.101562 351.464844 C 610.390625 355.195312 602.433594 357.0625 593.230469 357.0625 Z M 593.230469 357.0625 "/><path style=" stroke:none;fill-rule:nonzero;fill:#ffffff;fill-opacity:1;" d="M 655.460938 265.304688 L 678.023438 265.304688 L 678.023438 404.058594 L 655.460938 404.058594 Z M 655.460938 265.304688 "/><path style=" stroke:none;fill-rule:nonzero;fill:#ffffff;fill-opacity:1;" d="M 729.308594 406.484375 C 719.609375 406.484375 711.898438 403.871094 706.179688 398.648438 C 700.585938 393.304688 697.789062 386.339844 697.789062 377.761719 C 697.789062 369.308594 700.710938 362.59375 706.554688 357.621094 C 712.523438 352.523438 720.976562 349.539062 731.917969 348.667969 L 759.519531 346.429688 L 759.519531 344.378906 C 759.519531 340.152344 758.710938 336.796875 757.09375 334.308594 C 755.601562 331.699219 753.425781 329.832031 750.566406 328.714844 C 747.707031 327.46875 744.351562 326.847656 740.496094 326.847656 C 733.78125 326.847656 728.621094 328.214844 725.015625 330.953125 C 721.410156 333.5625 719.609375 337.292969 719.609375 342.140625 L 700.214844 342.140625 C 700.214844 335.429688 701.890625 329.644531 705.25 324.796875 C 708.730469 319.824219 713.578125 315.96875 719.796875 313.234375 C 726.136719 310.5 733.410156 309.132812 741.617188 309.132812 C 749.945312 309.132812 757.09375 310.625 763.0625 313.609375 C 769.03125 316.46875 773.628906 320.820312 776.863281 326.664062 C 780.097656 332.382812 781.710938 339.53125 781.710938 348.109375 L 781.710938 404.058594 L 761.757812 404.058594 L 760.078125 390.445312 C 758.089844 395.167969 754.234375 399.023438 748.515625 402.007812 C 742.921875 404.992188 736.519531 406.484375 729.308594 406.484375 Z M 736.578125 389.324219 C 743.667969 389.324219 749.261719 387.335938 753.363281 383.355469 C 757.59375 379.378906 759.707031 373.847656 759.707031 366.757812 L 759.707031 361.910156 L 740.496094 363.402344 C 733.410156 364.023438 728.375 365.515625 725.390625 367.878906 C 722.40625 370.117188 720.914062 373.101562 720.914062 376.828125 C 720.914062 380.933594 722.28125 384.042969 725.015625 386.15625 C 727.753906 388.269531 731.605469 389.324219 736.578125 389.324219 Z M 736.578125 389.324219 "/><path style=" stroke:none;fill-rule:nonzero;fill:#ffffff;fill-opacity:1;" d="M 826.816406 404.058594 L 804.066406 404.058594 L 804.066406 311.929688 L 825.140625 311.929688 L 827.003906 323.863281 C 829.863281 319.265625 833.90625 315.660156 839.128906 313.046875 C 844.472656 310.4375 850.253906 309.132812 856.472656 309.132812 C 868.035156 309.132812 876.738281 312.550781 882.582031 319.390625 C 888.546875 326.226562 891.53125 335.550781 891.53125 347.363281 L 891.53125 404.058594 L 868.78125 404.058594 L 868.78125 352.773438 C 868.78125 345.0625 867.039062 339.34375 863.558594 335.613281 C 860.078125 331.761719 855.351562 329.832031 849.382812 329.832031 C 842.296875 329.832031 836.765625 332.070312 832.785156 336.546875 C 828.808594 341.023438 826.816406 346.992188 826.816406 354.449219 Z M 826.816406 404.058594 "/><path style=" stroke:none;fill-rule:nonzero;fill:#ffffff;fill-opacity:1;" d="M 955.101562 406.484375 C 946.027344 406.484375 937.945312 404.429688 930.855469 400.328125 C 923.894531 396.101562 918.425781 390.382812 914.445312 383.171875 C 910.46875 375.835938 908.476562 367.441406 908.476562 357.992188 C 908.476562 348.421875 910.40625 339.964844 914.257812 332.628906 C 918.113281 325.292969 923.523438 319.574219 930.484375 315.472656 C 937.445312 311.246094 945.402344 309.132812 954.355469 309.132812 C 963.679688 309.132812 971.699219 311.121094 978.414062 315.101562 C 985.128906 318.953125 990.289062 324.363281 993.894531 331.324219 C 997.625 338.289062 999.488281 346.617188 999.488281 356.316406 L 999.488281 363.214844 L 920.414062 363.402344 L 920.785156 348.855469 L 976.921875 348.855469 C 976.921875 342.515625 974.871094 337.417969 970.769531 333.5625 C 966.789062 329.707031 961.378906 327.78125 954.542969 327.78125 C 949.195312 327.78125 944.65625 328.898438 940.929688 331.136719 C 937.324219 333.375 934.585938 336.734375 932.722656 341.210938 C 930.855469 345.683594 929.925781 351.15625 929.925781 357.621094 C 929.925781 367.566406 932.039062 375.089844 936.265625 380.1875 C 940.617188 385.285156 947.019531 387.832031 955.476562 387.832031 C 961.691406 387.832031 966.789062 386.652344 970.769531 384.289062 C 974.871094 381.925781 977.542969 378.570312 978.785156 374.21875 L 999.859375 374.21875 C 997.871094 384.289062 992.898438 392.183594 984.941406 397.902344 C 977.109375 403.625 967.160156 406.484375 955.101562 406.484375 Z M 955.101562 406.484375 "/><path style=" stroke:none;fill-rule:nonzero;fill:#ffffff;fill-opacity:1;" d="M 1007.652344 311.929688 L 1065.839844 311.929688 L 1065.839844 330.953125 L 1007.652344 330.953125 Z M 1048.121094 404.058594 L 1025.371094 404.058594 L 1025.371094 283.207031 L 1048.121094 283.207031 Z M 1048.121094 404.058594 "/><g clip-rule="nonzero" clip-path="url(#be14d6b716)"><path style=" stroke:none;fill-rule:nonzero;fill:#ffffff;fill-opacity:1;" d="M 101.777344 420.3125 C 140.105469 449.925781 188.167969 467.472656 240.304688 467.257812 C 260.996094 465.441406 281.929688 461.570312 301.144531 454.640625 C 319.933594 447.882812 337.167969 438.15625 350.804688 424.441406 C 368.589844 406.613281 376.160156 389.183594 375.996094 374.691406 C 375.824219 359.945312 367.414062 348.742188 353.839844 343.277344 C 339.5 337.648438 319.566406 338.269531 296.453125 348.542969 C 282.605469 354.671875 267.824219 362.515625 252.371094 370.695312 C 204.726562 395.851562 151.46875 424.027344 101.785156 420.304688 Z M 101.777344 420.3125 "/></g><g clip-rule="nonzero" clip-path="url(#062bcbf2fa)"><path style=" stroke:none;fill-rule:nonzero;fill:#ffffff;fill-opacity:1;" d="M 203.105469 19.382812 C 154.933594 27.242188 112.046875 50.242188 79.261719 83.414062 C 51.734375 111.355469 31.316406 146.421875 21.316406 185.601562 C 29.109375 177.289062 38.007812 170.082031 47.605469 164.570312 C 78.347656 147.09375 111.117188 142.132812 143.796875 137.257812 C 172.824219 132.914062 201.675781 128.488281 226.304688 114.886719 C 246.257812 103.859375 258.953125 88.359375 263.886719 72.820312 C 266.484375 64.710938 266.949219 56.78125 265.117188 49.628906 C 263.375 42.816406 259.59375 36.617188 253.519531 31.707031 C 243.25 23.246094 226.605469 18.226562 203.105469 19.382812 Z M 203.105469 19.382812 "/></g><g clip-rule="nonzero" clip-path="url(#816885d7d9)"><path style=" stroke:none;fill-rule:nonzero;fill:#ffffff;fill-opacity:1;" d="M 455.90625 179.136719 C 445.042969 141.695312 424.835938 108.222656 397.847656 81.617188 C 367.777344 51.871094 329.328125 30.523438 286.425781 21.386719 C 290.71875 27.671875 293.738281 34.640625 295.570312 41.960938 C 298.878906 54.8125 298.195312 68.710938 293.84375 82.371094 C 286.644531 104.996094 268.878906 127.175781 241.535156 142.414062 C 211.8125 158.863281 180.152344 163.5625 148.40625 168.34375 C 118.695312 172.859375 88.824219 177.289062 63.183594 192.007812 C 12.429688 209.945312 -12.980469 311.511719 67.941406 310.289062 C 125.941406 308.679688 163.839844 275.734375 201.902344 242.617188 L 205.210938 239.703125 C 227.5 220.3125 252.953125 200.394531 280.546875 184.644531 C 308.910156 168.460938 339.59375 156.691406 371.441406 154.382812 C 378.679688 153.832031 385.667969 153.789062 392.484375 154.269531 C 416.6875 156.003906 438.625 163.890625 455.917969 179.136719 Z M 455.90625 179.136719 "/></g><g clip-rule="nonzero" clip-path="url(#1a9274117e)"><path style=" stroke:none;fill-rule:nonzero;fill:#ffffff;fill-opacity:1;" d="M 404.648438 395.15625 C 436.484375 360.792969 463.800781 310.351562 460.375 262.210938 C 458.441406 236.226562 450.15625 217.523438 437.816406 205.320312 C 425.648438 193.28125 409.003906 186.988281 390.34375 185.730469 C 384.886719 185.335938 379.351562 185.367188 373.730469 185.738281 C 347.078125 187.679688 320.816406 197.886719 296.105469 212.003906 C 270.546875 226.640625 246.71875 245.269531 225.777344 263.539062 L 222.386719 266.460938 C 180.171875 303.183594 138.125 339.726562 68.796875 341.65625 C 56.191406 341.984375 45.28125 340.765625 35.726562 338.089844 C 38.054688 343.023438 40.550781 347.953125 43.21875 352.625 C 94.703125 418.5625 172.25 377.550781 237.644531 342.914062 C 253.867188 334.382812 269.410156 326.117188 283.683594 319.808594 C 315.210938 305.820312 343.914062 305.488281 365.515625 314.0625 C 390.957031 324.234375 407.105469 346.8125 407.34375 374.34375 C 407.464844 381.074219 406.570312 387.988281 404.648438 395.15625 Z M 404.648438 395.15625 "/></g></g></svg>