<svg width="4032" height="1202" viewBox="0 0 4032 1202" fill="none" xmlns="http://www.w3.org/2000/svg">
<g clip-path="url(#clip0_120_141)">
<path fill-rule="evenodd" clip-rule="evenodd" d="M2217.88 164.454L2151.84 163.179L2047.32 258.756L1913.3 296.225L1715.53 349.55L1512.84 378.869L1452.41 371.564L1402.63 344.379L1341.6 315.576L1296.01 309.489V394.911L1337.4 425.491L1537.38 511.93L1970.65 451.115L2335.34 388.265L2543.08 355.021L2735.99 180.825V53.3643L2537 0.369141L2259.98 131.21L2217.88 164.454Z" fill="#F7FAC5"/>
<path fill-rule="evenodd" clip-rule="evenodd" d="M2922.15 163.179L3026.68 258.756L3160.69 296.225L3358.47 349.55L3561.15 378.869L3621.58 371.565L3671.36 344.379H3722L3795.5 371.565L3777.98 394.911L3736.6 425.491L3536.61 511.93L3103.34 451.115L2738.65 388.265L2530.91 355.021L2338 180.825L2393 124.603L2536.99 0.369141L2823.5 73.5609L2922.15 163.179Z" fill="#F7FAC5"/>
<path fill-rule="evenodd" clip-rule="evenodd" d="M556.871 325.218L490.831 323.943L386.309 419.521L252.296 456.99L54.5192 510.315L-148.168 539.634L-208.597 532.329L-258.374 505.144L-319.403 476.34L-365 470.253V555.676L-323.612 586.255L-123.63 672.695L309.647 611.879L674.335 549.03L882.076 515.786L1074.99 341.589V214.129L875.992 161.134L598.975 291.974L556.871 325.218Z" fill="#F7FAC5"/>
<path fill-rule="evenodd" clip-rule="evenodd" d="M1261.15 323.943L1365.67 419.521L1499.68 456.99L1697.46 510.315L1900.14 539.634L1960.57 532.329L2010.35 505.144L2071.38 476.34L2116.98 470.253V555.676L2075.59 586.255L1875.61 672.695L1442.33 611.879L1077.64 549.03L869.9 515.786L676.991 341.589L731.992 285.368L875.985 161.134L1162.49 234.325L1261.15 323.943Z" fill="#F7FAC5"/>
<path fill-rule="evenodd" clip-rule="evenodd" d="M2609.63 145.46L2587.51 181.168L2510.09 190.907L2402.64 167.102L2342.6 180.093L2301.53 220.126L2250.96 272.061L2208.3 280.713C2208.3 280.713 2204.61 280.655 2198.98 280.655C2195.99 274.496 2191.48 267.464 2185.42 259.572C2188.36 261.548 2191.7 263.21 2195.42 264.528C2189.18 258.755 2185 253.284 2182.88 248.099C2186.25 249.746 2189.06 251.823 2191.29 254.315C2190.19 248.242 2186.37 239.734 2179.81 228.792C2179.81 228.792 2181.7 230.281 2185.47 233.275L2177.67 207.178V206.863L2177.62 207.021L2177.58 206.863V207.235L2169.78 233.275C2173.54 230.281 2175.43 228.792 2175.43 228.792C2168.88 239.72 2165.05 248.228 2163.95 254.315C2166.18 251.823 2168.99 249.746 2172.37 248.099C2170.25 253.284 2166.07 258.755 2159.83 264.528C2163.55 263.195 2166.89 261.548 2169.82 259.572C2163.12 268.323 2158.3 276.015 2155.36 282.618C2149.49 283.377 2145.05 284.436 2143.48 285.883C2136.79 292.028 2034.03 289.621 2034.03 289.621L1912.7 260.359L1531.46 384.383L1429.08 342.831L1296.01 262.322V423.556L1344.02 489.571L2499.02 456.026L2735.99 428.97V50.6418L2609.63 145.46ZM2162.03 281.916C2159.8 282.102 2157.68 282.331 2155.7 282.574C2159.14 279.28 2162.48 277.203 2165.73 276.33C2164.52 278.278 2163.29 280.14 2162.03 281.916ZM2192.34 280.698C2191.38 279.295 2190.44 277.834 2189.49 276.33C2192.05 277.017 2194.67 278.478 2197.36 280.67C2195.8 280.67 2194.11 280.684 2192.34 280.698Z" fill="#EAF5A4"/>
<path fill-rule="evenodd" clip-rule="evenodd" d="M-17.6175 145.46L4.50092 181.168L81.9225 190.907L189.365 167.102L249.407 180.093L290.48 220.126L341.044 272.061L383.706 280.713C383.706 280.713 387.4 280.655 393.026 280.655C396.018 274.496 400.527 267.464 406.583 259.572C403.648 261.548 400.313 263.21 396.591 264.528C402.832 258.755 407.013 253.284 409.131 248.099C405.753 249.746 402.947 251.823 400.714 254.315C401.816 248.242 405.638 239.734 412.195 228.792C412.195 228.792 410.305 230.281 406.54 233.275L414.343 207.178V206.863L414.385 207.021L414.428 206.863V207.235L422.231 233.275C418.466 230.281 416.576 228.792 416.576 228.792C423.133 239.72 426.955 248.228 428.057 254.315C425.824 251.823 423.018 249.746 419.639 248.099C421.758 253.284 425.939 258.755 432.18 264.528C428.458 263.195 425.123 261.548 422.188 259.572C428.888 268.323 433.712 276.015 436.647 282.618C442.517 283.377 446.955 284.436 448.529 285.883C455.215 292.028 557.976 289.621 557.976 289.621L679.305 260.359L1060.54 384.383L1162.93 342.831L1296 262.322V423.556L1247.98 489.571L92.9888 456.026L-143.986 428.97V50.6418L-17.6175 145.46ZM429.976 281.916C432.209 282.102 434.328 282.331 436.303 282.574C432.868 279.28 429.532 277.203 426.282 276.33C427.485 278.278 428.716 280.14 429.976 281.916ZM399.668 280.698C400.628 279.295 401.573 277.834 402.517 276.33C399.955 277.017 397.335 278.478 394.644 280.67C396.204 280.67 397.893 280.684 399.668 280.698Z" fill="#EAF5A4"/>
<path fill-rule="evenodd" clip-rule="evenodd" d="M2862.38 145.46L2884.5 181.168L2961.92 190.907L3069.36 167.102L3129.41 180.093L3170.48 220.126L3221.04 272.061L3263.71 280.713C3263.71 280.713 3267.4 280.655 3273.03 280.655C3276.02 274.496 3280.53 267.464 3286.58 259.572C3283.65 261.548 3280.31 263.21 3276.59 264.528C3282.83 258.755 3287.01 253.284 3289.13 248.099C3285.75 249.746 3282.95 251.823 3280.71 254.315C3281.82 248.242 3285.64 239.734 3292.2 228.792C3292.2 228.792 3290.31 230.281 3286.54 233.275L3294.34 207.178V206.863L3294.39 207.021L3294.43 206.863V207.235L3302.23 233.275C3298.47 230.281 3296.58 228.792 3296.58 228.792C3303.13 239.72 3306.95 248.228 3308.06 254.315C3305.82 251.823 3303.02 249.746 3299.64 248.099C3301.76 253.284 3305.94 258.755 3312.18 264.528C3308.46 263.195 3305.12 261.548 3302.19 259.572C3308.89 268.323 3313.71 276.015 3316.65 282.618C3322.52 283.377 3326.95 284.436 3328.53 285.883C3335.21 292.028 3437.98 289.621 3437.98 289.621L3559.3 260.359L3940.54 384.383L4039 484.903L4176 262.322V423.556L4114 584.486L2972.99 456.026L2736.01 428.97V50.6418L2862.38 145.46ZM3309.98 281.916C3312.21 282.102 3314.33 282.331 3316.3 282.574C3312.87 279.28 3309.53 277.203 3306.28 276.33C3307.48 278.278 3308.72 280.14 3309.98 281.916ZM3279.67 280.698C3280.63 279.295 3281.57 277.834 3282.52 276.33C3279.95 277.017 3277.33 278.478 3274.64 280.67C3276.2 280.67 3277.89 280.684 3279.67 280.698Z" fill="#EAF5A4"/>
<path fill-rule="evenodd" clip-rule="evenodd" d="M2774.8 162.017L2764.59 304.347L2750.11 297.544L2661.7 254.114L2593.95 262.027L2574.49 270.168L2561.51 286.433L2505.3 297.527L2453.41 332.294L2417.17 340.941C2414.28 336.65 2411.03 332.164 2407.44 327.465C2411.94 330.5 2417.03 333.028 2422.76 335.051C2413.2 326.225 2406.78 317.823 2403.53 309.894C2408.73 312.423 2413.02 315.588 2416.45 319.406C2414.75 310.09 2408.89 297.071 2398.83 280.315C2398.83 280.315 2401.72 282.599 2407.5 287.184L2395.53 247.196V246.723L2395.47 246.968L2395.4 246.723V247.294L2383.44 287.184C2389.22 282.599 2392.11 280.315 2392.11 280.315C2382.05 297.071 2376.19 310.09 2374.49 319.406C2377.92 315.588 2382.21 312.407 2387.4 309.894C2384.14 317.839 2377.74 326.225 2368.17 335.051C2373.89 333.028 2379 330.5 2383.5 327.465C2376.34 336.813 2370.59 345.362 2366.21 353.112L2360.47 354.482L2299.49 331.462L2203.72 296.793L2193.12 298.735C2190.48 294.216 2187.51 289.484 2184.22 284.557C2188.45 287.836 2193.25 290.594 2198.62 292.78C2189.63 283.203 2183.6 274.116 2180.55 265.502C2185.42 268.242 2189.46 271.669 2192.68 275.813C2191.1 265.714 2185.58 251.601 2176.14 233.443C2176.14 233.443 2178.85 235.923 2184.29 240.883L2173.04 197.551V197.045L2172.98 197.306L2172.91 197.045V197.665L2161.66 240.899C2167.08 235.939 2169.81 233.459 2169.81 233.459C2160.37 251.618 2154.86 265.73 2153.27 275.829C2156.49 271.685 2160.54 268.242 2165.4 265.518C2162.35 274.116 2156.31 283.219 2147.33 292.796C2152.7 290.594 2157.5 287.853 2161.73 284.574C2156.41 292.584 2151.92 300.056 2148.24 306.974L2082.67 318.998L2048.07 327.139L1983.35 315.245C1983.35 315.245 1916.15 309.747 1923.84 307.675C1931.53 305.587 1764.56 333.241 1764.56 333.241C1757.36 325.605 1752.33 318.296 1749.44 311.265C1755.35 314.152 1760.27 317.774 1764.18 322.13C1762.26 311.509 1755.55 296.63 1744.09 277.509C1744.09 277.509 1747.38 280.12 1753.98 285.34L1740.32 239.708V239.169L1740.23 239.447L1740.15 239.169L1740.12 239.822L1726.49 285.357C1733.08 280.136 1736.38 277.526 1736.38 277.526C1724.91 296.646 1718.21 311.509 1716.29 322.147C1720.19 317.79 1725.1 314.169 1731.03 311.281C1727.31 320.352 1719.99 329.912 1709.07 339.995C1715.6 337.678 1721.43 334.791 1726.55 331.332C1716.37 344.628 1708.68 356.489 1703.44 366.963L1658.17 391.925L1583.45 415.598L1517.89 402.334L1485.21 395.726L1362.05 368.268L1296 314.266V520.632L1460.49 551.239L1742.24 596.496L2001.25 520.632L2489.71 485.604L2758.16 460.985L2902 368.872L2781.36 312.211L2774.8 162.001V162.017ZM1757.98 336.797C1756.64 334.986 1755.27 333.159 1753.85 331.283C1755.99 332.735 1758.26 334.073 1760.66 335.329L1758 336.797H1757.98Z" fill="#D6ED93"/>
<path fill-rule="evenodd" clip-rule="evenodd" d="M-182.796 162.017L-172.593 304.347L-158.113 297.544L-69.6967 254.114L-1.94812 262.027L17.5112 270.168L30.4895 286.433L86.6963 297.527L138.593 332.294L174.835 340.941C177.724 336.65 180.973 332.164 184.564 327.465C180.059 330.5 174.965 333.028 169.235 335.051C178.802 326.225 185.218 317.823 188.466 309.894C183.275 312.423 178.981 315.588 175.553 319.406C177.251 310.09 183.112 297.071 193.168 280.315C193.168 280.315 190.278 282.599 184.499 287.184L196.465 247.196V246.723L196.531 246.968L196.596 246.723V247.294L208.562 287.184C202.783 282.599 199.894 280.315 199.894 280.315C209.95 297.071 215.81 310.09 217.508 319.406C214.08 315.588 209.787 312.407 204.595 309.894C207.86 317.839 214.26 326.225 223.826 335.051C218.112 333.028 213.003 330.5 208.497 327.465C215.664 336.813 221.41 345.362 225.785 353.112L231.531 354.482L292.505 331.462L388.284 296.793L398.879 298.735C401.523 294.216 404.494 289.484 407.776 284.557C403.547 287.836 398.748 290.594 393.377 292.78C402.372 283.203 408.396 274.116 411.449 265.502C406.584 268.242 402.535 271.669 399.319 275.813C400.903 265.714 406.421 251.601 415.856 233.443C415.856 233.443 413.146 235.923 407.71 240.883L418.958 197.551V197.045L419.023 197.306L419.089 197.045V197.665L430.337 240.899C424.917 235.939 422.19 233.459 422.19 233.459C431.626 251.618 437.144 265.73 438.728 275.829C435.512 271.685 431.463 268.242 426.598 265.518C429.651 274.116 435.691 283.219 444.67 292.796C439.299 290.594 434.5 287.853 430.271 284.574C435.593 292.584 440.083 300.056 443.756 306.974L509.333 318.998L543.926 327.139L608.654 315.245C608.654 315.245 675.848 309.747 668.159 307.675C660.47 305.587 827.441 333.241 827.441 333.241C834.64 325.605 839.669 318.296 842.558 311.265C836.648 314.152 831.735 317.774 827.817 322.13C829.743 311.509 836.453 296.63 847.913 277.509C847.913 277.509 844.615 280.12 838.02 285.34L851.684 239.708V239.169L851.765 239.447L851.847 239.169L851.88 239.822L865.511 285.357C858.916 280.136 855.618 277.526 855.618 277.526C867.095 296.646 873.788 311.509 875.714 322.147C871.812 317.79 866.899 314.169 860.973 311.281C864.695 320.352 872.008 329.912 882.93 339.995C876.4 337.678 870.572 334.791 865.446 331.332C875.632 344.628 883.321 356.489 888.562 366.963L933.831 391.925L1008.55 415.598L1074.11 402.334L1106.79 395.726L1229.95 368.268L1296 314.266V520.632L1131.51 551.239L849.757 596.496L590.746 520.632L102.287 485.604L-166.161 460.985L-310 368.872L-189.359 312.211L-182.796 162.001V162.017ZM834.02 336.797C835.359 334.986 836.73 333.159 838.15 331.283C836.012 332.735 833.743 334.073 831.343 335.329L834.004 336.797H834.02Z" fill="#D6ED93"/>
<path fill-rule="evenodd" clip-rule="evenodd" d="M2638.47 343.07L2585.4 354.6L2546.78 390.307L2520.71 421.145L2487.52 414.657L2356.39 337.284L2325.57 368.293L2324.02 369.21C2314.4 360.229 2307.93 351.693 2304.61 343.614C2309.96 346.221 2314.41 349.501 2317.95 353.454C2316.2 343.829 2310.15 330.351 2299.75 313.035C2299.75 313.035 2302.73 315.398 2308.7 320.139L2296.33 278.788V278.301L2296.26 278.559L2296.19 278.301L2296.16 278.889L2283.82 320.139C2289.79 315.398 2292.77 313.035 2292.77 313.035C2282.39 330.351 2276.32 343.829 2274.57 353.454C2278.11 349.501 2282.56 346.221 2287.91 343.614C2284.55 351.822 2277.92 360.501 2268.04 369.639C2273.96 367.548 2279.22 364.927 2283.88 361.79C2272.97 376.042 2265.19 388.517 2260.57 399.188C2266.35 393.43 2271.97 389.806 2277.42 388.331C2274.87 392.442 2272.27 396.323 2269.59 399.961L2186.48 410.431L2111.94 377.073L1980.48 348.026L1931.93 341.38L1891.36 362.893C1888.32 358.224 1884.8 353.282 1880.81 348.069C1884.93 350.848 1889.61 353.168 1894.84 355.03C1886.08 346.923 1880.21 339.232 1877.21 331.956C1881.97 334.276 1885.9 337.183 1889.04 340.678C1887.49 332.142 1882.11 320.196 1872.9 304.828C1872.9 304.828 1875.55 306.933 1880.84 311.13L1869.87 274.463V274.033L1869.81 274.262L1869.74 274.033L1869.71 274.549L1858.77 311.13C1864.07 306.933 1866.71 304.828 1866.71 304.828C1857.5 320.182 1852.13 332.127 1850.57 340.678C1853.71 337.169 1857.64 334.262 1862.4 331.956C1859.42 339.232 1853.54 346.923 1844.77 355.03C1850.01 353.168 1854.69 350.848 1858.82 348.069C1849.14 360.716 1842.25 371.759 1838.16 381.227C1843.28 376.113 1848.27 372.905 1853.09 371.602C1848.7 378.692 1844.1 384.979 1839.3 390.479L1662.7 484.123L1581.16 507.513L1462.08 492.173L1296.01 486.905L1296.01 581.907L1603.43 631.966L1869.04 531.404L2735.98 552.459V310.27H2712.23L2638.44 343.07H2638.47Z" fill="#C1DB72"/>
<path fill-rule="evenodd" clip-rule="evenodd" d="M2833.5 343.07L2886.57 354.6L2925.2 390.307L2951.27 421.145L2984.45 414.657L3115.59 337.284L3146.41 368.293L3147.96 369.21C3157.58 360.229 3164.05 351.693 3167.37 343.614C3162.02 346.221 3157.56 349.501 3154.03 353.454C3155.77 343.829 3161.83 330.351 3172.22 313.035C3172.22 313.035 3169.25 315.398 3163.28 320.139L3175.65 278.788V278.301L3175.72 278.559L3175.79 278.301L3175.82 278.889L3188.16 320.139C3182.19 315.398 3179.21 313.035 3179.21 313.035C3189.59 330.351 3195.66 343.829 3197.41 353.454C3193.87 349.501 3189.42 346.221 3184.06 343.614C3187.43 351.822 3194.06 360.501 3203.93 369.639C3198.02 367.548 3192.75 364.927 3188.1 361.79C3199.01 376.042 3206.78 388.517 3211.41 399.188C3205.62 393.43 3200.01 389.806 3194.56 388.331C3197.1 392.442 3199.71 396.323 3202.39 399.961L3285.49 410.431L3360.04 377.073L3491.5 348.026L3540.05 341.38L3580.62 362.893C3583.65 358.224 3587.18 353.282 3591.17 348.069C3587.05 350.848 3582.37 353.168 3577.14 355.03C3585.9 346.923 3591.77 339.232 3594.76 331.956C3590.01 334.276 3586.07 337.183 3582.94 340.678C3584.48 332.142 3589.87 320.196 3599.07 304.828C3599.07 304.828 3596.42 306.933 3591.14 311.13L3602.11 274.463V274.033L3602.16 274.262L3602.24 274.033L3602.27 274.549L3613.2 311.13C3607.91 306.933 3605.27 304.828 3605.27 304.828C3614.48 320.182 3619.85 332.127 3621.41 340.678C3618.27 337.169 3614.33 334.262 3609.58 331.956C3612.56 339.232 3618.44 346.923 3627.2 355.03C3621.96 353.168 3617.28 350.848 3613.16 348.069C3622.84 360.716 3629.72 371.759 3633.82 381.227C3628.69 376.113 3623.71 372.905 3618.89 371.602C3623.28 378.692 3627.88 384.979 3632.67 390.479L3809.28 484.123L3890.82 507.513L4009.9 492.173L4175.97 425.556V581.907L3868.54 631.966H3540.05L2736 552.459V310.27H2759.75L2833.53 343.07H2833.5Z" fill="#C1DB72"/>
<path fill-rule="evenodd" clip-rule="evenodd" d="M2253.64 516.222C2243.74 505.422 2234.43 491.93 2225.71 475.731C2232.11 477.736 2238.71 482.635 2245.51 490.441C2240.09 475.974 2230.95 459.073 2218.13 439.751C2223.58 444.005 2229.79 447.558 2236.72 450.393C2225.11 438.004 2217.32 426.245 2213.37 415.116C2219.67 418.654 2224.88 423.108 2229.05 428.465C2227 415.417 2219.87 397.14 2207.68 373.665C2207.68 373.665 2211.18 376.873 2218.2 383.29L2203.67 327.244V326.585L2203.58 326.929L2203.5 326.585L2203.47 327.387L2188.96 383.304C2195.98 376.888 2199.49 373.679 2199.49 373.679C2187.29 397.155 2180.16 415.431 2178.11 428.479C2182.26 423.122 2187.49 418.668 2193.79 415.13C2189.84 426.259 2182.05 438.018 2170.44 450.408C2177.38 447.558 2183.58 444.02 2189.04 439.766C2177.3 457.455 2168.66 473.11 2163.11 486.717C2154.02 476.347 2145.44 463.671 2137.38 448.675C2143.78 450.68 2150.38 455.578 2157.18 463.384C2151.76 448.918 2142.62 432.031 2129.8 412.695C2135.26 416.949 2141.46 420.501 2148.41 423.337C2136.8 410.948 2129.01 399.189 2125.06 388.06C2131.36 391.597 2136.58 396.052 2140.73 401.409C2138.69 388.36 2131.56 370.084 2119.36 346.609C2119.36 346.609 2122.87 349.817 2129.88 356.234L2115.35 300.188V299.529L2115.27 299.873L2115.18 299.529L2115.15 300.331L2100.65 356.248C2107.66 349.832 2111.17 346.623 2111.17 346.623C2098.97 370.099 2091.84 388.375 2089.8 401.423C2093.95 396.066 2099.17 391.612 2105.47 388.074C2101.52 399.203 2093.73 410.962 2082.12 423.352C2089.07 420.501 2095.27 416.964 2100.72 412.71C2087.89 432.046 2078.77 448.933 2073.33 463.399C2080.13 455.593 2086.73 450.68 2093.13 448.689C2084.43 464.888 2075.12 478.381 2065.2 489.18C2071.49 484.869 2077.38 480.715 2082.9 476.762C2072.09 494.179 2065.3 505.451 2062.54 510.607C2096.68 513.587 2113.75 515.076 2113.75 515.076V514.059C2122.97 513.687 2139.03 512.899 2157.74 511.453C2156.35 513.1 2154.95 514.704 2153.53 516.251C2156.02 514.546 2158.44 512.87 2160.8 511.209C2162.84 511.051 2164.9 510.88 2166.98 510.693C2158.61 524.243 2153.26 533.238 2150.87 537.678C2185.01 540.657 2202.08 542.147 2202.08 542.147V541.13C2212.93 540.686 2233.3 539.683 2256.29 537.678C2253.53 532.522 2246.74 521.235 2235.94 503.833C2241.45 507.8 2247.35 511.939 2253.63 516.251L2253.64 516.222Z" fill="#83AB32"/>
<path fill-rule="evenodd" clip-rule="evenodd" d="M2980.11 541.963C2970.2 531.164 2960.89 517.671 2952.17 501.472C2958.57 503.477 2965.17 508.376 2971.97 516.182C2966.55 501.715 2957.41 484.814 2944.59 465.493C2950.04 469.747 2956.26 473.299 2963.18 476.135C2951.57 463.745 2943.79 451.986 2939.83 440.857C2946.13 444.395 2951.34 448.849 2955.51 454.206C2953.46 441.158 2946.33 422.882 2934.14 399.406C2934.14 399.406 2937.64 402.614 2944.66 409.031L2930.13 352.985V352.326L2930.04 352.67L2929.96 352.326L2929.93 353.128L2915.43 409.045C2922.44 402.629 2925.95 399.42 2925.95 399.42C2913.75 422.896 2906.62 441.172 2904.57 454.22C2908.73 448.864 2913.95 444.409 2920.25 440.871C2916.3 452 2908.51 463.759 2896.9 476.149C2903.84 473.299 2910.04 469.761 2915.5 465.507C2903.76 483.196 2895.13 498.851 2889.57 512.458C2880.48 502.088 2871.9 489.412 2863.84 474.416C2870.24 476.421 2876.84 481.32 2883.64 489.126C2878.22 474.659 2869.08 457.772 2856.26 438.436C2861.73 442.69 2867.92 446.242 2874.87 449.078C2863.26 436.689 2855.47 424.93 2851.52 413.801C2857.82 417.339 2863.04 421.793 2867.19 427.15C2865.15 414.102 2858.02 395.825 2845.82 372.35C2845.82 372.35 2849.33 375.558 2856.34 381.975L2841.81 325.929V325.27L2841.73 325.614L2841.64 325.27L2841.61 326.072L2827.11 381.989C2834.12 375.573 2837.63 372.364 2837.63 372.364C2825.43 395.84 2818.31 414.116 2816.26 427.164C2820.41 421.807 2825.63 417.353 2831.93 413.815C2827.98 424.944 2820.19 436.703 2808.58 449.093C2815.53 446.242 2821.73 442.705 2827.18 438.451C2814.35 457.787 2805.23 474.674 2799.79 489.14C2806.59 481.334 2813.19 476.421 2819.59 474.43C2810.89 490.629 2801.58 504.122 2791.66 514.921C2797.95 510.61 2803.85 506.456 2809.36 502.503C2798.55 519.92 2791.76 531.192 2789 536.349C2823.14 539.328 2840.21 540.817 2840.21 540.817V539.8C2849.43 539.428 2865.49 538.64 2884.2 537.194C2882.81 538.841 2881.41 540.445 2879.99 541.992C2882.48 540.287 2884.9 538.612 2887.27 536.95C2889.3 536.793 2891.36 536.621 2893.44 536.434C2885.08 549.984 2879.72 558.979 2877.33 563.419C2911.47 566.398 2928.54 567.888 2928.54 567.888V566.871C2939.39 566.427 2959.76 565.424 2982.75 563.419C2979.99 558.263 2973.21 546.976 2962.4 529.574C2967.91 533.541 2973.81 537.681 2980.09 541.992L2980.11 541.963Z" fill="#83AB32"/>
<path fill-rule="evenodd" clip-rule="evenodd" d="M2575.12 446.857C2564.24 436.588 2554.02 423.74 2544.46 408.314C2551.49 410.219 2558.73 414.888 2566.19 422.322C2560.22 408.557 2550.2 392.473 2536.13 374.068C2542.13 378.121 2548.93 381.487 2556.56 384.194C2543.8 372.406 2535.25 361.206 2530.92 350.621C2537.83 353.987 2543.56 358.226 2548.12 363.325C2545.88 350.893 2538.05 333.519 2524.66 311.161C2524.66 311.161 2528.51 314.212 2536.21 320.328L2520.25 266.974V266.344L2520.17 266.674L2520.07 266.344L2520.04 267.103L2504.12 320.328C2511.82 314.212 2515.67 311.161 2515.67 311.161C2502.27 333.519 2494.45 350.893 2492.21 363.325C2496.77 358.226 2502.51 353.987 2509.41 350.621C2505.08 361.22 2496.53 372.406 2483.77 384.194C2491.39 381.487 2498.2 378.107 2504.2 374.068C2491.68 390.439 2482.36 404.991 2476.24 417.696C2472.92 404.031 2465.55 386.214 2454.13 364.213C2454.13 364.213 2457.98 367.737 2465.68 374.784L2449.72 313.238V312.507L2449.63 312.88L2449.53 312.507L2449.5 313.381L2433.58 374.784C2441.28 367.737 2445.13 364.213 2445.13 364.213C2431.73 389.995 2423.92 410.061 2421.66 424.384C2426.22 418.498 2431.96 413.614 2438.86 409.732C2434.53 421.95 2425.98 434.869 2413.22 448.461C2420.84 445.339 2427.65 441.443 2433.65 436.774C2419.57 458.001 2409.54 476.549 2403.59 492.433C2411.05 483.854 2418.29 478.468 2425.32 476.277C2415.76 494.066 2405.54 508.89 2394.66 520.735C2401.56 515.994 2408.04 511.454 2414.1 507.1C2402.23 526.221 2394.79 538.61 2391.75 544.268C2429.24 547.534 2447.98 549.181 2447.98 549.181V548.064C2459.91 547.577 2482.27 546.474 2507.51 544.268C2504.48 538.61 2497.03 526.207 2485.16 507.1C2491.22 511.454 2497.69 515.994 2504.6 520.735C2493.72 508.89 2483.5 494.066 2473.94 476.277C2480.97 478.468 2488.21 483.854 2495.67 492.433C2492.94 485.171 2489.36 477.337 2484.93 468.958L2518.53 471.493V470.519C2530.46 470.104 2552.82 469.144 2578.06 467.239C2575.02 462.326 2567.58 451.584 2555.71 435.012C2561.77 438.779 2568.24 442.732 2575.15 446.843L2575.12 446.857Z" fill="#83AB32"/>
<path fill-rule="evenodd" clip-rule="evenodd" d="M3387.37 542.814C3376.49 532.544 3366.27 519.697 3356.71 504.271C3363.74 506.176 3370.98 510.845 3378.44 518.279C3372.47 504.514 3362.45 488.429 3348.38 470.024C3354.38 474.078 3361.18 477.444 3368.81 480.151C3356.05 468.363 3347.5 457.162 3343.17 446.578C3350.08 449.944 3355.81 454.183 3360.37 459.282C3358.13 446.85 3350.3 429.476 3336.91 407.118C3336.91 407.118 3340.76 410.169 3348.46 416.284L3332.5 362.931V362.301L3332.42 362.63L3332.32 362.301L3332.29 363.06L3316.37 416.284C3324.07 410.169 3327.92 407.118 3327.92 407.118C3314.52 429.476 3306.7 446.85 3304.46 459.282C3309.02 454.183 3314.76 449.944 3321.66 446.578C3317.33 457.177 3308.78 468.363 3296.02 480.151C3303.64 477.444 3310.45 474.063 3316.45 470.024C3303.93 486.396 3294.61 500.948 3288.49 513.652C3285.17 499.988 3277.8 482.17 3266.38 460.17C3266.38 460.17 3270.23 463.694 3277.93 470.741L3261.97 409.195V408.464L3261.88 408.837L3261.78 408.464L3261.75 409.338L3245.83 470.741C3253.53 463.694 3257.38 460.17 3257.38 460.17C3243.98 485.952 3236.17 506.018 3233.91 520.341C3238.47 514.454 3244.21 509.57 3251.11 505.689C3246.78 517.906 3238.23 530.826 3225.47 544.418C3233.09 541.296 3239.9 537.4 3245.9 532.731C3231.82 553.957 3221.79 572.506 3215.84 588.39C3223.3 579.81 3230.54 574.425 3237.57 572.234C3228.01 590.023 3217.79 604.847 3206.91 616.692C3213.81 611.951 3220.29 607.411 3226.35 603.057C3214.48 622.178 3207.04 634.567 3204 640.225C3241.49 643.491 3260.23 645.138 3260.23 645.138V644.021C3272.16 643.534 3294.52 642.431 3319.76 640.225C3316.73 634.567 3309.28 622.164 3297.41 603.057C3303.47 607.411 3309.94 611.951 3316.85 616.692C3305.97 604.847 3295.75 590.023 3286.19 572.234C3293.22 574.425 3300.46 579.81 3307.92 588.39C3305.19 581.128 3301.61 573.293 3297.18 564.914L3330.78 567.45V566.476C3342.71 566.06 3365.07 565.101 3390.31 563.196C3387.27 558.283 3379.83 547.541 3367.96 530.969C3374.02 534.736 3380.49 538.689 3387.4 542.8L3387.37 542.814Z" fill="#83AB32"/>
<path fill-rule="evenodd" clip-rule="evenodd" d="M1640.01 575.498C1630.1 564.699 1620.8 551.207 1612.08 535.007C1618.48 537.012 1625.08 541.911 1631.88 549.717C1626.45 535.251 1617.32 518.364 1604.49 499.028C1609.94 503.282 1616.16 506.834 1623.09 509.67C1611.48 497.28 1603.69 485.521 1599.74 474.392C1606.04 477.93 1611.25 482.384 1615.41 487.741C1613.37 474.693 1606.24 456.417 1594.04 432.941C1594.04 432.941 1597.55 436.15 1604.56 442.566L1590.03 386.52V385.862L1589.94 386.205L1589.86 385.862L1589.83 386.664L1575.33 442.581C1582.34 436.164 1585.85 432.956 1585.85 432.956C1573.65 456.431 1566.52 474.707 1564.48 487.756C1568.63 482.399 1573.85 477.944 1580.15 474.406C1576.2 485.535 1568.41 497.295 1556.8 509.684C1563.75 506.834 1569.95 503.296 1575.4 499.042C1562.57 518.378 1553.45 535.265 1548.01 549.731C1554.81 541.925 1561.41 537.012 1567.81 535.022C1559.11 551.221 1549.8 564.713 1539.88 575.513C1546.17 571.201 1552.06 567.048 1557.58 563.095C1546.77 580.497 1539.98 591.784 1537.22 596.94C1571.36 599.919 1588.43 601.409 1588.43 601.409V600.392C1599.28 599.948 1619.65 598.945 1642.64 596.94C1639.88 591.784 1633.09 580.497 1622.29 563.095C1627.8 567.062 1633.7 571.201 1639.98 575.513L1640.01 575.498Z" fill="#83AB32"/>
<path fill-rule="evenodd" clip-rule="evenodd" d="M754.877 409.951C739.372 393.102 724.808 372.053 711.163 346.78C721.178 349.908 731.507 357.55 742.15 369.729C733.658 347.16 719.363 320.814 699.287 290.648C707.824 297.284 717.548 302.826 728.393 307.25C710.221 287.921 698.032 269.576 691.848 252.213C701.707 257.732 709.863 264.682 716.383 273.039C713.179 252.682 702.021 224.169 682.931 187.545C682.931 187.545 688.42 192.55 699.399 202.561L676.657 115.123V114.095L676.522 114.631L676.388 114.095L676.343 115.346L653.646 202.583C664.625 192.572 670.114 187.567 670.114 187.567C651.024 224.192 639.866 252.705 636.662 273.062C643.159 264.704 651.338 257.755 661.196 252.235C655.012 269.598 642.823 287.944 624.652 307.273C635.519 302.826 645.221 297.307 653.758 290.67C633.682 320.837 619.409 347.182 610.894 369.751C621.537 357.573 631.867 349.908 641.882 346.802C628.259 372.075 613.695 393.125 598.168 409.973C608.004 403.247 617.235 396.767 625.862 390.6C608.945 417.75 598.324 435.358 594 443.402C647.439 448.05 674.147 450.374 674.147 450.374V448.788C691.131 448.095 723.015 446.531 759 443.402C754.676 435.358 744.055 417.75 727.138 390.6C735.765 396.789 744.996 403.247 754.832 409.973L754.877 409.951Z" fill="#83AB32"/>
<path fill-rule="evenodd" clip-rule="evenodd" d="M1488.15 546.038C1478.24 535.238 1468.93 521.746 1460.22 505.547C1466.62 507.552 1473.21 512.45 1480.02 520.256C1474.59 505.79 1465.46 488.903 1452.63 469.567C1458.08 473.821 1464.3 477.373 1471.22 480.209C1459.61 467.82 1451.83 456.061 1447.88 444.932C1454.17 448.469 1459.39 452.924 1463.55 458.281C1461.5 445.232 1454.37 426.956 1442.18 403.481C1442.18 403.481 1445.68 406.689 1452.7 413.106L1438.17 357.06V356.401L1438.08 356.745L1438 356.401L1437.97 357.203L1423.47 413.12C1430.48 406.703 1433.99 403.495 1433.99 403.495C1425.56 419.723 1419.54 433.459 1415.96 444.717C1411.15 435.564 1405.21 425.667 1398.17 415.039C1403.62 419.293 1409.84 422.846 1416.77 425.681C1405.16 413.292 1397.37 401.533 1393.42 390.404C1399.72 393.942 1404.94 398.396 1409.09 403.753C1407.05 390.705 1399.92 372.428 1387.72 348.953C1387.72 348.953 1391.23 352.161 1398.24 358.578L1383.71 302.532V301.873L1383.62 302.217L1383.54 301.873L1383.51 302.675L1369.01 358.592C1376.02 352.176 1379.53 348.967 1379.53 348.967C1367.33 372.443 1360.2 390.719 1358.16 403.767C1362.31 398.41 1367.53 393.956 1373.83 390.418C1369.88 401.547 1362.09 413.306 1350.48 425.696C1357.43 422.846 1363.63 419.308 1369.08 415.054C1356.25 434.39 1347.13 451.277 1341.69 465.743C1348.49 457.937 1355.09 453.024 1361.49 451.033C1352.79 467.233 1343.48 480.725 1333.56 491.524C1339.85 487.213 1345.74 483.059 1351.26 479.106C1340.45 496.523 1333.66 507.795 1330.9 512.952C1365.04 515.931 1382.11 517.42 1382.11 517.42V516.403C1386.19 516.232 1391.6 515.988 1397.98 515.644C1397.33 517.22 1396.72 518.767 1396.15 520.285C1397.67 518.538 1399.17 516.948 1400.68 515.487C1403.82 515.315 1407.17 515.114 1410.71 514.885C1403.54 527.017 1395.98 537.401 1388.03 546.066C1394.32 541.755 1400.22 537.602 1405.73 533.648C1394.92 551.051 1388.13 562.337 1385.37 567.494C1419.52 570.473 1436.58 571.962 1436.58 571.962V570.946C1447.43 570.502 1467.8 569.499 1490.8 567.494C1488.03 562.337 1481.25 551.051 1470.44 533.648C1475.95 537.616 1481.85 541.755 1488.13 546.066L1488.15 546.038Z" fill="#83AB32"/>
<path fill-rule="evenodd" clip-rule="evenodd" d="M1051.25 401.295C1041.34 390.495 1032.04 377.003 1023.32 360.804C1029.72 362.809 1036.32 367.707 1043.12 375.513C1037.69 361.047 1028.56 344.16 1015.73 324.824C1021.18 329.078 1027.4 332.63 1034.33 335.466C1022.72 323.077 1014.93 311.318 1010.98 300.189C1017.28 303.726 1022.49 308.181 1026.65 313.538C1024.61 300.489 1017.48 282.213 1005.28 258.738C1005.28 258.738 1008.79 261.946 1015.8 268.363L1001.27 212.317V211.658L1001.18 212.002L1001.1 211.658L1001.07 212.46L986.568 268.377C993.583 261.961 997.09 258.752 997.09 258.752C988.658 274.98 982.645 288.716 979.066 299.974C974.256 290.821 968.315 280.924 961.271 270.297C966.726 274.551 972.939 278.103 979.868 280.939C968.258 268.549 960.47 256.79 956.518 245.661C962.818 249.199 968.043 253.653 972.195 259.01C970.147 245.962 963.018 227.686 950.821 204.21C950.821 204.21 954.328 207.418 961.343 213.835L946.812 157.789V157.13L946.726 157.474L946.64 157.13L946.612 157.932L932.109 213.849C939.124 207.433 942.632 204.224 942.632 204.224C930.434 227.7 923.305 245.976 921.258 259.024C925.41 253.668 930.635 249.213 936.934 245.675C932.983 256.804 925.195 268.563 913.584 280.953C920.528 278.103 926.727 274.565 932.181 270.311C919.354 289.647 910.234 306.534 904.794 321C911.594 313.194 918.194 308.281 924.594 306.29C915.889 322.49 906.584 335.982 896.663 346.781C902.948 342.47 908.846 338.317 914.358 334.363C903.549 351.78 896.763 363.052 894 368.209C928.144 371.188 945.209 372.677 945.209 372.677V371.661C949.289 371.489 954.7 371.245 961.085 370.901C960.427 372.477 959.825 374.024 959.253 375.542C960.77 373.795 962.274 372.205 963.777 370.744C966.926 370.572 970.276 370.371 973.812 370.142C966.64 382.274 959.081 392.658 951.136 401.324C957.42 397.012 963.319 392.859 968.83 388.906C958.022 406.308 951.236 417.595 948.473 422.751C982.617 425.73 999.682 427.22 999.682 427.22V426.203C1010.53 425.759 1030.9 424.756 1053.9 422.751C1051.13 417.595 1044.35 406.308 1033.54 388.906C1039.05 392.873 1044.95 397.012 1051.23 401.324L1051.25 401.295Z" fill="#83AB32"/>
<path fill-rule="evenodd" clip-rule="evenodd" d="M2006.46 475.383C1996.56 464.583 1987.25 451.091 1978.53 434.892C1984.93 436.897 1991.53 441.795 1998.33 449.601C1992.91 435.135 1983.77 418.248 1970.94 398.912C1976.41 403.166 1982.61 406.718 1989.56 409.554C1977.95 397.165 1970.16 385.406 1966.21 374.277C1972.51 377.814 1977.73 382.269 1981.88 387.626C1979.83 374.577 1972.71 356.301 1960.51 332.826C1960.51 332.826 1964.02 336.034 1971.03 342.451L1956.5 286.405V285.746L1956.41 286.09L1956.33 285.746L1956.3 286.548L1941.8 342.465C1948.81 336.049 1952.32 332.84 1952.32 332.84C1940.12 356.316 1932.99 374.592 1930.95 387.64C1935.1 382.283 1940.32 377.829 1946.62 374.291C1942.67 385.42 1934.88 397.179 1923.27 409.569C1930.22 406.718 1936.41 403.181 1941.87 398.927C1929.04 418.263 1919.92 435.149 1914.48 449.616C1921.28 441.81 1927.88 436.897 1934.28 434.906C1925.58 451.105 1916.27 464.598 1906.35 475.397C1912.64 471.086 1918.53 466.932 1924.05 462.979C1913.24 480.382 1906.45 491.668 1903.69 496.824C1937.83 499.804 1954.9 501.293 1954.9 501.293V500.276C1965.75 499.832 1986.12 498.83 2009.11 496.824C2006.35 491.668 1999.56 480.382 1988.75 462.979C1994.27 466.947 2000.16 471.086 2006.45 475.397L2006.46 475.383Z" fill="#83AB32"/>
<path fill-rule="evenodd" clip-rule="evenodd" d="M1825.19 559.055C1815.28 548.256 1805.98 534.763 1797.26 518.564C1803.66 520.569 1810.26 525.468 1817.06 533.274C1811.63 518.808 1802.5 501.921 1789.67 482.585C1795.12 486.839 1801.34 490.391 1808.27 493.227C1796.66 480.837 1788.87 469.078 1784.92 457.949C1791.22 461.487 1796.44 465.941 1800.59 471.298C1798.55 458.25 1791.42 439.974 1779.22 416.498C1779.22 416.498 1782.73 419.707 1789.74 426.123L1775.21 370.077V369.404L1775.12 369.748L1775.04 369.404L1775.01 370.206L1760.51 426.123C1767.52 419.707 1771.03 416.498 1771.03 416.498C1758.83 439.974 1751.7 458.25 1749.66 471.298C1753.81 465.941 1759.03 461.487 1765.33 457.949C1761.38 469.078 1753.59 480.837 1741.98 493.227C1748.93 490.376 1755.13 486.839 1760.58 482.585C1747.75 501.921 1738.63 518.808 1733.19 533.274C1739.99 525.468 1746.59 520.555 1752.99 518.564C1744.29 534.763 1734.98 548.256 1725.06 559.055C1731.35 554.744 1737.24 550.59 1742.76 546.637C1731.95 564.04 1725.16 575.326 1722.4 580.482C1756.54 583.462 1773.61 584.951 1773.61 584.951V583.934C1784.46 583.49 1804.83 582.488 1827.82 580.482C1825.06 575.326 1818.27 564.04 1807.46 546.637C1812.98 550.605 1818.87 554.744 1825.16 559.055H1825.19Z" fill="#83AB32"/>
<path fill-rule="evenodd" clip-rule="evenodd" d="M3664.79 534.938C3654.88 524.138 3645.58 510.646 3636.86 494.447C3643.26 496.452 3649.86 501.351 3656.66 509.157C3651.23 494.69 3642.1 477.803 3629.27 458.467C3634.73 462.721 3640.94 466.273 3647.87 469.109C3636.26 456.72 3628.47 444.961 3624.52 433.832C3630.82 437.37 3636.04 441.824 3640.19 447.181C3638.15 434.133 3631.02 415.856 3618.82 392.381C3618.82 392.381 3622.33 395.589 3629.34 402.006L3614.81 345.96V345.287L3614.73 345.631L3614.64 345.287L3614.61 346.089L3600.11 402.006C3607.12 395.589 3610.63 392.381 3610.63 392.381C3598.43 415.856 3591.31 434.133 3589.26 447.181C3593.41 441.824 3598.63 437.37 3604.93 433.832C3600.98 444.961 3593.19 456.72 3581.58 469.109C3588.53 466.259 3594.73 462.721 3600.18 458.467C3587.35 477.803 3578.23 494.69 3572.79 509.157C3579.59 501.351 3586.19 496.438 3592.59 494.447C3583.89 510.646 3574.58 524.138 3564.66 534.938C3570.95 530.627 3576.85 526.473 3582.36 522.52C3571.55 539.922 3564.76 551.209 3562 556.365C3596.14 559.344 3613.21 560.834 3613.21 560.834V559.817C3624.06 559.373 3644.43 558.37 3667.42 556.365C3664.66 551.209 3657.87 539.922 3647.07 522.52C3652.58 526.487 3658.48 530.627 3664.76 534.938H3664.79Z" fill="#83AB32"/>
<path fill-rule="evenodd" clip-rule="evenodd" d="M2167.54 509.776C2168.71 507.871 2169.95 505.88 2171.23 503.803C2169.59 504.992 2167.91 506.181 2166.2 507.399C2166.7 508.287 2167.14 509.074 2167.53 509.776H2167.54Z" fill="#53AB38"/>
<path fill-rule="evenodd" clip-rule="evenodd" d="M2164.07 487.79C2164.48 488.249 2164.9 488.707 2165.31 489.151L2163.78 488.091C2163.08 488.836 2162.36 489.624 2161.66 490.44C2162.03 489.452 2162.42 488.449 2162.84 487.432C2157.47 483.723 2152.4 480.156 2147.62 476.719C2154.89 488.435 2160.34 497.372 2163.97 503.546C2170.04 495.382 2175.88 486.1 2181.46 475.716C2175.82 477.478 2170.02 481.488 2164.08 487.762L2164.07 487.79Z" fill="#53AB38"/>
<path fill-rule="evenodd" clip-rule="evenodd" d="M1675.24 586.404C1944.33 682.497 2160.29 647.75 2323.09 482.175C2103.05 409.457 1861.41 448.33 1675.24 586.404Z" fill="#376443"/>
<path d="M-439 617.997V222.184C-148.9 447.777 96.996 433.889 429 352.293C761.004 270.696 909.5 334.052 1211 454.378C1512.5 574.703 1822.77 564.261 2093.65 500.681C2374.83 434.681 2669.52 365.51 3012.5 597.497C3023.52 671.097 3032 805.153 3032 805.153H312.5L772.809 617.997H-439Z" fill="#063412"/>
<path fill-rule="evenodd" clip-rule="evenodd" d="M4033.5 409.34V805.153H1967C1967 805.153 1975.48 671.097 1986.5 597.497C2740.5 92.5767 3468.5 848.705 4033.5 409.34Z" fill="#063412"/>
<path d="M-42 617.513H2474.5H4074V1203H-42V617.513Z" fill="#063412"/>
</g>
<defs>
<clipPath id="clip0_120_141">
<rect width="4032" height="1202" fill="white"/>
</clipPath>
</defs>
</svg>
