<svg xmlns="http://www.w3.org/2000/svg" xmlns:xlink="http://www.w3.org/1999/xlink" width="1550" zoomAndPan="magnify" viewBox="0 0 1163.0399 1499.999933" height="2000" preserveAspectRatio="xMidYMid meet" version="1.2"><defs><clipPath id="672455ad0f"><path d="M 185 668 L 749 668 L 749 930.507812 L 185 930.507812 Z M 185 668 "/></clipPath><clipPath id="fb5aa9bab7"><path d="M 19 11.015625 L 524 11.015625 L 524 353 L 19 353 Z M 19 11.015625 "/></clipPath><clipPath id="75ac3bebbf"><path d="M 8.460938 15 L 913 15 L 913 609 L 8.460938 609 Z M 8.460938 15 "/></clipPath><clipPath id="cec8022991"><path d="M 49 352 L 922.707031 352 L 922.707031 783 L 49 783 Z M 49 352 "/></clipPath></defs><g id="0bf6ac4989"><path style=" stroke:none;fill-rule:nonzero;fill:#000000;fill-opacity:1;" d="M 37.484375 1264.609375 L 9.261719 1264.609375 L 9.261719 1098.152344 L 37.484375 1098.152344 L 91.203125 1230.679688 L 144.921875 1098.152344 L 173.601562 1098.152344 L 173.601562 1264.609375 L 145.375 1264.609375 L 145.375 1213.371094 C 145.375 1205.023438 145.375 1198.039062 145.375 1192.421875 C 145.375 1186.65625 145.453125 1181.796875 145.605469 1177.851562 C 145.757812 1173.902344 145.90625 1170.410156 146.058594 1167.375 C 146.210938 1164.339844 146.515625 1161.304688 146.96875 1158.265625 L 104.632812 1264.609375 L 77.773438 1264.609375 L 35.664062 1158.496094 C 36.421875 1163.503906 36.878906 1169.878906 37.03125 1177.621094 C 37.332031 1185.363281 37.484375 1194.472656 37.484375 1204.949219 Z M 37.484375 1264.609375 "/><path style=" stroke:none;fill-rule:nonzero;fill:#000000;fill-opacity:1;" d="M 256.632812 1267.566406 C 245.554688 1267.566406 235.691406 1265.0625 227.042969 1260.054688 C 218.542969 1254.890625 211.867188 1247.910156 207.011719 1239.105469 C 202.15625 1230.148438 199.726562 1219.902344 199.726562 1208.363281 C 199.726562 1196.675781 202.078125 1186.351562 206.785156 1177.394531 C 211.488281 1168.4375 218.089844 1161.457031 226.585938 1156.445312 C 235.082031 1151.285156 244.796875 1148.703125 255.722656 1148.703125 C 267.101562 1148.703125 276.890625 1151.132812 285.085938 1155.988281 C 293.277344 1160.695312 299.574219 1167.300781 303.976562 1175.800781 C 308.527344 1184.300781 310.804688 1194.472656 310.804688 1206.3125 L 310.804688 1214.738281 L 214.292969 1214.96875 L 214.75 1197.207031 L 283.261719 1197.207031 C 283.261719 1189.464844 280.757812 1183.238281 275.75 1178.535156 C 270.894531 1173.828125 264.296875 1171.472656 255.949219 1171.472656 C 249.425781 1171.472656 243.886719 1172.839844 239.332031 1175.574219 C 234.933594 1178.304688 231.59375 1182.40625 229.316406 1187.871094 C 227.042969 1193.335938 225.902344 1200.015625 225.902344 1207.90625 C 225.902344 1220.050781 228.484375 1229.238281 233.640625 1235.460938 C 238.953125 1241.683594 246.769531 1244.796875 257.085938 1244.796875 C 264.675781 1244.796875 270.894531 1243.355469 275.75 1240.46875 C 280.757812 1237.585938 284.023438 1233.488281 285.539062 1228.175781 L 311.261719 1228.175781 C 308.832031 1240.46875 302.761719 1250.109375 293.050781 1257.09375 C 283.492188 1264.078125 271.351562 1267.566406 256.632812 1267.566406 Z M 256.632812 1267.566406 "/><path style=" stroke:none;fill-rule:nonzero;fill:#000000;fill-opacity:1;" d="M 365.382812 1267.566406 C 353.546875 1267.566406 344.140625 1264.378906 337.160156 1258.003906 C 330.328125 1251.476562 326.914062 1242.976562 326.914062 1232.5 C 326.914062 1222.175781 330.480469 1213.980469 337.613281 1207.90625 C 344.898438 1201.683594 355.214844 1198.039062 368.570312 1196.976562 L 402.257812 1194.246094 L 402.257812 1191.742188 C 402.257812 1186.578125 401.269531 1182.480469 399.296875 1179.445312 C 397.476562 1176.257812 394.820312 1173.980469 391.332031 1172.613281 C 387.84375 1171.09375 383.746094 1170.335938 379.039062 1170.335938 C 370.847656 1170.335938 364.546875 1172.003906 360.148438 1175.34375 C 355.746094 1178.535156 353.546875 1183.085938 353.546875 1189.007812 L 329.875 1189.007812 C 329.875 1180.808594 331.921875 1173.75 336.019531 1167.832031 C 340.269531 1161.757812 346.1875 1157.054688 353.773438 1153.714844 C 361.515625 1150.375 370.390625 1148.703125 380.40625 1148.703125 C 390.574219 1148.703125 399.296875 1150.523438 406.582031 1154.167969 C 413.867188 1157.660156 419.480469 1162.972656 423.425781 1170.109375 C 427.371094 1177.089844 429.34375 1185.820312 429.34375 1196.292969 L 429.34375 1264.609375 L 404.988281 1264.609375 L 402.941406 1247.984375 C 400.511719 1253.753906 395.808594 1258.460938 388.828125 1262.101562 C 382 1265.746094 374.183594 1267.566406 365.382812 1267.566406 Z M 374.261719 1246.617188 C 382.910156 1246.617188 389.738281 1244.191406 394.746094 1239.332031 C 399.90625 1234.472656 402.484375 1227.71875 402.484375 1219.066406 L 402.484375 1213.144531 L 379.039062 1214.96875 C 370.390625 1215.726562 364.246094 1217.546875 360.601562 1220.433594 C 356.960938 1223.164062 355.140625 1226.808594 355.140625 1231.363281 C 355.140625 1236.371094 356.808594 1240.167969 360.148438 1242.746094 C 363.488281 1245.328125 368.191406 1246.617188 374.261719 1246.617188 Z M 374.261719 1246.617188 "/><path style=" stroke:none;fill-rule:nonzero;fill:#000000;fill-opacity:1;" d="M 484.390625 1264.609375 L 456.621094 1264.609375 L 456.621094 1152.117188 L 482.34375 1152.117188 L 484.617188 1166.691406 C 488.109375 1161.074219 493.039062 1156.671875 499.414062 1153.484375 C 505.9375 1150.296875 512.996094 1148.703125 520.582031 1148.703125 C 534.695312 1148.703125 545.316406 1152.878906 552.449219 1161.226562 C 559.734375 1169.578125 563.375 1180.960938 563.375 1195.382812 L 563.375 1264.609375 L 535.605469 1264.609375 L 535.605469 1201.988281 C 535.605469 1192.574219 533.480469 1185.59375 529.230469 1181.039062 C 524.984375 1176.332031 519.214844 1173.980469 511.933594 1173.980469 C 503.28125 1173.980469 496.53125 1176.710938 491.675781 1182.175781 C 486.816406 1187.640625 484.390625 1194.929688 484.390625 1204.035156 Z M 484.390625 1264.609375 "/><path style=" stroke:none;fill-rule:nonzero;fill:#000000;fill-opacity:1;" d="M 590.664062 1264.609375 L 590.664062 1152.117188 L 618.433594 1152.117188 L 618.433594 1264.609375 Z M 604.320312 1129.574219 C 599.617188 1129.574219 595.59375 1127.980469 592.257812 1124.792969 C 589.070312 1121.453125 587.476562 1117.429688 587.476562 1112.726562 C 587.476562 1108.019531 589.070312 1104.074219 592.257812 1100.882812 C 595.59375 1097.695312 599.617188 1096.101562 604.320312 1096.101562 C 609.023438 1096.101562 612.96875 1097.695312 616.15625 1100.882812 C 619.496094 1104.074219 621.164062 1108.019531 621.164062 1112.726562 C 621.164062 1117.429688 619.496094 1121.453125 616.15625 1124.792969 C 612.96875 1127.980469 609.023438 1129.574219 604.320312 1129.574219 Z M 604.320312 1129.574219 "/><path style=" stroke:none;fill-rule:nonzero;fill:#000000;fill-opacity:1;" d="M 674.890625 1264.609375 L 647.121094 1264.609375 L 647.121094 1152.117188 L 672.839844 1152.117188 L 675.117188 1166.691406 C 678.605469 1161.074219 683.539062 1156.671875 689.910156 1153.484375 C 696.4375 1150.296875 703.492188 1148.703125 711.082031 1148.703125 C 725.191406 1148.703125 735.816406 1152.878906 742.945312 1161.226562 C 750.230469 1169.578125 753.871094 1180.960938 753.871094 1195.382812 L 753.871094 1264.609375 L 726.101562 1264.609375 L 726.101562 1201.988281 C 726.101562 1192.574219 723.980469 1185.59375 719.730469 1181.039062 C 715.480469 1176.332031 709.714844 1173.980469 702.429688 1173.980469 C 693.78125 1173.980469 687.027344 1176.710938 682.171875 1182.175781 C 677.316406 1187.640625 674.890625 1194.929688 674.890625 1204.035156 Z M 674.890625 1264.609375 "/><path style=" stroke:none;fill-rule:nonzero;fill:#000000;fill-opacity:1;" d="M 774.78125 1205.859375 C 774.78125 1194.929688 776.984375 1185.210938 781.382812 1176.710938 C 785.9375 1168.058594 792.234375 1161.226562 800.277344 1156.21875 C 808.316406 1151.207031 817.652344 1148.703125 828.273438 1148.703125 C 837.832031 1148.703125 846.027344 1150.828125 852.855469 1155.078125 C 859.683594 1159.179688 864.464844 1164.945312 867.195312 1172.386719 L 864.238281 1174.890625 L 866.511719 1152.117188 L 892.234375 1152.117188 L 892.234375 1258.914062 C 892.234375 1271.363281 889.804688 1282.140625 884.949219 1291.25 C 880.246094 1300.511719 873.492188 1307.570312 864.691406 1312.425781 C 856.042969 1317.4375 845.570312 1319.941406 833.28125 1319.941406 C 817.195312 1319.941406 803.992188 1315.613281 793.675781 1306.960938 C 783.355469 1298.308594 777.285156 1286.46875 775.464844 1271.4375 L 803.234375 1271.4375 C 804.144531 1278.726562 807.179688 1284.417969 812.339844 1288.515625 C 817.652344 1292.617188 824.628906 1294.664062 833.28125 1294.664062 C 842.839844 1294.664062 850.425781 1291.855469 856.042969 1286.238281 C 861.808594 1280.773438 864.691406 1273.335938 864.691406 1263.925781 L 864.691406 1235.917969 L 867.878906 1238.875 C 865.148438 1246.011719 860.140625 1251.703125 852.855469 1255.953125 C 845.570312 1260.207031 837.148438 1262.332031 827.589844 1262.332031 C 816.96875 1262.332031 807.710938 1259.902344 799.820312 1255.042969 C 791.929688 1250.1875 785.785156 1243.507812 781.382812 1235.003906 C 776.984375 1226.503906 774.78125 1216.789062 774.78125 1205.859375 Z M 802.78125 1205.175781 C 802.78125 1211.550781 803.992188 1217.242188 806.421875 1222.253906 C 809 1227.113281 812.566406 1230.984375 817.121094 1233.867188 C 821.671875 1236.75 826.984375 1238.191406 833.054688 1238.191406 C 839.425781 1238.191406 844.890625 1236.828125 849.441406 1234.09375 C 854.144531 1231.210938 857.710938 1227.339844 860.140625 1222.480469 C 862.71875 1217.472656 864.007812 1211.703125 864.007812 1205.175781 C 864.007812 1198.648438 862.796875 1193.03125 860.367188 1188.324219 C 857.9375 1183.46875 854.375 1179.671875 849.667969 1176.9375 C 845.117188 1174.207031 839.578125 1172.839844 833.054688 1172.839844 C 826.832031 1172.839844 821.445312 1174.28125 816.890625 1177.167969 C 812.339844 1179.898438 808.847656 1183.695312 806.421875 1188.550781 C 803.992188 1193.410156 802.78125 1198.953125 802.78125 1205.175781 Z M 802.78125 1205.175781 "/><path style=" stroke:none;fill-rule:nonzero;fill:#000000;fill-opacity:1;" d="M 909.824219 1152.117188 L 980.386719 1152.117188 L 980.386719 1175.34375 L 909.824219 1175.34375 Z M 980.613281 1096.332031 L 980.613281 1120.011719 C 979.097656 1120.011719 977.503906 1120.011719 975.832031 1120.011719 C 974.316406 1120.011719 972.722656 1120.011719 971.054688 1120.011719 C 964.074219 1120.011719 959.367188 1121.683594 956.941406 1125.023438 C 954.664062 1128.363281 953.527344 1132.839844 953.527344 1138.457031 L 953.527344 1264.609375 L 925.984375 1264.609375 L 925.984375 1138.457031 C 925.984375 1128.132812 927.652344 1119.859375 930.992188 1113.636719 C 934.332031 1107.261719 939.035156 1102.628906 945.105469 1099.746094 C 951.175781 1096.710938 958.230469 1095.191406 966.273438 1095.191406 C 968.550781 1095.191406 970.902344 1095.269531 973.328125 1095.417969 C 975.910156 1095.570312 978.335938 1095.875 980.613281 1096.332031 Z M 980.613281 1096.332031 "/><path style=" stroke:none;fill-rule:nonzero;fill:#000000;fill-opacity:1;" d="M 1074.359375 1152.117188 L 1102.128906 1152.117188 L 1102.128906 1264.609375 L 1076.410156 1264.609375 L 1074.359375 1249.578125 C 1071.023438 1254.890625 1066.015625 1259.21875 1059.339844 1262.558594 C 1052.660156 1265.898438 1045.527344 1267.566406 1037.941406 1267.566406 C 1025.042969 1267.566406 1014.953125 1263.46875 1007.667969 1255.273438 C 1000.382812 1247.074219 996.742188 1236.144531 996.742188 1222.480469 L 996.742188 1152.117188 L 1024.511719 1152.117188 L 1024.511719 1212.691406 C 1024.511719 1223.316406 1026.5625 1230.984375 1030.65625 1235.6875 C 1034.753906 1240.394531 1040.671875 1242.746094 1048.414062 1242.746094 C 1057.214844 1242.746094 1063.738281 1240.167969 1067.988281 1235.003906 C 1072.238281 1229.691406 1074.359375 1221.722656 1074.359375 1211.097656 Z M 1074.359375 1152.117188 "/><path style=" stroke:none;fill-rule:nonzero;fill:#000000;fill-opacity:1;" d="M 1131.265625 1095.191406 L 1158.808594 1095.191406 L 1158.808594 1264.609375 L 1131.265625 1264.609375 Z M 1131.265625 1095.191406 "/><path style=" stroke:none;fill-rule:nonzero;fill:#000000;fill-opacity:1;" d="M 38.394531 1319.535156 L 38.394531 1485.992188 L 9.261719 1485.992188 L 9.261719 1319.535156 Z M 75.042969 1428.609375 L 31.339844 1428.609375 L 31.339844 1402.648438 L 68.894531 1402.648438 C 78.910156 1402.648438 86.5 1400.144531 91.660156 1395.136719 C 96.96875 1389.972656 99.625 1382.839844 99.625 1373.730469 C 99.625 1364.621094 96.96875 1357.640625 91.660156 1352.78125 C 86.5 1347.925781 79.0625 1345.496094 69.351562 1345.496094 L 28.609375 1345.496094 L 28.609375 1319.535156 L 75.042969 1319.535156 C 86.269531 1319.535156 95.984375 1321.8125 104.175781 1326.367188 C 112.371094 1330.921875 118.746094 1337.296875 123.296875 1345.496094 C 127.851562 1353.539062 130.125 1363.027344 130.125 1373.957031 C 130.125 1384.585938 127.851562 1394.074219 123.296875 1402.421875 C 118.746094 1410.621094 112.371094 1417.070312 104.175781 1421.777344 C 95.984375 1426.332031 86.269531 1428.609375 75.042969 1428.609375 Z M 75.042969 1428.609375 "/><path style=" stroke:none;fill-rule:nonzero;fill:#000000;fill-opacity:1;" d="M 150.992188 1316.574219 L 178.53125 1316.574219 L 178.53125 1485.992188 L 150.992188 1485.992188 Z M 150.992188 1316.574219 "/><path style=" stroke:none;fill-rule:nonzero;fill:#000000;fill-opacity:1;" d="M 241.121094 1488.953125 C 229.285156 1488.953125 219.878906 1485.765625 212.898438 1479.386719 C 206.070312 1472.859375 202.65625 1464.359375 202.65625 1453.886719 C 202.65625 1443.5625 206.21875 1435.363281 213.351562 1429.292969 C 220.636719 1423.066406 230.957031 1419.425781 244.308594 1418.363281 L 277.996094 1415.628906 L 277.996094 1413.125 C 277.996094 1407.964844 277.011719 1403.863281 275.039062 1400.828125 C 273.214844 1397.640625 270.5625 1395.363281 267.070312 1393.996094 C 263.582031 1392.480469 259.484375 1391.71875 254.777344 1391.71875 C 246.585938 1391.71875 240.289062 1393.390625 235.886719 1396.730469 C 231.484375 1399.917969 229.285156 1404.472656 229.285156 1410.390625 L 205.613281 1410.390625 C 205.613281 1402.195312 207.660156 1395.136719 211.757812 1389.214844 C 216.007812 1383.144531 221.925781 1378.4375 229.511719 1375.097656 C 237.253906 1371.757812 246.128906 1370.085938 256.144531 1370.085938 C 266.3125 1370.085938 275.039062 1371.910156 282.320312 1375.554688 C 289.605469 1379.042969 295.21875 1384.359375 299.164062 1391.492188 C 303.109375 1398.476562 305.082031 1407.203125 305.082031 1417.679688 L 305.082031 1485.992188 L 280.726562 1485.992188 L 278.679688 1469.371094 C 276.25 1475.136719 271.546875 1479.84375 264.566406 1483.488281 C 257.738281 1487.128906 249.921875 1488.953125 241.121094 1488.953125 Z M 250 1468.003906 C 258.648438 1468.003906 265.476562 1465.574219 270.484375 1460.714844 C 275.644531 1455.859375 278.222656 1449.101562 278.222656 1440.449219 L 278.222656 1434.53125 L 254.777344 1436.351562 C 246.128906 1437.109375 239.984375 1438.933594 236.34375 1441.816406 C 232.699219 1444.546875 230.878906 1448.191406 230.878906 1452.746094 C 230.878906 1457.757812 232.546875 1461.550781 235.886719 1464.132812 C 239.226562 1466.710938 243.929688 1468.003906 250 1468.003906 Z M 250 1468.003906 "/><path style=" stroke:none;fill-rule:nonzero;fill:#000000;fill-opacity:1;" d="M 360.136719 1485.992188 L 332.367188 1485.992188 L 332.367188 1373.503906 L 358.085938 1373.503906 L 360.363281 1388.078125 C 363.851562 1382.460938 368.785156 1378.058594 375.160156 1374.871094 C 381.683594 1371.683594 388.738281 1370.085938 396.328125 1370.085938 C 410.4375 1370.085938 421.0625 1374.261719 428.195312 1382.613281 C 435.476562 1390.960938 439.121094 1402.347656 439.121094 1416.769531 L 439.121094 1485.992188 L 411.351562 1485.992188 L 411.351562 1423.371094 C 411.351562 1413.960938 409.226562 1406.976562 404.976562 1402.421875 C 400.726562 1397.714844 394.960938 1395.363281 387.675781 1395.363281 C 379.027344 1395.363281 372.273438 1398.097656 367.417969 1403.5625 C 362.5625 1409.027344 360.136719 1416.3125 360.136719 1425.421875 Z M 360.136719 1485.992188 "/><path style=" stroke:none;fill-rule:nonzero;fill:#000000;fill-opacity:1;" d="M 516.707031 1488.953125 C 505.628906 1488.953125 495.765625 1486.449219 487.117188 1481.4375 C 478.617188 1476.277344 471.941406 1469.292969 467.085938 1460.488281 C 462.230469 1451.53125 459.800781 1441.285156 459.800781 1429.746094 C 459.800781 1418.058594 462.152344 1407.734375 466.855469 1398.777344 C 471.5625 1389.824219 478.164062 1382.839844 486.660156 1377.828125 C 495.15625 1372.667969 504.871094 1370.085938 515.796875 1370.085938 C 527.175781 1370.085938 536.964844 1372.515625 545.160156 1377.375 C 553.351562 1382.082031 559.648438 1388.683594 564.050781 1397.183594 C 568.601562 1405.6875 570.878906 1415.859375 570.878906 1427.699219 L 570.878906 1436.125 L 474.367188 1436.351562 L 474.824219 1418.589844 L 543.335938 1418.589844 C 543.335938 1410.847656 540.832031 1404.625 535.824219 1399.917969 C 530.96875 1395.210938 524.371094 1392.859375 516.023438 1392.859375 C 509.5 1392.859375 503.960938 1394.226562 499.40625 1396.957031 C 495.007812 1399.691406 491.667969 1403.789062 489.390625 1409.253906 C 487.117188 1414.71875 485.976562 1421.398438 485.976562 1429.292969 C 485.976562 1441.4375 488.558594 1450.621094 493.714844 1456.84375 C 499.027344 1463.070312 506.84375 1466.179688 517.160156 1466.179688 C 524.75 1466.179688 530.96875 1464.738281 535.824219 1461.855469 C 540.832031 1458.96875 544.097656 1454.871094 545.613281 1449.558594 L 571.335938 1449.558594 C 568.90625 1461.855469 562.835938 1471.496094 553.125 1478.476562 C 543.566406 1485.460938 531.425781 1488.953125 516.707031 1488.953125 Z M 516.707031 1488.953125 "/><path style=" stroke:none;fill-rule:nonzero;fill:#000000;fill-opacity:1;" d="M 580.84375 1373.503906 L 651.863281 1373.503906 L 651.863281 1396.730469 L 580.84375 1396.730469 Z M 630.238281 1485.992188 L 602.46875 1485.992188 L 602.46875 1338.4375 L 630.238281 1338.4375 Z M 630.238281 1485.992188 "/><g clip-rule="nonzero" clip-path="url(#672455ad0f)"><path style=" stroke:none;fill-rule:nonzero;fill:#032d10;fill-opacity:1;" d="M 185.183594 834.15625 C 263.921875 894.9375 362.652344 930.941406 469.757812 930.507812 C 512.261719 926.773438 555.261719 918.828125 594.734375 904.609375 C 633.335938 890.742188 668.738281 870.78125 696.753906 842.636719 C 733.292969 806.042969 748.835938 770.277344 748.5 740.53125 C 748.148438 710.269531 730.875 687.277344 702.988281 676.0625 C 673.527344 664.511719 632.578125 665.789062 585.101562 686.871094 C 556.652344 699.449219 526.292969 715.546875 494.542969 732.335938 C 396.664062 783.960938 287.261719 841.78125 185.199219 834.144531 Z M 185.183594 834.15625 "/></g><g clip-rule="nonzero" clip-path="url(#fb5aa9bab7)"><path style=" stroke:none;fill-rule:nonzero;fill:#256751;fill-opacity:1;" d="M 393.335938 11.351562 C 294.378906 27.480469 206.277344 74.6875 138.929688 142.765625 C 82.378906 200.105469 40.433594 272.070312 19.890625 352.472656 C 35.898438 335.417969 54.183594 320.625 73.898438 309.308594 C 137.046875 273.445312 204.367188 263.269531 271.503906 253.261719 C 331.128906 244.347656 390.402344 235.265625 440.996094 207.347656 C 481.988281 184.71875 508.0625 152.914062 518.203125 121.019531 C 523.539062 104.375 524.492188 88.105469 520.730469 73.421875 C 517.148438 59.441406 509.382812 46.726562 496.898438 36.648438 C 475.808594 19.28125 441.613281 8.980469 393.335938 11.351562 Z M 393.335938 11.351562 "/></g><g clip-rule="nonzero" clip-path="url(#75ac3bebbf)"><path style=" stroke:none;fill-rule:nonzero;fill:#032d10;fill-opacity:1;" d="M 912.65625 339.207031 C 890.34375 262.371094 848.832031 193.675781 793.394531 139.074219 C 731.621094 78.027344 652.632812 34.21875 564.5 15.464844 C 573.320312 28.363281 579.527344 42.667969 583.289062 57.6875 C 590.085938 84.0625 588.683594 112.585938 579.738281 140.617188 C 564.949219 187.050781 528.453125 232.570312 472.285156 263.84375 C 411.226562 297.605469 346.183594 307.246094 280.96875 317.058594 C 219.941406 326.324219 158.574219 335.417969 105.902344 365.625 C 1.636719 402.429688 -50.558594 610.875 115.675781 608.363281 C 234.824219 605.066406 312.675781 537.449219 390.867188 469.484375 L 397.660156 463.503906 C 443.453125 423.710938 495.734375 382.835938 552.425781 350.507812 C 610.6875 317.296875 673.722656 293.140625 739.148438 288.410156 C 754.019531 287.273438 768.371094 287.1875 782.371094 288.171875 C 832.09375 291.734375 877.15625 307.921875 912.683594 339.207031 Z M 912.65625 339.207031 "/></g><g clip-rule="nonzero" clip-path="url(#cec8022991)"><path style=" stroke:none;fill-rule:nonzero;fill:#256751;fill-opacity:1;" d="M 807.367188 782.53125 C 872.761719 712.011719 928.875 608.488281 921.839844 509.699219 C 917.867188 456.375 900.847656 417.984375 875.5 392.941406 C 850.503906 368.238281 816.3125 355.324219 777.976562 352.738281 C 766.769531 351.925781 755.394531 351.996094 743.851562 352.753906 C 689.101562 356.742188 635.148438 377.683594 584.386719 406.65625 C 531.878906 436.695312 482.929688 474.929688 439.914062 512.421875 L 432.949219 518.414062 C 346.222656 593.777344 259.847656 668.777344 117.429688 672.734375 C 91.535156 673.410156 69.125 670.910156 49.492188 665.421875 C 54.28125 675.542969 59.40625 685.664062 64.882812 695.25 C 170.652344 830.566406 329.949219 746.402344 464.292969 675.320312 C 497.617188 657.816406 529.550781 640.84375 558.871094 627.902344 C 623.632812 599.195312 682.597656 598.507812 726.972656 616.113281 C 779.238281 636.984375 812.40625 683.320312 812.898438 739.816406 C 813.152344 753.628906 811.3125 767.820312 807.367188 782.53125 Z M 807.367188 782.53125 "/></g></g></svg>