<svg xmlns="http://www.w3.org/2000/svg" xmlns:xlink="http://www.w3.org/1999/xlink" width="1550" zoomAndPan="magnify" viewBox="0 0 1163.0399 1499.999933" height="2000" preserveAspectRatio="xMidYMid meet" version="1.2"><defs><clipPath id="2b7f2461ce"><path d="M 185 668 L 749 668 L 749 930.507812 L 185 930.507812 Z M 185 668 "/></clipPath><clipPath id="2305ea2530"><path d="M 19 11.015625 L 524 11.015625 L 524 353 L 19 353 Z M 19 11.015625 "/></clipPath><clipPath id="87602021a4"><path d="M 8.460938 15 L 913 15 L 913 609 L 8.460938 609 Z M 8.460938 15 "/></clipPath><clipPath id="691f66a63f"><path d="M 49 352 L 922.707031 352 L 922.707031 783 L 49 783 Z M 49 352 "/></clipPath><clipPath id="f547f8d713"><path d="M 185 668 L 749 668 L 749 930.507812 L 185 930.507812 Z M 185 668 "/></clipPath><clipPath id="5edbea25ce"><path d="M 19 11.015625 L 524 11.015625 L 524 353 L 19 353 Z M 19 11.015625 "/></clipPath><clipPath id="62bfc4f941"><path d="M 8.460938 15 L 913 15 L 913 609 L 8.460938 609 Z M 8.460938 15 "/></clipPath><clipPath id="dff1938eb5"><path d="M 49 352 L 922.707031 352 L 922.707031 783 L 49 783 Z M 49 352 "/></clipPath></defs><g id="5c91272ea9"><path style=" stroke:none;fill-rule:nonzero;fill:#ffffff;fill-opacity:1;" d="M 37.519531 1264.410156 L 9.296875 1264.410156 L 9.296875 1098.019531 L 37.519531 1098.019531 L 91.238281 1230.496094 L 144.957031 1098.019531 L 173.636719 1098.019531 L 173.636719 1264.410156 L 145.414062 1264.410156 L 145.414062 1213.195312 C 145.414062 1204.851562 145.414062 1197.871094 145.414062 1192.253906 C 145.414062 1186.488281 145.488281 1181.632812 145.640625 1177.6875 C 145.792969 1173.742188 145.945312 1170.253906 146.097656 1167.21875 C 146.246094 1164.183594 146.550781 1161.148438 147.007812 1158.113281 L 104.667969 1264.410156 L 77.808594 1264.410156 L 35.699219 1158.339844 C 36.460938 1163.347656 36.914062 1169.722656 37.066406 1177.460938 C 37.371094 1185.199219 37.519531 1194.304688 37.519531 1204.773438 Z M 37.519531 1264.410156 "/><path style=" stroke:none;fill-rule:nonzero;fill:#ffffff;fill-opacity:1;" d="M 256.667969 1267.371094 C 245.589844 1267.371094 235.726562 1264.867188 227.078125 1259.859375 C 218.578125 1254.699219 211.902344 1247.71875 207.046875 1238.917969 C 202.191406 1229.964844 199.761719 1219.722656 199.761719 1208.1875 C 199.761719 1196.503906 202.117188 1186.1875 206.820312 1177.234375 C 211.523438 1168.28125 218.125 1161.300781 226.621094 1156.292969 C 235.121094 1151.132812 244.832031 1148.554688 255.757812 1148.554688 C 267.140625 1148.554688 276.925781 1150.980469 285.121094 1155.835938 C 293.316406 1160.539062 299.613281 1167.140625 304.011719 1175.640625 C 308.566406 1184.136719 310.839844 1194.304688 310.839844 1206.140625 L 310.839844 1214.5625 L 214.332031 1214.789062 L 214.785156 1197.035156 L 283.300781 1197.035156 C 283.300781 1189.296875 280.796875 1183.074219 275.789062 1178.371094 C 270.933594 1173.667969 264.332031 1171.316406 255.984375 1171.316406 C 249.460938 1171.316406 243.921875 1172.679688 239.367188 1175.410156 C 234.96875 1178.144531 231.628906 1182.242188 229.355469 1187.703125 C 227.078125 1193.167969 225.941406 1199.84375 225.941406 1207.734375 C 225.941406 1219.875 228.519531 1229.054688 233.679688 1235.277344 C 238.988281 1241.496094 246.804688 1244.609375 257.125 1244.609375 C 264.710938 1244.609375 270.933594 1243.167969 275.789062 1240.285156 C 280.796875 1237.398438 284.058594 1233.304688 285.574219 1227.992188 L 311.296875 1227.992188 C 308.867188 1240.285156 302.800781 1249.917969 293.085938 1256.898438 C 283.527344 1263.878906 271.386719 1267.371094 256.667969 1267.371094 Z M 256.667969 1267.371094 "/><path style=" stroke:none;fill-rule:nonzero;fill:#ffffff;fill-opacity:1;" d="M 365.417969 1267.371094 C 353.582031 1267.371094 344.175781 1264.183594 337.195312 1257.808594 C 330.367188 1251.285156 326.953125 1242.789062 326.953125 1232.316406 C 326.953125 1222 330.519531 1213.804688 337.648438 1207.734375 C 344.933594 1201.511719 355.253906 1197.871094 368.605469 1196.808594 L 402.292969 1194.078125 L 402.292969 1191.574219 C 402.292969 1186.414062 401.308594 1182.316406 399.335938 1179.28125 C 397.515625 1176.09375 394.859375 1173.820312 391.367188 1172.453125 C 387.878906 1170.933594 383.78125 1170.175781 379.078125 1170.175781 C 370.882812 1170.175781 364.585938 1171.847656 360.183594 1175.183594 C 355.785156 1178.371094 353.582031 1182.921875 353.582031 1188.839844 L 329.910156 1188.839844 C 329.910156 1180.648438 331.960938 1173.589844 336.058594 1167.671875 C 340.304688 1161.601562 346.222656 1156.898438 353.8125 1153.558594 C 361.550781 1150.222656 370.425781 1148.554688 380.441406 1148.554688 C 390.609375 1148.554688 399.335938 1150.375 406.617188 1154.015625 C 413.902344 1157.507812 419.515625 1162.816406 423.460938 1169.949219 C 427.40625 1176.929688 429.378906 1185.65625 429.378906 1196.125 L 429.378906 1264.410156 L 405.027344 1264.410156 L 402.976562 1247.796875 C 400.550781 1253.5625 395.84375 1258.265625 388.863281 1261.90625 C 382.035156 1265.550781 374.222656 1267.371094 365.417969 1267.371094 Z M 374.296875 1246.429688 C 382.945312 1246.429688 389.773438 1244 394.78125 1239.144531 C 399.941406 1234.289062 402.523438 1227.535156 402.523438 1218.886719 L 402.523438 1212.96875 L 379.078125 1214.789062 C 370.425781 1215.550781 364.28125 1217.371094 360.640625 1220.253906 C 356.996094 1222.984375 355.175781 1226.625 355.175781 1231.179688 C 355.175781 1236.1875 356.847656 1239.980469 360.183594 1242.558594 C 363.523438 1245.140625 368.226562 1246.429688 374.296875 1246.429688 Z M 374.296875 1246.429688 "/><path style=" stroke:none;fill-rule:nonzero;fill:#ffffff;fill-opacity:1;" d="M 484.425781 1264.410156 L 456.65625 1264.410156 L 456.65625 1151.96875 L 482.378906 1151.96875 L 484.65625 1166.535156 C 488.144531 1160.921875 493.078125 1156.519531 499.449219 1153.332031 C 505.976562 1150.144531 513.03125 1148.554688 520.617188 1148.554688 C 534.730469 1148.554688 545.351562 1152.726562 552.484375 1161.070312 C 559.769531 1169.417969 563.410156 1180.800781 563.410156 1195.214844 L 563.410156 1264.410156 L 535.640625 1264.410156 L 535.640625 1201.816406 C 535.640625 1192.40625 533.515625 1185.425781 529.269531 1180.875 C 525.019531 1176.171875 519.253906 1173.820312 511.96875 1173.820312 C 503.320312 1173.820312 496.566406 1176.550781 491.710938 1182.011719 C 486.855469 1187.476562 484.425781 1194.757812 484.425781 1203.863281 Z M 484.425781 1264.410156 "/><path style=" stroke:none;fill-rule:nonzero;fill:#ffffff;fill-opacity:1;" d="M 590.699219 1264.410156 L 590.699219 1151.96875 L 618.46875 1151.96875 L 618.46875 1264.410156 Z M 604.355469 1129.433594 C 599.652344 1129.433594 595.632812 1127.839844 592.292969 1124.652344 C 589.105469 1121.3125 587.511719 1117.292969 587.511719 1112.589844 C 587.511719 1107.886719 589.105469 1103.941406 592.292969 1100.753906 C 595.632812 1097.566406 599.652344 1095.972656 604.355469 1095.972656 C 609.0625 1095.972656 613.007812 1097.566406 616.191406 1100.753906 C 619.53125 1103.941406 621.199219 1107.886719 621.199219 1112.589844 C 621.199219 1117.292969 619.53125 1121.3125 616.191406 1124.652344 C 613.007812 1127.839844 609.0625 1129.433594 604.355469 1129.433594 Z M 604.355469 1129.433594 "/><path style=" stroke:none;fill-rule:nonzero;fill:#ffffff;fill-opacity:1;" d="M 674.925781 1264.410156 L 647.15625 1264.410156 L 647.15625 1151.96875 L 672.875 1151.96875 L 675.152344 1166.535156 C 678.644531 1160.921875 683.574219 1156.519531 689.949219 1153.332031 C 696.472656 1150.144531 703.53125 1148.554688 711.117188 1148.554688 C 725.230469 1148.554688 735.851562 1152.726562 742.984375 1161.070312 C 750.265625 1169.417969 753.910156 1180.800781 753.910156 1195.214844 L 753.910156 1264.410156 L 726.140625 1264.410156 L 726.140625 1201.816406 C 726.140625 1192.40625 724.015625 1185.425781 719.765625 1180.875 C 715.515625 1176.171875 709.75 1173.820312 702.46875 1173.820312 C 693.816406 1173.820312 687.066406 1176.550781 682.210938 1182.011719 C 677.351562 1187.476562 674.925781 1194.757812 674.925781 1203.863281 Z M 674.925781 1264.410156 "/><path style=" stroke:none;fill-rule:nonzero;fill:#ffffff;fill-opacity:1;" d="M 774.820312 1205.683594 C 774.820312 1194.757812 777.019531 1185.046875 781.417969 1176.550781 C 785.972656 1167.902344 792.269531 1161.070312 800.3125 1156.0625 C 808.355469 1151.058594 817.6875 1148.554688 828.308594 1148.554688 C 837.871094 1148.554688 846.0625 1150.675781 852.890625 1154.925781 C 859.71875 1159.023438 864.5 1164.789062 867.230469 1172.226562 L 864.273438 1174.730469 L 866.550781 1151.96875 L 892.269531 1151.96875 L 892.269531 1258.722656 C 892.269531 1271.164062 889.84375 1281.9375 884.988281 1291.042969 C 880.28125 1300.300781 873.53125 1307.355469 864.726562 1312.210938 C 856.078125 1317.21875 845.609375 1319.722656 833.316406 1319.722656 C 817.230469 1319.722656 804.03125 1315.398438 793.710938 1306.75 C 783.390625 1298.097656 777.324219 1286.261719 775.5 1271.238281 L 803.269531 1271.238281 C 804.179688 1278.523438 807.214844 1284.214844 812.375 1288.3125 C 817.6875 1292.410156 824.667969 1294.457031 833.316406 1294.457031 C 842.875 1294.457031 850.464844 1291.648438 856.078125 1286.035156 C 861.84375 1280.570312 864.726562 1273.136719 864.726562 1263.726562 L 864.726562 1235.730469 L 867.914062 1238.691406 C 865.183594 1245.824219 860.175781 1251.511719 852.890625 1255.761719 C 845.609375 1260.011719 837.1875 1262.136719 827.625 1262.136719 C 817.003906 1262.136719 807.746094 1259.707031 799.855469 1254.851562 C 791.964844 1249.996094 785.820312 1243.320312 781.417969 1234.820312 C 777.019531 1226.324219 774.820312 1216.609375 774.820312 1205.683594 Z M 802.816406 1205.003906 C 802.816406 1211.375 804.03125 1217.066406 806.457031 1222.074219 C 809.039062 1226.929688 812.601562 1230.800781 817.15625 1233.683594 C 821.707031 1236.566406 827.019531 1238.007812 833.089844 1238.007812 C 839.460938 1238.007812 844.925781 1236.640625 849.476562 1233.910156 C 854.183594 1231.027344 857.746094 1227.15625 860.175781 1222.300781 C 862.753906 1217.292969 864.046875 1211.527344 864.046875 1205.003906 C 864.046875 1198.476562 862.832031 1192.863281 860.402344 1188.160156 C 857.976562 1183.304688 854.410156 1179.507812 849.707031 1176.777344 C 845.152344 1174.046875 839.613281 1172.679688 833.089844 1172.679688 C 826.867188 1172.679688 821.480469 1174.121094 816.929688 1177.003906 C 812.375 1179.738281 808.886719 1183.53125 806.457031 1188.386719 C 804.03125 1193.242188 802.816406 1198.78125 802.816406 1205.003906 Z M 802.816406 1205.003906 "/><path style=" stroke:none;fill-rule:nonzero;fill:#ffffff;fill-opacity:1;" d="M 909.859375 1151.96875 L 980.421875 1151.96875 L 980.421875 1175.183594 L 909.859375 1175.183594 Z M 980.648438 1096.199219 L 980.648438 1119.871094 C 979.132812 1119.871094 977.539062 1119.871094 975.871094 1119.871094 C 974.351562 1119.871094 972.757812 1119.871094 971.089844 1119.871094 C 964.109375 1119.871094 959.40625 1121.542969 956.976562 1124.878906 C 954.699219 1128.21875 953.5625 1132.695312 953.5625 1138.308594 L 953.5625 1264.410156 L 926.019531 1264.410156 L 926.019531 1138.308594 C 926.019531 1127.992188 927.691406 1119.722656 931.027344 1113.5 C 934.367188 1107.125 939.070312 1102.496094 945.140625 1099.613281 C 951.210938 1096.578125 958.265625 1095.0625 966.308594 1095.0625 C 968.585938 1095.0625 970.9375 1095.136719 973.367188 1095.289062 C 975.945312 1095.441406 978.375 1095.746094 980.648438 1096.199219 Z M 980.648438 1096.199219 "/><path style=" stroke:none;fill-rule:nonzero;fill:#ffffff;fill-opacity:1;" d="M 1074.398438 1151.96875 L 1102.167969 1151.96875 L 1102.167969 1264.410156 L 1076.445312 1264.410156 L 1074.398438 1249.386719 C 1071.058594 1254.699219 1066.050781 1259.023438 1059.375 1262.363281 C 1052.699219 1265.699219 1045.566406 1267.371094 1037.976562 1267.371094 C 1025.078125 1267.371094 1014.988281 1263.273438 1007.703125 1255.078125 C 1000.421875 1246.882812 996.777344 1235.957031 996.777344 1222.300781 L 996.777344 1151.96875 L 1024.546875 1151.96875 L 1024.546875 1212.515625 C 1024.546875 1223.136719 1026.597656 1230.800781 1030.695312 1235.503906 C 1034.792969 1240.207031 1040.710938 1242.558594 1048.449219 1242.558594 C 1057.25 1242.558594 1063.773438 1239.980469 1068.023438 1234.820312 C 1072.273438 1229.507812 1074.398438 1221.542969 1074.398438 1210.921875 Z M 1074.398438 1151.96875 "/><path style=" stroke:none;fill-rule:nonzero;fill:#ffffff;fill-opacity:1;" d="M 1131.300781 1095.0625 L 1158.84375 1095.0625 L 1158.84375 1264.410156 L 1131.300781 1264.410156 Z M 1131.300781 1095.0625 "/><path style=" stroke:none;fill-rule:nonzero;fill:#ffffff;fill-opacity:1;" d="M 38.433594 1319.316406 L 38.433594 1485.707031 L 9.296875 1485.707031 L 9.296875 1319.316406 Z M 75.078125 1428.347656 L 31.375 1428.347656 L 31.375 1402.398438 L 68.933594 1402.398438 C 78.949219 1402.398438 86.535156 1399.894531 91.695312 1394.886719 C 97.003906 1389.726562 99.660156 1382.597656 99.660156 1373.492188 C 99.660156 1364.386719 97.003906 1357.40625 91.695312 1352.550781 C 86.535156 1347.695312 79.101562 1345.265625 69.386719 1345.265625 L 28.644531 1345.265625 L 28.644531 1319.316406 L 75.078125 1319.316406 C 86.308594 1319.316406 96.019531 1321.59375 104.214844 1326.148438 C 112.40625 1330.699219 118.78125 1337.074219 123.332031 1345.265625 C 127.886719 1353.308594 130.164062 1362.792969 130.164062 1373.71875 C 130.164062 1384.339844 127.886719 1393.824219 123.332031 1402.171875 C 118.78125 1410.367188 112.40625 1416.816406 104.214844 1421.519531 C 96.019531 1426.070312 86.308594 1428.347656 75.078125 1428.347656 Z M 75.078125 1428.347656 "/><path style=" stroke:none;fill-rule:nonzero;fill:#ffffff;fill-opacity:1;" d="M 151.027344 1316.359375 L 178.570312 1316.359375 L 178.570312 1485.707031 L 151.027344 1485.707031 Z M 151.027344 1316.359375 "/><path style=" stroke:none;fill-rule:nonzero;fill:#ffffff;fill-opacity:1;" d="M 241.160156 1488.667969 C 229.320312 1488.667969 219.914062 1485.480469 212.933594 1479.105469 C 206.105469 1472.582031 202.691406 1464.085938 202.691406 1453.613281 C 202.691406 1443.292969 206.257812 1435.101562 213.390625 1429.03125 C 220.671875 1422.808594 230.992188 1419.167969 244.34375 1418.105469 L 278.03125 1415.375 L 278.03125 1412.871094 C 278.03125 1407.710938 277.046875 1403.613281 275.074219 1400.578125 C 273.253906 1397.390625 270.597656 1395.117188 267.105469 1393.75 C 263.617188 1392.230469 259.519531 1391.472656 254.816406 1391.472656 C 246.621094 1391.472656 240.324219 1393.144531 235.921875 1396.480469 C 231.523438 1399.667969 229.320312 1404.21875 229.320312 1410.136719 L 205.648438 1410.136719 C 205.648438 1401.945312 207.699219 1394.886719 211.796875 1388.96875 C 216.042969 1382.898438 221.960938 1378.195312 229.550781 1374.855469 C 237.289062 1371.519531 246.167969 1369.851562 256.179688 1369.851562 C 266.347656 1369.851562 275.074219 1371.671875 282.359375 1375.3125 C 289.640625 1378.800781 295.257812 1384.113281 299.203125 1391.246094 C 303.148438 1398.226562 305.121094 1406.953125 305.121094 1417.421875 L 305.121094 1485.707031 L 280.765625 1485.707031 L 278.714844 1469.089844 C 276.289062 1474.859375 271.582031 1479.5625 264.601562 1483.203125 C 257.773438 1486.847656 249.960938 1488.667969 241.160156 1488.667969 Z M 250.035156 1467.726562 C 258.683594 1467.726562 265.515625 1465.296875 270.519531 1460.441406 C 275.679688 1455.585938 278.261719 1448.832031 278.261719 1440.183594 L 278.261719 1434.265625 L 254.816406 1436.085938 C 246.167969 1436.84375 240.019531 1438.667969 236.378906 1441.550781 C 232.738281 1444.28125 230.914062 1447.921875 230.914062 1452.476562 C 230.914062 1457.484375 232.585938 1461.277344 235.921875 1463.855469 C 239.261719 1466.4375 243.964844 1467.726562 250.035156 1467.726562 Z M 250.035156 1467.726562 "/><path style=" stroke:none;fill-rule:nonzero;fill:#ffffff;fill-opacity:1;" d="M 360.171875 1485.707031 L 332.402344 1485.707031 L 332.402344 1373.265625 L 358.125 1373.265625 L 360.398438 1387.832031 C 363.890625 1382.21875 368.820312 1377.816406 375.195312 1374.628906 C 381.71875 1371.441406 388.777344 1369.851562 396.363281 1369.851562 C 410.476562 1369.851562 421.097656 1374.023438 428.230469 1382.367188 C 435.515625 1390.714844 439.15625 1402.09375 439.15625 1416.511719 L 439.15625 1485.707031 L 411.386719 1485.707031 L 411.386719 1423.113281 C 411.386719 1413.703125 409.261719 1406.722656 405.011719 1402.171875 C 400.765625 1397.46875 394.996094 1395.117188 387.714844 1395.117188 C 379.0625 1395.117188 372.3125 1397.847656 367.457031 1403.308594 C 362.601562 1408.773438 360.171875 1416.054688 360.171875 1425.160156 Z M 360.171875 1485.707031 "/><path style=" stroke:none;fill-rule:nonzero;fill:#ffffff;fill-opacity:1;" d="M 516.742188 1488.667969 C 505.664062 1488.667969 495.800781 1486.164062 487.152344 1481.15625 C 478.652344 1475.996094 471.976562 1469.015625 467.121094 1460.214844 C 462.265625 1451.261719 459.835938 1441.019531 459.835938 1429.484375 C 459.835938 1417.800781 462.191406 1407.484375 466.894531 1398.53125 C 471.597656 1389.578125 478.199219 1382.597656 486.695312 1377.589844 C 495.195312 1372.429688 504.90625 1369.851562 515.832031 1369.851562 C 527.210938 1369.851562 537 1372.277344 545.195312 1377.132812 C 553.390625 1381.835938 559.6875 1388.4375 564.085938 1396.9375 C 568.640625 1405.433594 570.914062 1415.601562 570.914062 1427.4375 L 570.914062 1435.859375 L 474.40625 1436.085938 L 474.859375 1418.332031 L 543.375 1418.332031 C 543.375 1410.59375 540.871094 1404.371094 535.863281 1399.667969 C 531.007812 1394.964844 524.40625 1392.613281 516.058594 1392.613281 C 509.535156 1392.613281 503.996094 1393.976562 499.441406 1396.707031 C 495.042969 1399.441406 491.703125 1403.539062 489.429688 1409 C 487.152344 1414.464844 486.015625 1421.140625 486.015625 1429.03125 C 486.015625 1441.171875 488.59375 1450.351562 493.753906 1456.574219 C 499.0625 1462.792969 506.878906 1465.90625 517.199219 1465.90625 C 524.785156 1465.90625 531.007812 1464.464844 535.863281 1461.582031 C 540.871094 1458.695312 544.132812 1454.601562 545.648438 1449.289062 L 571.371094 1449.289062 C 568.941406 1461.582031 562.875 1471.214844 553.160156 1478.195312 C 543.601562 1485.175781 531.460938 1488.667969 516.742188 1488.667969 Z M 516.742188 1488.667969 "/><path style=" stroke:none;fill-rule:nonzero;fill:#ffffff;fill-opacity:1;" d="M 580.878906 1373.265625 L 651.898438 1373.265625 L 651.898438 1396.480469 L 580.878906 1396.480469 Z M 630.273438 1485.707031 L 602.503906 1485.707031 L 602.503906 1338.210938 L 630.273438 1338.210938 Z M 630.273438 1485.707031 "/><g clip-rule="nonzero" clip-path="url(#2b7f2461ce)"><path style=" stroke:none;fill-rule:nonzero;fill:#000000;fill-opacity:1;" d="M 185.183594 834.160156 C 263.921875 894.9375 362.652344 930.941406 469.757812 930.507812 C 512.261719 926.773438 555.261719 918.828125 594.734375 904.609375 C 633.335938 890.742188 668.738281 870.78125 696.753906 842.636719 C 733.292969 806.042969 748.835938 770.277344 748.5 740.53125 C 748.148438 710.269531 730.875 687.277344 702.988281 676.0625 C 673.527344 664.511719 632.578125 665.789062 585.101562 686.871094 C 556.652344 699.449219 526.292969 715.546875 494.542969 732.335938 C 396.664062 783.964844 287.261719 841.78125 185.199219 834.144531 Z M 185.183594 834.160156 "/></g><g clip-rule="nonzero" clip-path="url(#2305ea2530)"><path style=" stroke:none;fill-rule:nonzero;fill:#000000;fill-opacity:1;" d="M 393.335938 11.351562 C 294.378906 27.480469 206.277344 74.6875 138.929688 142.765625 C 82.378906 200.105469 40.433594 272.070312 19.890625 352.472656 C 35.898438 335.417969 54.183594 320.625 73.898438 309.308594 C 137.046875 273.445312 204.367188 263.269531 271.503906 253.261719 C 331.128906 244.347656 390.402344 235.265625 440.996094 207.347656 C 481.988281 184.71875 508.0625 152.914062 518.203125 121.023438 C 523.539062 104.375 524.492188 88.105469 520.730469 73.421875 C 517.148438 59.441406 509.382812 46.726562 496.898438 36.648438 C 475.808594 19.28125 441.613281 8.980469 393.335938 11.351562 Z M 393.335938 11.351562 "/></g><g clip-rule="nonzero" clip-path="url(#87602021a4)"><path style=" stroke:none;fill-rule:nonzero;fill:#000000;fill-opacity:1;" d="M 912.65625 339.207031 C 890.34375 262.371094 848.832031 193.675781 793.394531 139.074219 C 731.621094 78.027344 652.632812 34.21875 564.5 15.464844 C 573.320312 28.363281 579.527344 42.667969 583.289062 57.6875 C 590.085938 84.0625 588.683594 112.585938 579.738281 140.617188 C 564.949219 187.050781 528.453125 232.570312 472.285156 263.84375 C 411.226562 297.605469 346.183594 307.246094 280.96875 317.058594 C 219.941406 326.324219 158.574219 335.417969 105.902344 365.625 C 1.636719 402.429688 -50.558594 610.875 115.675781 608.363281 C 234.824219 605.066406 312.675781 537.449219 390.867188 469.484375 L 397.660156 463.503906 C 443.453125 423.710938 495.734375 382.835938 552.425781 350.507812 C 610.6875 317.296875 673.722656 293.140625 739.148438 288.410156 C 754.019531 287.273438 768.371094 287.1875 782.371094 288.171875 C 832.09375 291.738281 877.15625 307.921875 912.683594 339.207031 Z M 912.65625 339.207031 "/></g><g clip-rule="nonzero" clip-path="url(#691f66a63f)"><path style=" stroke:none;fill-rule:nonzero;fill:#000000;fill-opacity:1;" d="M 807.367188 782.53125 C 872.761719 712.011719 928.875 608.488281 921.839844 509.699219 C 917.867188 456.375 900.847656 417.984375 875.5 392.941406 C 850.503906 368.238281 816.3125 355.324219 777.976562 352.738281 C 766.769531 351.925781 755.394531 351.996094 743.851562 352.753906 C 689.101562 356.742188 635.148438 377.683594 584.386719 406.65625 C 531.878906 436.695312 482.929688 474.929688 439.914062 512.421875 L 432.949219 518.414062 C 346.222656 593.777344 259.847656 668.777344 117.429688 672.734375 C 91.535156 673.410156 69.125 670.910156 49.492188 665.421875 C 54.28125 675.542969 59.40625 685.664062 64.882812 695.25 C 170.652344 830.566406 329.949219 746.402344 464.292969 675.320312 C 497.617188 657.816406 529.550781 640.84375 558.871094 627.902344 C 623.632812 599.195312 682.597656 598.507812 726.972656 616.113281 C 779.238281 636.984375 812.40625 683.320312 812.898438 739.816406 C 813.152344 753.628906 811.3125 767.820312 807.367188 782.53125 Z M 807.367188 782.53125 "/></g><g clip-rule="nonzero" clip-path="url(#f547f8d713)"><path style=" stroke:none;fill-rule:nonzero;fill:#ffffff;fill-opacity:1;" d="M 185.183594 834.160156 C 263.921875 894.9375 362.652344 930.941406 469.757812 930.507812 C 512.261719 926.773438 555.261719 918.828125 594.734375 904.609375 C 633.335938 890.742188 668.738281 870.78125 696.753906 842.636719 C 733.292969 806.042969 748.835938 770.277344 748.5 740.53125 C 748.148438 710.269531 730.875 687.277344 702.988281 676.0625 C 673.527344 664.511719 632.578125 665.789062 585.101562 686.871094 C 556.652344 699.449219 526.292969 715.546875 494.542969 732.335938 C 396.664062 783.964844 287.261719 841.78125 185.199219 834.144531 Z M 185.183594 834.160156 "/></g><g clip-rule="nonzero" clip-path="url(#5edbea25ce)"><path style=" stroke:none;fill-rule:nonzero;fill:#ffffff;fill-opacity:1;" d="M 393.335938 11.351562 C 294.378906 27.480469 206.277344 74.6875 138.929688 142.765625 C 82.378906 200.105469 40.433594 272.070312 19.890625 352.472656 C 35.898438 335.417969 54.183594 320.625 73.898438 309.308594 C 137.046875 273.445312 204.367188 263.269531 271.503906 253.261719 C 331.128906 244.347656 390.402344 235.265625 440.996094 207.347656 C 481.988281 184.71875 508.0625 152.914062 518.203125 121.023438 C 523.539062 104.375 524.492188 88.105469 520.730469 73.421875 C 517.148438 59.441406 509.382812 46.726562 496.898438 36.648438 C 475.808594 19.28125 441.613281 8.980469 393.335938 11.351562 Z M 393.335938 11.351562 "/></g><g clip-rule="nonzero" clip-path="url(#62bfc4f941)"><path style=" stroke:none;fill-rule:nonzero;fill:#ffffff;fill-opacity:1;" d="M 912.65625 339.207031 C 890.34375 262.371094 848.832031 193.675781 793.394531 139.074219 C 731.621094 78.027344 652.632812 34.21875 564.5 15.464844 C 573.320312 28.363281 579.527344 42.667969 583.289062 57.6875 C 590.085938 84.0625 588.683594 112.585938 579.738281 140.617188 C 564.949219 187.050781 528.453125 232.570312 472.285156 263.84375 C 411.226562 297.605469 346.183594 307.246094 280.96875 317.058594 C 219.941406 326.324219 158.574219 335.417969 105.902344 365.625 C 1.636719 402.429688 -50.558594 610.875 115.675781 608.363281 C 234.824219 605.066406 312.675781 537.449219 390.867188 469.484375 L 397.660156 463.503906 C 443.453125 423.710938 495.734375 382.835938 552.425781 350.507812 C 610.6875 317.296875 673.722656 293.140625 739.148438 288.410156 C 754.019531 287.273438 768.371094 287.1875 782.371094 288.171875 C 832.09375 291.738281 877.15625 307.921875 912.683594 339.207031 Z M 912.65625 339.207031 "/></g><g clip-rule="nonzero" clip-path="url(#dff1938eb5)"><path style=" stroke:none;fill-rule:nonzero;fill:#ffffff;fill-opacity:1;" d="M 807.367188 782.53125 C 872.761719 712.011719 928.875 608.488281 921.839844 509.699219 C 917.867188 456.375 900.847656 417.984375 875.5 392.941406 C 850.503906 368.238281 816.3125 355.324219 777.976562 352.738281 C 766.769531 351.925781 755.394531 351.996094 743.851562 352.753906 C 689.101562 356.742188 635.148438 377.683594 584.386719 406.65625 C 531.878906 436.695312 482.929688 474.929688 439.914062 512.421875 L 432.949219 518.414062 C 346.222656 593.777344 259.847656 668.777344 117.429688 672.734375 C 91.535156 673.410156 69.125 670.910156 49.492188 665.421875 C 54.28125 675.542969 59.40625 685.664062 64.882812 695.25 C 170.652344 830.566406 329.949219 746.402344 464.292969 675.320312 C 497.617188 657.816406 529.550781 640.84375 558.871094 627.902344 C 623.632812 599.195312 682.597656 598.507812 726.972656 616.113281 C 779.238281 636.984375 812.40625 683.320312 812.898438 739.816406 C 813.152344 753.628906 811.3125 767.820312 807.367188 782.53125 Z M 807.367188 782.53125 "/></g></g></svg>